STARTFONT 2.1
FONT -FontForge-Microsoft Sans Serif-Book-R-Normal-SansSerif-36-350-75-75-P-204-ISO10646-1
SIZE 35 75 75
FONTBOUNDINGBOX 47 41 -3 -8
COMMENT "Generated by fontforge, http://fontforge.sourceforge.net"
COMMENT "(c) 2022 Microsoft Corporation. All rights reserved."
COMMENT ""
COMMENT "Hebrew OpenType Layout logic copyright (c) 2003 & 2007, Ralph Hancock & John Hudson. This layout logic for Biblical Hebrew is open source software under the MIT License; see embedded license description for details."
STARTPROPERTIES 40
FOUNDRY "FontForge"
FAMILY_NAME "Microsoft Sans Serif"
WEIGHT_NAME "Book"
SLANT "R"
SETWIDTH_NAME "Normal"
ADD_STYLE_NAME "SansSerif"
PIXEL_SIZE 36
POINT_SIZE 350
RESOLUTION_X 75
RESOLUTION_Y 75
SPACING "P"
AVERAGE_WIDTH 204
CHARSET_REGISTRY "ISO10646"
CHARSET_ENCODING "1"
FONTNAME_REGISTRY ""
CHARSET_COLLECTIONS "ISO8859-2 ISO8859-9 ISO8859-4 ISO10646-1"
FONT_NAME "MicrosoftSansSerif"
FACE_NAME "Microsoft Sans Serif"
COPYRIGHT "(c) 2022 Microsoft Corporation. All rights reserved."
FONT_VERSION "7.02"
FONT_ASCENT 29
FONT_DESCENT 7
UNDERLINE_POSITION -5
UNDERLINE_THICKNESS 2
X_HEIGHT 18
CAP_HEIGHT 25
RAW_ASCENT 799
RAW_DESCENT 200
NORM_SPACE 10
RELATIVE_WEIGHT 40
RELATIVE_SETWIDTH 50
SUPERSCRIPT_X 0
SUPERSCRIPT_Y 17
SUPERSCRIPT_SIZE 23
SUBSCRIPT_X 0
SUBSCRIPT_Y 4
SUBSCRIPT_SIZE 23
FIGURE_WIDTH 20
AVG_LOWERCASE_WIDTH 182
AVG_UPPERCASE_WIDTH 244
ENDPROPERTIES
CHARS 632
STARTCHAR space
ENCODING 32
SWIDTH 265 0
DWIDTH 10 0
BBX 1 1 0 0
BITMAP
00
ENDCHAR
STARTCHAR exclam
ENCODING 33
SWIDTH 277 0
DWIDTH 10 0
BBX 3 26 3 0
BITMAP
E0
E0
E0
E0
E0
E0
E0
E0
E0
E0
E0
E0
E0
E0
E0
E0
E0
60
40
00
00
00
E0
E0
E0
E0
ENDCHAR
STARTCHAR quotedbl
ENCODING 34
SWIDTH 354 0
DWIDTH 13 0
BBX 9 9 1 17
BITMAP
E380
E380
E380
E380
E380
E380
E380
E380
4100
ENDCHAR
STARTCHAR numbersign
ENCODING 35
SWIDTH 556 0
DWIDTH 20 0
BBX 19 26 0 0
BITMAP
01C380
01C380
01C780
038700
038700
038700
038700
3FFFE0
3FFFE0
3FFFE0
070E00
070E00
070E00
0E1C00
0E1C00
0E1C00
FFFF80
FFFF80
FFFF80
1C3800
1C3800
1C3800
1C3800
3C7000
387000
387000
ENDCHAR
STARTCHAR dollar
ENCODING 36
SWIDTH 556 0
DWIDTH 20 0
BBX 17 32 1 -3
BITMAP
018000
018000
018000
07F000
1FFC00
3FFE00
3D9E00
798F00
718700
718000
718000
718000
798000
3D8000
1FC000
0FF800
03FE00
01BF00
018700
018380
018380
E18380
E18380
F18380
718700
7D9F00
3FFE00
1FFC00
07F000
018000
018000
018000
ENDCHAR
STARTCHAR percent
ENCODING 37
SWIDTH 889 0
DWIDTH 32 0
BBX 28 26 2 0
BITMAP
1F000C00
3FC01800
70E03800
70E03000
E0707000
E0706000
E070E000
E070C000
E0718000
E0718000
70E30000
70E30000
3FC61F00
1F063FC0
000C70E0
000C70E0
0018E070
0018E070
0030E070
0070E070
0060E070
00E0E070
00C070E0
01C070E0
01803FC0
03001F00
ENDCHAR
STARTCHAR ampersand
ENCODING 38
SWIDTH 666 0
DWIDTH 24 0
BBX 20 26 2 0
BITMAP
01F000
07F800
0FFC00
1E1E00
1C0E00
1C0E00
1C0E00
1E0E00
0E1C00
0F7800
07F000
07E000
0FE000
3EE0E0
78F0E0
7078E0
E03CE0
E01FC0
E00FC0
E00FC0
F00780
7007C0
7C1FE0
3FFFF0
1FFCE0
07E040
ENDCHAR
STARTCHAR quotesingle
ENCODING 39
SWIDTH 190 0
DWIDTH 7 0
BBX 3 9 2 17
BITMAP
E0
E0
E0
E0
E0
E0
E0
E0
40
ENDCHAR
STARTCHAR parenleft
ENCODING 40
SWIDTH 333 0
DWIDTH 12 0
BBX 9 33 2 -7
BITMAP
0380
0700
0600
0E00
1C00
1C00
3800
3800
7000
7000
7000
7000
E000
E000
E000
E000
E000
E000
E000
E000
E000
7000
7000
7000
7000
3800
3800
1C00
1C00
0E00
0600
0700
0380
ENDCHAR
STARTCHAR parenright
ENCODING 41
SWIDTH 333 0
DWIDTH 12 0
BBX 9 33 0 -7
BITMAP
E000
7000
3000
3800
1C00
1C00
0E00
0E00
0600
0700
0700
0700
0380
0380
0380
0380
0380
0380
0380
0380
0380
0700
0700
0700
0700
0E00
0E00
1C00
1C00
3800
3000
7000
E000
ENDCHAR
STARTCHAR asterisk
ENCODING 42
SWIDTH 389 0
DWIDTH 14 0
BBX 13 11 1 15
BITMAP
0700
0700
0700
6730
FFF8
3FE0
0F80
1DC0
3DE0
38E0
1040
ENDCHAR
STARTCHAR plus
ENCODING 43
SWIDTH 583 0
DWIDTH 21 0
BBX 17 17 2 4
BITMAP
01C000
01C000
01C000
01C000
01C000
01C000
01C000
FFFF80
FFFF80
FFFF80
01C000
01C000
01C000
01C000
01C000
01C000
01C000
ENDCHAR
STARTCHAR comma
ENCODING 44
SWIDTH 277 0
DWIDTH 10 0
BBX 3 9 3 -5
BITMAP
E0
E0
E0
E0
60
60
60
C0
80
ENDCHAR
STARTCHAR hyphen
ENCODING 45
SWIDTH 333 0
DWIDTH 12 0
BBX 10 3 1 8
BITMAP
FFC0
FFC0
FFC0
ENDCHAR
STARTCHAR period
ENCODING 46
SWIDTH 277 0
DWIDTH 10 0
BBX 3 4 3 0
BITMAP
E0
E0
E0
E0
ENDCHAR
STARTCHAR slash
ENCODING 47
SWIDTH 277 0
DWIDTH 10 0
BBX 10 26 0 0
BITMAP
00C0
01C0
0180
0180
0180
0300
0300
0300
0600
0600
0600
0E00
0C00
0C00
1C00
1800
1800
1800
3000
3000
3000
6000
6000
6000
E000
C000
ENDCHAR
STARTCHAR zero
ENCODING 48
SWIDTH 556 0
DWIDTH 20 0
BBX 17 26 1 0
BITMAP
03E000
0FF800
1FFC00
3C1E00
780F00
700700
700700
F00700
E00380
E00380
E00380
E00380
E00380
E00380
E00380
E00380
E00380
E00380
E00700
700700
700700
780F00
3C1E00
1FFC00
0FF800
07E000
ENDCHAR
STARTCHAR one
ENCODING 49
SWIDTH 556 0
DWIDTH 20 0
BBX 10 26 3 0
BITMAP
00C0
01C0
01C0
03C0
0FC0
FFC0
FFC0
F9C0
01C0
01C0
01C0
01C0
01C0
01C0
01C0
01C0
01C0
01C0
01C0
01C0
01C0
01C0
01C0
01C0
01C0
01C0
ENDCHAR
STARTCHAR two
ENCODING 50
SWIDTH 556 0
DWIDTH 20 0
BBX 18 26 0 0
BITMAP
03F800
0FFE00
1FFF00
3E0F80
3803C0
7001C0
7001C0
0001C0
0001C0
0001C0
000380
000780
000700
001E00
003C00
007800
01F000
03E000
078000
0F0000
1E0000
3C0000
780000
FFFFC0
FFFFC0
FFFFC0
ENDCHAR
STARTCHAR three
ENCODING 51
SWIDTH 556 0
DWIDTH 20 0
BBX 17 26 1 0
BITMAP
07E000
1FF800
3FFC00
781E00
700F00
E00700
E00700
000700
000700
000E00
001E00
01FC00
01F800
01FE00
001F00
000700
000380
000380
000380
E00380
E00780
700700
7C1F00
3FFE00
1FFC00
07F000
ENDCHAR
STARTCHAR four
ENCODING 52
SWIDTH 556 0
DWIDTH 20 0
BBX 17 26 1 0
BITMAP
001C00
001C00
003C00
007C00
007C00
00FC00
01DC00
03DC00
039C00
071C00
0F1C00
0E1C00
1C1C00
381C00
381C00
701C00
E01C00
FFFF80
FFFF80
FFFF80
001C00
001C00
001C00
001C00
001C00
001C00
ENDCHAR
STARTCHAR five
ENCODING 53
SWIDTH 556 0
DWIDTH 20 0
BBX 17 26 1 0
BITMAP
3FFF00
3FFF00
3FFF00
380000
380000
380000
380000
780000
700000
73F000
7FFC00
7FFE00
7C1F00
700700
000780
000380
000380
000380
000380
E00380
E00700
700F00
7C1E00
3FFE00
1FF800
07F000
ENDCHAR
STARTCHAR six
ENCODING 54
SWIDTH 556 0
DWIDTH 20 0
BBX 17 26 1 0
BITMAP
03F800
0FFC00
1FFF00
3E0F00
3C0780
780380
700000
700000
F00000
E3F000
EFFC00
FFFE00
FC1F00
F00700
E00780
E00380
E00380
E00380
F00380
700380
700700
780700
3E1F00
1FFE00
0FFC00
03F000
ENDCHAR
STARTCHAR seven
ENCODING 55
SWIDTH 556 0
DWIDTH 20 0
BBX 17 26 1 0
BITMAP
FFFF80
FFFF80
FFFF80
000780
000700
000F00
000E00
000E00
001C00
001C00
003C00
003800
003800
007000
007000
00F000
00E000
01E000
01C000
01C000
038000
038000
078000
070000
070000
0E0000
ENDCHAR
STARTCHAR eight
ENCODING 56
SWIDTH 556 0
DWIDTH 20 0
BBX 17 26 1 0
BITMAP
07F000
1FFC00
3FFE00
3C1E00
780F00
700700
700700
700700
780F00
3C1E00
1E3C00
0FF800
07F000
1FFC00
3E3E00
780F00
700700
E00380
E00380
E00380
E00380
F00780
7C1F00
3FFE00
1FFC00
07F000
ENDCHAR
STARTCHAR nine
ENCODING 57
SWIDTH 556 0
DWIDTH 20 0
BBX 17 26 1 0
BITMAP
07E000
1FF800
3FFC00
7C3E00
700E00
F00700
E00700
E00780
E00380
E00380
E00380
F00380
700780
7C1F80
3FFF80
1FF380
07E380
000780
000700
000700
E00F00
F01E00
783E00
7FFC00
1FF800
0FE000
ENDCHAR
STARTCHAR colon
ENCODING 58
SWIDTH 277 0
DWIDTH 10 0
BBX 3 19 3 0
BITMAP
E0
E0
E0
E0
00
00
00
00
00
00
00
00
00
00
00
E0
E0
E0
E0
ENDCHAR
STARTCHAR semicolon
ENCODING 59
SWIDTH 277 0
DWIDTH 10 0
BBX 3 24 3 -5
BITMAP
E0
E0
E0
E0
00
00
00
00
00
00
00
00
00
00
00
E0
E0
E0
E0
60
60
60
C0
80
ENDCHAR
STARTCHAR less
ENCODING 60
SWIDTH 583 0
DWIDTH 21 0
BBX 16 17 2 4
BITMAP
0001
0007
003F
00FE
03F8
0FC0
7F00
FC00
F000
FC00
7F00
0FC0
03F8
00FE
003F
0007
0001
ENDCHAR
STARTCHAR equal
ENCODING 61
SWIDTH 583 0
DWIDTH 21 0
BBX 16 11 2 7
BITMAP
FFFF
FFFF
FFFF
0000
0000
0000
0000
0000
FFFF
FFFF
FFFF
ENDCHAR
STARTCHAR greater
ENCODING 62
SWIDTH 583 0
DWIDTH 21 0
BBX 16 17 2 4
BITMAP
8000
E000
FC00
7F00
1FC0
03F0
00FE
003F
000F
003F
00FE
03F0
1FC0
7F00
FC00
E000
8000
ENDCHAR
STARTCHAR question
ENCODING 63
SWIDTH 556 0
DWIDTH 20 0
BBX 16 26 2 0
BITMAP
07E0
1FF8
3FFC
783E
700F
E007
E007
0007
0007
000E
001E
003C
0078
00E0
01C0
03C0
0380
0380
0380
0000
0000
0000
0380
0380
0380
0380
ENDCHAR
STARTCHAR at
ENCODING 64
SWIDTH 1015 0
DWIDTH 37 0
BBX 32 33 2 -7
BITMAP
0007FC00
003FFF80
00F807C0
01E001F0
07800078
0F000038
0E00001C
1C07C00E
3C0FF70E
381FF70E
703C3F07
70780E07
70F00E07
E0E00E07
E0E01E07
E1C01C07
E1C01C07
E1C01C0F
E1C03C0E
E1C0381E
E1C0781C
E1E0783C
70F1F8F8
70FFBFF0
787F3FE0
383E1F00
1C000000
1E000000
0F000000
07C00000
01F80180
007FFFC0
000FFE00
ENDCHAR
STARTCHAR A
ENCODING 65
SWIDTH 666 0
DWIDTH 24 0
BBX 24 26 0 0
BITMAP
003C00
007C00
007E00
006E00
00E600
00C700
01C700
01C380
018380
038180
0381C0
0701C0
0700E0
0700E0
0E00E0
0FFFF0
0FFFF0
1FFFF8
1C0038
380038
38001C
38001C
70001E
70000E
70000E
E00007
ENDCHAR
STARTCHAR B
ENCODING 66
SWIDTH 666 0
DWIDTH 24 0
BBX 19 26 3 0
BITMAP
FFF800
FFFE00
FFFF00
E00780
E003C0
E001C0
E001C0
E001C0
E001C0
E00380
E00780
FFFF00
FFFE00
FFFF80
E007C0
E001C0
E000E0
E000E0
E000E0
E000E0
E000E0
E001C0
E007C0
FFFF80
FFFF00
FFFC00
ENDCHAR
STARTCHAR C
ENCODING 67
SWIDTH 722 0
DWIDTH 26 0
BBX 22 26 2 0
BITMAP
00FE00
03FFC0
0FFFE0
1F81F0
3E0078
380038
78001C
70001C
700000
E00000
E00000
E00000
E00000
E00000
E00000
E00000
E00000
70001C
70001C
78003C
380038
3E0078
1F81F0
0FFFE0
03FFC0
00FE00
ENDCHAR
STARTCHAR D
ENCODING 68
SWIDTH 722 0
DWIDTH 26 0
BBX 21 26 3 0
BITMAP
FFF800
FFFE00
FFFF80
E00FC0
E001E0
E000E0
E000F0
E00070
E00078
E00038
E00038
E00038
E00038
E00038
E00038
E00038
E00038
E00070
E00070
E000F0
E000E0
E001E0
E00FC0
FFFF80
FFFE00
FFF800
ENDCHAR
STARTCHAR E
ENCODING 69
SWIDTH 666 0
DWIDTH 24 0
BBX 19 26 3 0
BITMAP
FFFFC0
FFFFC0
FFFFC0
E00000
E00000
E00000
E00000
E00000
E00000
E00000
E00000
FFFF80
FFFF80
FFFF80
E00000
E00000
E00000
E00000
E00000
E00000
E00000
E00000
E00000
FFFFE0
FFFFE0
FFFFE0
ENDCHAR
STARTCHAR F
ENCODING 70
SWIDTH 610 0
DWIDTH 22 0
BBX 17 26 3 0
BITMAP
FFFF80
FFFF80
FFFF80
E00000
E00000
E00000
E00000
E00000
E00000
E00000
E00000
FFFE00
FFFE00
FFFE00
E00000
E00000
E00000
E00000
E00000
E00000
E00000
E00000
E00000
E00000
E00000
E00000
ENDCHAR
STARTCHAR G
ENCODING 71
SWIDTH 777 0
DWIDTH 28 0
BBX 24 26 2 0
BITMAP
007F80
03FFE0
07FFF8
0F80FC
1E001E
3C000E
780007
700007
700000
E00000
E00000
E00000
E00000
E003FF
E003FF
E003FF
E00007
700007
700007
780007
3C000F
1E001F
0F80FF
07FFFF
03FFE7
007F83
ENDCHAR
STARTCHAR H
ENCODING 72
SWIDTH 722 0
DWIDTH 26 0
BBX 20 26 3 0
BITMAP
E00070
E00070
E00070
E00070
E00070
E00070
E00070
E00070
E00070
E00070
E00070
FFFFF0
FFFFF0
FFFFF0
E00070
E00070
E00070
E00070
E00070
E00070
E00070
E00070
E00070
E00070
E00070
E00070
ENDCHAR
STARTCHAR I
ENCODING 73
SWIDTH 277 0
DWIDTH 9 0
BBX 3 26 3 0
BITMAP
E0
E0
E0
E0
E0
E0
E0
E0
E0
E0
E0
E0
E0
E0
E0
E0
E0
E0
E0
E0
E0
E0
E0
E0
E0
E0
ENDCHAR
STARTCHAR J
ENCODING 74
SWIDTH 500 0
DWIDTH 18 0
BBX 14 26 1 0
BITMAP
001C
001C
001C
001C
001C
001C
001C
001C
001C
001C
001C
001C
001C
001C
001C
001C
001C
001C
E01C
E01C
E01C
F03C
7878
7FF8
3FF0
0FC0
ENDCHAR
STARTCHAR K
ENCODING 75
SWIDTH 666 0
DWIDTH 24 0
BBX 21 26 3 0
BITMAP
E000F0
E001E0
E003C0
E00780
E00F00
E01E00
E03C00
E07800
E0F000
E1E000
E3C000
E7C000
EFE000
FE7000
FC7800
F83800
F01C00
E01E00
E00F00
E00700
E00380
E003C0
E001C0
E000E0
E000F0
E00078
ENDCHAR
STARTCHAR L
ENCODING 76
SWIDTH 556 0
DWIDTH 20 0
BBX 16 26 3 0
BITMAP
E000
E000
E000
E000
E000
E000
E000
E000
E000
E000
E000
E000
E000
E000
E000
E000
E000
E000
E000
E000
E000
E000
E000
FFFF
FFFF
FFFF
ENDCHAR
STARTCHAR M
ENCODING 77
SWIDTH 833 0
DWIDTH 30 0
BBX 24 26 3 0
BITMAP
F8001F
F8001F
FC003F
FC003F
FC003F
EE0077
EE0077
EE0077
E700E7
E700E7
E700E7
E381C7
E381C7
E381C7
E1C387
E1C387
E1C387
E0E707
E0E707
E0E707
E07E07
E07E07
E07E07
E03C07
E03C07
E03C07
ENDCHAR
STARTCHAR N
ENCODING 78
SWIDTH 722 0
DWIDTH 26 0
BBX 20 26 3 0
BITMAP
F00070
F00070
F80070
FC0070
FC0070
FE0070
EE0070
E70070
E78070
E38070
E1C070
E1E070
E0E070
E07070
E07870
E03870
E01C70
E01E70
E00E70
E00770
E007F0
E003F0
E003F0
E001F0
E000F0
E000F0
ENDCHAR
STARTCHAR O
ENCODING 79
SWIDTH 777 0
DWIDTH 28 0
BBX 24 26 2 0
BITMAP
00FF00
03FFC0
07FFE0
1F81F8
1E0078
3C003C
78001E
70000E
70000E
E00007
E00007
E00007
E00007
E00007
E00007
E00007
E00007
70000E
70000E
78001E
3C003C
1E0078
1F81F8
0FFFE0
03FFC0
00FF00
ENDCHAR
STARTCHAR P
ENCODING 80
SWIDTH 666 0
DWIDTH 24 0
BBX 19 26 3 0
BITMAP
FFFC00
FFFF00
FFFF80
E003C0
E001C0
E001E0
E000E0
E000E0
E000E0
E000E0
E001E0
E001C0
E007C0
FFFF80
FFFF00
FFF800
E00000
E00000
E00000
E00000
E00000
E00000
E00000
E00000
E00000
E00000
ENDCHAR
STARTCHAR Q
ENCODING 81
SWIDTH 777 0
DWIDTH 28 0
BBX 24 28 2 -2
BITMAP
00FF00
03FFC0
07FFE0
1F81F8
1E0078
3C003C
78001E
70000E
70000E
E00007
E00007
E00007
E00007
E00007
E00007
E00007
E00007
70000E
70010E
78039E
3C07DC
1E01F8
1F81F8
0FFFFC
03FFFE
00FF0F
000006
000002
ENDCHAR
STARTCHAR R
ENCODING 82
SWIDTH 722 0
DWIDTH 26 0
BBX 21 26 3 0
BITMAP
FFFF00
FFFFC0
FFFFC0
E003E0
E000F0
E00070
E00070
E00070
E00070
E00070
E000E0
E003E0
FFFFC0
FFFF00
FFFE00
E00F00
E00380
E003C0
E001C0
E000E0
E000E0
E000E0
E00070
E00070
E00070
E00038
ENDCHAR
STARTCHAR S
ENCODING 83
SWIDTH 666 0
DWIDTH 24 0
BBX 20 26 2 0
BITMAP
03F800
0FFE00
1FFF80
3E07C0
7803C0
7001E0
7000E0
7000E0
700000
3C0000
3F8000
1FF800
07FF00
00FFC0
000FE0
0001E0
0000F0
E00070
E00070
F00070
700070
7800E0
3E03E0
1FFFC0
0FFF00
01FC00
ENDCHAR
STARTCHAR T
ENCODING 84
SWIDTH 610 0
DWIDTH 22 0
BBX 19 26 1 0
BITMAP
FFFFE0
FFFFE0
FFFFE0
00E000
00E000
00E000
00E000
00E000
00E000
00E000
00E000
00E000
00E000
00E000
00E000
00E000
00E000
00E000
00E000
00E000
00E000
00E000
00E000
00E000
00E000
00E000
ENDCHAR
STARTCHAR U
ENCODING 85
SWIDTH 722 0
DWIDTH 26 0
BBX 20 26 3 0
BITMAP
E00070
E00070
E00070
E00070
E00070
E00070
E00070
E00070
E00070
E00070
E00070
E00070
E00070
E00070
E00070
E00070
E00070
E00070
E00070
F000F0
7000E0
7801E0
3E07C0
3FFFC0
0FFF00
03FC00
ENDCHAR
STARTCHAR V
ENCODING 86
SWIDTH 666 0
DWIDTH 24 0
BBX 24 26 0 0
BITMAP
E00007
70000E
70000E
70001E
38001C
38001C
1C0038
1C0038
1C0038
0E0070
0E0070
060060
0700E0
0700E0
0381C0
0381C0
0381C0
01C380
01C380
00C300
00E700
00E700
007E00
007E00
003C00
003C00
ENDCHAR
STARTCHAR W
ENCODING 87
SWIDTH 943 0
DWIDTH 34 0
BBX 34 26 0 0
BITMAP
E001E001C0
E001E003C0
7001E00380
7003F00380
7003F00380
3003300700
3803300700
3807380700
3806180700
1806180E00
1C0E1C0E00
1C0E1C0E00
0C0C0C0C00
0C1C0E1C00
0E1C0E1C00
0E18061C00
0638071800
0638073800
0730033800
0770033800
037003B000
03E001F000
03E001F000
01E001E000
01C000E000
01C000E000
ENDCHAR
STARTCHAR X
ENCODING 88
SWIDTH 666 0
DWIDTH 24 0
BBX 24 26 0 0
BITMAP
78001E
3C003C
1C0038
0E0070
0F00F0
0781E0
0381C0
01C380
01E780
00E700
007E00
003C00
003C00
003C00
007E00
00E700
01C380
03C3C0
0381C0
0700E0
0F00F0
1E0078
1C0038
38001C
78001E
F0000F
ENDCHAR
STARTCHAR Y
ENCODING 89
SWIDTH 666 0
DWIDTH 23 0
BBX 23 26 0 0
BITMAP
F0001E
70001C
380038
3C0078
1C0070
0E00E0
0F01E0
0701C0
038380
038380
01C700
00EE00
00EE00
007C00
003800
003800
003800
003800
003800
003800
003800
003800
003800
003800
003800
003800
ENDCHAR
STARTCHAR Z
ENCODING 90
SWIDTH 610 0
DWIDTH 22 0
BBX 18 26 2 0
BITMAP
7FFFC0
7FFFC0
7FFFC0
0003C0
000780
000700
000F00
001E00
001C00
003800
007800
00F000
00E000
01C000
03C000
078000
070000
0E0000
1E0000
3C0000
380000
780000
F00000
FFFFC0
FFFFC0
FFFFC0
ENDCHAR
STARTCHAR bracketleft
ENCODING 91
SWIDTH 277 0
DWIDTH 10 0
BBX 7 33 2 -7
BITMAP
FE
FE
FE
E0
E0
E0
E0
E0
E0
E0
E0
E0
E0
E0
E0
E0
E0
E0
E0
E0
E0
E0
E0
E0
E0
E0
E0
E0
E0
E0
FE
FE
FE
ENDCHAR
STARTCHAR backslash
ENCODING 92
SWIDTH 277 0
DWIDTH 10 0
BBX 10 26 0 0
BITMAP
C000
E000
6000
6000
6000
3000
3000
3000
1800
1800
1800
0C00
0C00
0C00
0C00
0600
0600
0600
0300
0300
0300
0180
0180
0180
01C0
00C0
ENDCHAR
STARTCHAR bracketright
ENCODING 93
SWIDTH 277 0
DWIDTH 10 0
BBX 7 33 0 -7
BITMAP
FE
FE
FE
0E
0E
0E
0E
0E
0E
0E
0E
0E
0E
0E
0E
0E
0E
0E
0E
0E
0E
0E
0E
0E
0E
0E
0E
0E
0E
0E
FE
FE
FE
ENDCHAR
STARTCHAR asciicircum
ENCODING 94
SWIDTH 469 0
DWIDTH 17 0
BBX 15 11 1 15
BITMAP
0380
07C0
07C0
0EE0
0EE0
1C70
1C70
3838
701C
701C
E00E
ENDCHAR
STARTCHAR underscore
ENCODING 95
SWIDTH 551 0
DWIDTH 20 0
BBX 20 2 0 -6
BITMAP
FFFFF0
FFFFF0
ENDCHAR
STARTCHAR grave
ENCODING 96
SWIDTH 333 0
DWIDTH 12 0
BBX 6 5 2 21
BITMAP
F0
70
38
18
1C
ENDCHAR
STARTCHAR a
ENCODING 97
SWIDTH 556 0
DWIDTH 20 0
BBX 16 19 1 0
BITMAP
07F0
1FFC
3FFE
3C0F
7007
7007
0007
03FF
1FFF
3FFF
7C07
F007
E007
E007
E00F
F83F
7FFF
3FF7
1FC7
ENDCHAR
STARTCHAR b
ENCODING 98
SWIDTH 556 0
DWIDTH 20 0
BBX 16 26 2 0
BITMAP
E000
E000
E000
E000
E000
E000
E000
E3E0
EFF8
FFFC
FC3E
F00E
E00E
E007
E007
E007
E007
E007
E007
E007
E00E
F00E
F83C
FFFC
FFF8
E7E0
ENDCHAR
STARTCHAR c
ENCODING 99
SWIDTH 500 0
DWIDTH 18 0
BBX 16 19 1 0
BITMAP
03F0
1FFC
3FFE
3C1E
780F
7007
E000
E000
E000
E000
E000
E000
E000
7007
780F
3C1E
3FFE
1FFC
07F0
ENDCHAR
STARTCHAR d
ENCODING 100
SWIDTH 556 0
DWIDTH 20 0
BBX 16 26 1 0
BITMAP
0007
0007
0007
0007
0007
0007
0007
07E7
1FFF
3FFF
3C1F
700F
7007
E007
E007
E007
E007
E007
E007
E007
F007
700F
7C3F
3FFF
1FF7
07C7
ENDCHAR
STARTCHAR e
ENCODING 101
SWIDTH 556 0
DWIDTH 20 0
BBX 17 19 1 0
BITMAP
03F000
1FF800
3FFE00
3C1E00
780F00
700700
E00380
E00380
FFFF80
FFFF80
FFFF80
E00000
E00000
700380
780780
3C0F00
3FFE00
0FFC00
03F000
ENDCHAR
STARTCHAR f
ENCODING 102
SWIDTH 277 0
DWIDTH 10 0
BBX 11 26 0 0
BITMAP
03E0
0FE0
0FE0
1E00
1C00
1C00
1C00
FFC0
FFC0
FFC0
1C00
1C00
1C00
1C00
1C00
1C00
1C00
1C00
1C00
1C00
1C00
1C00
1C00
1C00
1C00
1C00
ENDCHAR
STARTCHAR g
ENCODING 103
SWIDTH 556 0
DWIDTH 20 0
BBX 16 26 1 -7
BITMAP
07E7
1FFF
3FFF
3C1F
700F
7007
E007
E007
E007
E007
E007
E007
E007
F007
700F
7C3F
3FFF
1FF7
07C7
0007
7007
700E
781E
3FFC
1FF8
07F0
ENDCHAR
STARTCHAR h
ENCODING 104
SWIDTH 556 0
DWIDTH 20 0
BBX 15 26 2 0
BITMAP
E000
E000
E000
E000
E000
E000
E000
E3F0
EFF8
FFFC
FC3C
F01E
E00E
E00E
E00E
E00E
E00E
E00E
E00E
E00E
E00E
E00E
E00E
E00E
E00E
E00E
ENDCHAR
STARTCHAR i
ENCODING 105
SWIDTH 228 0
DWIDTH 8 0
BBX 3 26 2 0
BITMAP
E0
E0
E0
00
00
00
00
E0
E0
E0
E0
E0
E0
E0
E0
E0
E0
E0
E0
E0
E0
E0
E0
E0
E0
E0
ENDCHAR
STARTCHAR j
ENCODING 106
SWIDTH 228 0
DWIDTH 8 0
BBX 7 33 -2 -7
BITMAP
0E
0E
0E
00
00
00
00
0E
0E
0E
0E
0E
0E
0E
0E
0E
0E
0E
0E
0E
0E
0E
0E
0E
0E
0E
0E
0E
0E
1E
FC
FC
F8
ENDCHAR
STARTCHAR k
ENCODING 107
SWIDTH 500 0
DWIDTH 18 0
BBX 15 26 2 0
BITMAP
E000
E000
E000
E000
E000
E000
E000
E03C
E078
E0F0
E1E0
E3C0
E780
EF00
FF00
FF00
FB80
F380
E1C0
E0E0
E0E0
E070
E078
E038
E01C
E01E
ENDCHAR
STARTCHAR l
ENCODING 108
SWIDTH 228 0
DWIDTH 8 0
BBX 3 26 2 0
BITMAP
E0
E0
E0
E0
E0
E0
E0
E0
E0
E0
E0
E0
E0
E0
E0
E0
E0
E0
E0
E0
E0
E0
E0
E0
E0
E0
ENDCHAR
STARTCHAR m
ENCODING 109
SWIDTH 833 0
DWIDTH 30 0
BBX 25 19 2 0
BITMAP
E3E07C00
EFF1FE00
FFFBFF00
FC3F8780
F01E0380
E01C0380
E01C0380
E01C0380
E01C0380
E01C0380
E01C0380
E01C0380
E01C0380
E01C0380
E01C0380
E01C0380
E01C0380
E01C0380
E01C0380
ENDCHAR
STARTCHAR n
ENCODING 110
SWIDTH 556 0
DWIDTH 20 0
BBX 15 19 2 0
BITMAP
E3F0
EFF8
FFFC
FC3C
F01E
E00E
E00E
E00E
E00E
E00E
E00E
E00E
E00E
E00E
E00E
E00E
E00E
E00E
E00E
ENDCHAR
STARTCHAR o
ENCODING 111
SWIDTH 556 0
DWIDTH 20 0
BBX 17 19 1 0
BITMAP
07F000
1FFC00
3FFE00
3C1E00
780F00
700700
E00380
E00380
E00380
E00380
E00380
E00380
E00380
700700
780F00
3C1E00
3FFE00
1FFC00
07F000
ENDCHAR
STARTCHAR p
ENCODING 112
SWIDTH 556 0
DWIDTH 20 0
BBX 16 26 2 -7
BITMAP
E3E0
EFF8
FFFC
FC3E
F00E
E00E
E007
E007
E007
E007
E007
E007
E007
E00E
F00E
F83C
FFFC
FFF8
E7E0
E000
E000
E000
E000
E000
E000
E000
ENDCHAR
STARTCHAR q
ENCODING 113
SWIDTH 556 0
DWIDTH 20 0
BBX 16 26 1 -7
BITMAP
07E7
1FFF
3FFF
3C1F
700F
7007
E007
E007
E007
E007
E007
E007
E007
F007
700F
7C3F
3FFF
1FF7
07C7
0007
0007
0007
0007
0007
0007
0007
ENDCHAR
STARTCHAR r
ENCODING 114
SWIDTH 333 0
DWIDTH 12 0
BBX 9 19 2 0
BITMAP
E780
EF80
FF80
F800
F000
E000
E000
E000
E000
E000
E000
E000
E000
E000
E000
E000
E000
E000
E000
ENDCHAR
STARTCHAR s
ENCODING 115
SWIDTH 500 0
DWIDTH 18 0
BBX 15 19 1 0
BITMAP
0FE0
3FF0
7FF8
F03C
E01C
E000
F000
FE00
7FE0
1FF8
03FC
003E
000E
E00E
E00E
781E
7FFC
3FF8
0FE0
ENDCHAR
STARTCHAR t
ENCODING 116
SWIDTH 277 0
DWIDTH 10 0
BBX 8 24 1 0
BITMAP
38
38
38
38
38
FF
FF
FF
38
38
38
38
38
38
38
38
38
38
38
38
38
3F
1F
0F
ENDCHAR
STARTCHAR u
ENCODING 117
SWIDTH 556 0
DWIDTH 20 0
BBX 15 19 2 0
BITMAP
E00E
E00E
E00E
E00E
E00E
E00E
E00E
E00E
E00E
E00E
E00E
E00E
E00E
E00E
F01E
F07E
7FFE
3FEE
1F8E
ENDCHAR
STARTCHAR v
ENCODING 118
SWIDTH 500 0
DWIDTH 18 0
BBX 17 19 0 0
BITMAP
E00380
700700
700700
700700
380E00
380E00
380E00
1C1C00
1C1C00
0C1800
0E3800
0E3800
063000
077000
077000
036000
03E000
03E000
01C000
ENDCHAR
STARTCHAR w
ENCODING 119
SWIDTH 722 0
DWIDTH 26 0
BBX 25 19 0 0
BITMAP
E01C0380
E01C0380
703E0700
703E0700
703E0700
30770600
38770E00
38770E00
38770E00
18E38C00
1CE39C00
1CE39C00
0DC1D800
0DC1D800
0DC1D800
0FC1F800
0780F000
0780F000
0780F000
ENDCHAR
STARTCHAR x
ENCODING 120
SWIDTH 500 0
DWIDTH 18 0
BBX 17 19 0 0
BITMAP
780F00
380E00
1C1C00
1E3C00
0E3800
077000
077000
03E000
01C000
03E000
03E000
077000
0E3800
0E3800
1C1C00
3C1E00
380E00
700700
F00780
ENDCHAR
STARTCHAR y
ENCODING 121
SWIDTH 500 0
DWIDTH 18 0
BBX 17 26 0 -7
BITMAP
E00380
700700
700700
700700
380E00
380E00
380E00
1C1C00
1C1C00
0C1800
0E3800
0E3800
063000
077000
077000
036000
03E000
03E000
01C000
01C000
038000
038000
0F0000
7F0000
7E0000
7C0000
ENDCHAR
STARTCHAR z
ENCODING 122
SWIDTH 500 0
DWIDTH 18 0
BBX 16 19 1 0
BITMAP
7FFE
7FFE
7FFE
001E
003C
0078
00F0
01E0
01C0
0380
0700
0F00
1E00
3C00
7800
F000
FFFF
FFFF
FFFF
ENDCHAR
STARTCHAR braceleft
ENCODING 123
SWIDTH 333 0
DWIDTH 12 0
BBX 11 33 1 -7
BITMAP
01E0
07E0
07E0
0F00
0E00
0E00
0E00
0E00
0E00
0E00
0E00
0E00
0E00
1C00
3C00
F800
E000
F800
3C00
1C00
0E00
0E00
0E00
0E00
0E00
0E00
0E00
0E00
0E00
0F00
07E0
07E0
01E0
ENDCHAR
STARTCHAR bar
ENCODING 124
SWIDTH 259 0
DWIDTH 9 0
BBX 3 33 3 -7
BITMAP
E0
E0
E0
E0
E0
E0
E0
E0
E0
E0
E0
E0
E0
E0
E0
E0
E0
E0
E0
E0
E0
E0
E0
E0
E0
E0
E0
E0
E0
E0
E0
E0
E0
ENDCHAR
STARTCHAR braceright
ENCODING 125
SWIDTH 333 0
DWIDTH 12 0
BBX 11 33 0 -7
BITMAP
F000
FC00
FC00
1E00
0E00
0E00
0E00
0E00
0E00
0E00
0E00
0E00
0E00
0700
0780
03E0
00E0
03E0
0780
0700
0E00
0E00
0E00
0E00
0E00
0E00
0E00
0E00
0E00
1E00
FC00
FC00
F000
ENDCHAR
STARTCHAR asciitilde
ENCODING 126
SWIDTH 583 0
DWIDTH 21 0
BBX 18 5 1 21
BITMAP
3F0040
FFE0C0
FFFFC0
C1FFC0
803F00
ENDCHAR
STARTCHAR space.dup1
ENCODING 160
SWIDTH 265 0
DWIDTH 10 0
BBX 1 1 0 0
BITMAP
00
ENDCHAR
STARTCHAR exclamdown
ENCODING 161
SWIDTH 277 0
DWIDTH 10 0
BBX 3 26 3 -7
BITMAP
E0
E0
E0
E0
00
00
00
40
C0
E0
E0
E0
E0
E0
E0
E0
E0
E0
E0
E0
E0
E0
E0
E0
E0
E0
ENDCHAR
STARTCHAR cent
ENCODING 162
SWIDTH 556 0
DWIDTH 20 0
BBX 15 27 2 -4
BITMAP
0030
0030
0030
0060
07E0
1FF8
3FFC
7CFC
78DE
70CE
E0C0
E180
E180
E180
E180
E180
E300
730E
7B1E
3F3C
3FFC
0FF8
07E0
0600
0C00
0C00
0C00
ENDCHAR
STARTCHAR sterling
ENCODING 163
SWIDTH 556 0
DWIDTH 20 0
BBX 17 26 1 0
BITMAP
01F800
07FC00
0FFE00
1E0F00
3C0780
380380
380380
380000
380000
380000
3C0000
1C0000
FFE000
FFE000
FFE000
0E0000
0E0000
0E0000
0E0000
0C0000
1C0000
380000
7FC080
FFFF80
FFFF80
C03F00
ENDCHAR
STARTCHAR currency
ENCODING 164
SWIDTH 556 0
DWIDTH 20 0
BBX 17 17 2 4
BITMAP
600100
F3E380
FFFF80
7FFF00
3C3E00
380E00
700700
700700
700700
700700
700700
380E00
3C1E00
7FFF00
FFFF80
F3E780
600100
ENDCHAR
STARTCHAR yen
ENCODING 165
SWIDTH 556 0
DWIDTH 20 0
BBX 19 26 0 0
BITMAP
F001E0
7001C0
7803C0
380380
3C0780
1C0700
1E0F00
0E0E00
061C00
071C00
033800
03B800
7FFFC0
7FFFC0
7FFFC0
00E000
00E000
00E000
7FFFC0
7FFFC0
7FFFC0
00E000
00E000
00E000
00E000
00E000
ENDCHAR
STARTCHAR brokenbar
ENCODING 166
SWIDTH 259 0
DWIDTH 9 0
BBX 3 33 3 -7
BITMAP
E0
E0
E0
E0
E0
E0
E0
E0
E0
E0
E0
E0
E0
00
00
00
00
00
00
00
E0
E0
E0
E0
E0
E0
E0
E0
E0
E0
E0
E0
E0
ENDCHAR
STARTCHAR section
ENCODING 167
SWIDTH 556 0
DWIDTH 20 0
BBX 17 33 1 -7
BITMAP
07E000
0FF800
1FFC00
3C1C00
380E00
380E00
380000
3C0000
1F0000
0F8000
1FE000
73F000
60FC00
E03E00
E01F00
E00F80
F00780
780380
7E0380
1F0380
0FC700
03FE00
01F800
007C00
001E00
000F00
000700
700700
780700
3C1F00
3FFE00
0FFC00
03F000
ENDCHAR
STARTCHAR dieresis
ENCODING 168
SWIDTH 333 0
DWIDTH 12 0
BBX 10 4 1 22
BITMAP
E1C0
E1C0
E1C0
E1C0
ENDCHAR
STARTCHAR copyright
ENCODING 169
SWIDTH 736 0
DWIDTH 27 0
BBX 27 26 0 0
BITMAP
003F8000
01FFF000
03C07800
0F001E00
1C000700
38000380
303F8180
60FFC1C0
61E060C0
E18030E0
C3800060
C3000060
C3000060
C3000060
C3000060
C3803060
E18060E0
61E0E0C0
70FFC1C0
303F0180
38000380
1C000700
0F001E00
07C07C00
01FFF000
003F8000
ENDCHAR
STARTCHAR ordfeminine
ENCODING 170
SWIDTH 370 0
DWIDTH 13 0
BBX 11 17 1 9
BITMAP
1F80
7FC0
F1E0
E0E0
00E0
1FE0
7FE0
F0E0
E0E0
E0E0
E1E0
7FE0
3EE0
0000
0000
7FE0
7FE0
ENDCHAR
STARTCHAR guillemotleft
ENCODING 171
SWIDTH 556 0
DWIDTH 20 0
BBX 15 16 2 1
BITMAP
070E
0E1C
0C18
1C38
3870
3870
70E0
E1C0
E1C0
70E0
3870
3870
1C38
0C18
0E1C
070E
ENDCHAR
STARTCHAR logicalnot
ENCODING 172
SWIDTH 583 0
DWIDTH 21 0
BBX 16 11 2 7
BITMAP
FFFF
FFFF
FFFF
0007
0007
0007
0007
0007
0007
0007
0007
ENDCHAR
STARTCHAR hyphen.dup2
ENCODING 173
SWIDTH 333 0
DWIDTH 12 0
BBX 10 3 1 8
BITMAP
FFC0
FFC0
FFC0
ENDCHAR
STARTCHAR registered
ENCODING 174
SWIDTH 736 0
DWIDTH 27 0
BBX 27 26 0 0
BITMAP
003F8000
01FFF000
03C07800
0F001E00
1C000700
38000380
30FF8180
60FFC1C0
60C0E0C0
E0C060E0
C0C06060
C0C0E060
C0FFC060
C0FF0060
C0C38060
C0C0C060
E0C0E0E0
60C060C0
70C061C0
30C03180
38000380
1C000700
0F001E00
07C07C00
01FFF000
003F8000
ENDCHAR
STARTCHAR macron
ENCODING 175
SWIDTH 500 0
DWIDTH 18 0
BBX 18 2 0 28
BITMAP
FFFFC0
FFFFC0
ENDCHAR
STARTCHAR degree
ENCODING 176
SWIDTH 399 0
DWIDTH 14 0
BBX 10 10 2 16
BITMAP
1E00
7F80
6180
C0C0
C0C0
C0C0
C0C0
6180
7F80
1E00
ENDCHAR
STARTCHAR plusminus
ENCODING 177
SWIDTH 583 0
DWIDTH 21 0
BBX 17 22 2 0
BITMAP
01C000
01C000
01C000
01C000
01C000
01C000
01C000
FFFF80
FFFF80
FFFF80
01C000
01C000
01C000
01C000
01C000
01C000
01C000
000000
000000
FFFF80
FFFF80
FFFF80
ENDCHAR
STARTCHAR uni00B2
ENCODING 178
SWIDTH 333 0
DWIDTH 12 0
BBX 11 13 0 13
BITMAP
1F80
7FC0
F1E0
E0E0
00E0
01E0
03C0
0780
1F00
3C00
7800
FFE0
FFE0
ENDCHAR
STARTCHAR uni00B3
ENCODING 179
SWIDTH 333 0
DWIDTH 12 0
BBX 11 13 1 13
BITMAP
3F00
7F80
F1C0
E1C0
03C0
0F80
0FC0
01E0
00E0
E0E0
F1E0
7FC0
1F00
ENDCHAR
STARTCHAR acute
ENCODING 180
SWIDTH 333 0
DWIDTH 12 0
BBX 6 5 4 21
BITMAP
3C
78
70
60
E0
ENDCHAR
STARTCHAR mu
ENCODING 181
SWIDTH 556 0
DWIDTH 20 0
BBX 17 26 2 -7
BITMAP
E00E00
E00E00
E00E00
E00E00
E00E00
E00E00
E00E00
E00E00
E00E00
E00E00
E00E00
E00E00
E00E00
E00E00
E01E00
F87E00
FFFF80
FFEF80
EF8780
E00000
E00000
E00000
E00000
E00000
E00000
E00000
ENDCHAR
STARTCHAR paragraph
ENCODING 182
SWIDTH 537 0
DWIDTH 19 0
BBX 19 33 0 -7
BITMAP
07FFE0
1FFFE0
3FFFE0
7F8700
FF8700
FF8700
FF8700
FF8700
FF8700
FF8700
FF8700
7F8700
7F8700
3F8700
0F8700
038700
038700
038700
038700
038700
038700
038700
038700
038700
038700
038700
038700
038700
038700
038700
038700
038700
038700
ENDCHAR
STARTCHAR periodcentered
ENCODING 183
SWIDTH 277 0
DWIDTH 10 0
BBX 3 4 3 10
BITMAP
E0
E0
E0
E0
ENDCHAR
STARTCHAR cedilla
ENCODING 184
SWIDTH 333 0
DWIDTH 12 0
BBX 7 7 2 -7
BITMAP
30
3C
0E
0E
0E
FC
F8
ENDCHAR
STARTCHAR uni00B9
ENCODING 185
SWIDTH 333 0
DWIDTH 12 0
BBX 6 13 2 13
BITMAP
0C
1C
3C
FC
FC
1C
1C
1C
1C
1C
1C
1C
1C
ENDCHAR
STARTCHAR ordmasculine
ENCODING 186
SWIDTH 365 0
DWIDTH 13 0
BBX 12 17 1 9
BITMAP
1F80
3FC0
70E0
F0E0
E070
E070
E070
E070
E070
F0E0
70E0
3FC0
1F80
0000
0000
7FE0
7FE0
ENDCHAR
STARTCHAR guillemotright
ENCODING 187
SWIDTH 556 0
DWIDTH 20 0
BBX 15 16 2 1
BITMAP
E1C0
70E0
3060
3870
1C38
1C38
0E1C
070E
070E
0E1C
1C38
1C38
3870
3060
70E0
E1C0
ENDCHAR
STARTCHAR onequarter
ENCODING 188
SWIDTH 833 0
DWIDTH 30 0
BBX 27 26 2 0
BITMAP
0C000600
0C000C00
1C001800
FC003800
FC003000
1C006000
1C00E000
1C00C000
1C018000
1C030000
1C070000
1C060000
1C0C0000
001C0380
00180780
00300F80
00601F80
00E01B80
00C03380
01807380
0300E380
0700FFE0
0600FFE0
0C000380
1C000380
38000380
ENDCHAR
STARTCHAR onehalf
ENCODING 189
SWIDTH 833 0
DWIDTH 30 0
BBX 27 26 2 0
BITMAP
0C000E00
0C001C00
1C001800
FC003000
FC006000
1C00E000
1C00C000
1C018000
1C038000
1C030000
1C060000
1C0C0000
1C1C0000
00183F00
00307FC0
0060E1C0
00E0E0E0
00C000E0
018001C0
038003C0
03000F80
06001E00
0C003C00
1C007000
1800FFE0
3000FFE0
ENDCHAR
STARTCHAR threequarters
ENCODING 190
SWIDTH 833 0
DWIDTH 30 0
BBX 28 26 1 0
BITMAP
1F000380
7FC00700
71C00600
E1C00C00
01C01800
0F803800
0FC03000
00E06000
00E0C000
E0E1C000
70E18000
7FC30000
1F870000
000601C0
000C03C0
001807C0
00380FC0
00300DC0
006019C0
00E039C0
00C071C0
01807FF0
03007FF0
070001C0
060001C0
0C0001C0
ENDCHAR
STARTCHAR questiondown
ENCODING 191
SWIDTH 556 0
DWIDTH 20 0
BBX 16 26 2 -7
BITMAP
01C0
01C0
01C0
01C0
0000
0000
0000
01C0
01C0
01C0
03C0
0380
0700
1E00
3C00
7800
7000
E000
E000
E007
E00F
F00E
7C3E
3FFC
1FF8
07E0
ENDCHAR
STARTCHAR Agrave
ENCODING 192
SWIDTH 666 0
DWIDTH 24 0
BBX 24 32 0 0
BITMAP
00F000
007000
003800
003800
001C00
000000
003C00
007C00
007E00
006E00
00E600
00C700
01C700
01C380
018380
038180
0381C0
0701C0
0700E0
0700E0
0E00E0
0FFFF0
0FFFF0
1FFFF8
1C0038
380038
38001C
38001C
70001E
70000E
70000E
E00007
ENDCHAR
STARTCHAR Aacute
ENCODING 193
SWIDTH 666 0
DWIDTH 24 0
BBX 24 32 0 0
BITMAP
000F00
001E00
001C00
003800
003000
000000
003C00
007C00
007E00
006E00
00E600
00C700
01C700
01C380
018380
038180
0381C0
0701C0
0700E0
0700E0
0E00E0
0FFFF0
0FFFF0
1FFFF8
1C0038
380038
38001C
38001C
70001E
70000E
70000E
E00007
ENDCHAR
STARTCHAR Acircumflex
ENCODING 194
SWIDTH 666 0
DWIDTH 24 0
BBX 24 32 0 0
BITMAP
003C00
007E00
007F00
00E780
01E3C0
000000
003C00
007C00
007E00
006E00
00E600
00C700
01C700
01C380
018380
038180
0381C0
0701C0
0700E0
0700E0
0E00E0
0FFFF0
0FFFF0
1FFFF8
1C0038
380038
38001C
38001C
70001E
70000E
70000E
E00007
ENDCHAR
STARTCHAR Atilde
ENCODING 195
SWIDTH 666 0
DWIDTH 24 0
BBX 24 32 0 0
BITMAP
00F0C0
03FFC0
03FF80
031F00
000000
000000
003C00
007C00
007E00
006E00
00E600
00C700
01C700
01C380
018380
038180
0381C0
0701C0
0700E0
0700E0
0E00E0
0FFFF0
0FFFF0
1FFFF8
1C0038
380038
38001C
38001C
70001E
70000E
70000E
E00007
ENDCHAR
STARTCHAR Adieresis
ENCODING 196
SWIDTH 666 0
DWIDTH 24 0
BBX 24 32 0 0
BITMAP
01C380
01C380
01C380
01C380
000000
000000
003C00
007C00
007E00
006E00
00E600
00C700
01C700
01C380
018380
038180
0381C0
0701C0
0700E0
0700E0
0E00E0
0FFFF0
0FFFF0
1FFFF8
1C0038
380038
38001C
38001C
70001E
70000E
70000E
E00007
ENDCHAR
STARTCHAR Aring
ENCODING 197
SWIDTH 666 0
DWIDTH 24 0
BBX 24 32 0 0
BITMAP
003800
004400
004200
004200
004400
003800
003C00
007C00
007E00
006E00
00E600
00C700
01C700
01C380
018380
038180
0381C0
0701C0
0700E0
0700E0
0E00E0
0FFFF0
0FFFF0
1FFFF8
1C0038
380038
38001C
38001C
70001E
70000E
70000E
E00007
ENDCHAR
STARTCHAR AE
ENCODING 198
SWIDTH 1000 0
DWIDTH 36 0
BBX 34 26 0 0
BITMAP
0001FFFF80
0003FFFF80
0003FFFF80
0007700000
0006700000
000E700000
001C700000
001C700000
0038700000
0038700000
0070700000
00607FFF00
00E07FFF00
01C07FFF00
01C0700000
03FFF00000
03FFF00000
07FFF00000
0F00700000
0E00700000
1C00700000
1C00700000
3800700000
78007FFFC0
70007FFFC0
F0007FFFC0
ENDCHAR
STARTCHAR Ccedilla
ENCODING 199
SWIDTH 722 0
DWIDTH 26 0
BBX 22 33 2 -7
BITMAP
00FE00
03FFC0
0FFFE0
1F81F0
3E0078
380038
78001C
70001C
700000
E00000
E00000
E00000
E00000
E00000
E00000
E00000
E00000
F00000
70001C
78001C
380038
3E0078
1F81F0
0FFFE0
07FFC0
00FF00
003000
003C00
000E00
000E00
000E00
00FC00
00F800
ENDCHAR
STARTCHAR Egrave
ENCODING 200
SWIDTH 666 0
DWIDTH 24 0
BBX 19 32 3 0
BITMAP
078000
03C000
01C000
00E000
006000
000000
FFFFC0
FFFFC0
FFFFC0
E00000
E00000
E00000
E00000
E00000
E00000
E00000
E00000
FFFF80
FFFF80
FFFF80
E00000
E00000
E00000
E00000
E00000
E00000
E00000
E00000
E00000
FFFFE0
FFFFE0
FFFFE0
ENDCHAR
STARTCHAR Eacute
ENCODING 201
SWIDTH 666 0
DWIDTH 24 0
BBX 19 32 3 0
BITMAP
007800
007000
00E000
00E000
01C000
000000
FFFFC0
FFFFC0
FFFFC0
E00000
E00000
E00000
E00000
E00000
E00000
E00000
E00000
FFFF80
FFFF80
FFFF80
E00000
E00000
E00000
E00000
E00000
E00000
E00000
E00000
E00000
FFFFE0
FFFFE0
FFFFE0
ENDCHAR
STARTCHAR Ecircumflex
ENCODING 202
SWIDTH 666 0
DWIDTH 24 0
BBX 19 32 3 0
BITMAP
00F000
01F800
03F800
039C00
0F1E00
000000
FFFFC0
FFFFC0
FFFFC0
E00000
E00000
E00000
E00000
E00000
E00000
E00000
E00000
FFFF80
FFFF80
FFFF80
E00000
E00000
E00000
E00000
E00000
E00000
E00000
E00000
E00000
FFFFE0
FFFFE0
FFFFE0
ENDCHAR
STARTCHAR Edieresis
ENCODING 203
SWIDTH 666 0
DWIDTH 24 0
BBX 19 32 3 0
BITMAP
0E1C00
0E1C00
0E1C00
0E1C00
000000
000000
FFFFC0
FFFFC0
FFFFC0
E00000
E00000
E00000
E00000
E00000
E00000
E00000
E00000
FFFF80
FFFF80
FFFF80
E00000
E00000
E00000
E00000
E00000
E00000
E00000
E00000
E00000
FFFFE0
FFFFE0
FFFFE0
ENDCHAR
STARTCHAR Igrave
ENCODING 204
SWIDTH 277 0
DWIDTH 9 0
BBX 6 32 0 0
BITMAP
F0
78
38
18
1C
00
1C
1C
1C
1C
1C
1C
1C
1C
1C
1C
1C
1C
1C
1C
1C
1C
1C
1C
1C
1C
1C
1C
1C
1C
1C
1C
ENDCHAR
STARTCHAR Iacute
ENCODING 205
SWIDTH 277 0
DWIDTH 9 0
BBX 6 32 3 0
BITMAP
3C
38
70
70
E0
00
E0
E0
E0
E0
E0
E0
E0
E0
E0
E0
E0
E0
E0
E0
E0
E0
E0
E0
E0
E0
E0
E0
E0
E0
E0
E0
ENDCHAR
STARTCHAR Icircumflex
ENCODING 206
SWIDTH 277 0
DWIDTH 9 0
BBX 11 32 -1 0
BITMAP
1F00
1F00
3B80
7BC0
F1E0
0000
0E00
0E00
0E00
0E00
0E00
0E00
0E00
0E00
0E00
0E00
0E00
0E00
0E00
0E00
0E00
0E00
0E00
0E00
0E00
0E00
0E00
0E00
0E00
0E00
0E00
0E00
ENDCHAR
STARTCHAR Idieresis
ENCODING 207
SWIDTH 277 0
DWIDTH 9 0
BBX 9 32 0 0
BITMAP
E380
E380
E380
E380
0000
0000
1C00
1C00
1C00
1C00
1C00
1C00
1C00
1C00
1C00
1C00
1C00
1C00
1C00
1C00
1C00
1C00
1C00
1C00
1C00
1C00
1C00
1C00
1C00
1C00
1C00
1C00
ENDCHAR
STARTCHAR Eth
ENCODING 208
SWIDTH 722 0
DWIDTH 26 0
BBX 24 26 0 0
BITMAP
1FFF00
1FFFC0
1FFFF0
1C01F8
1C003C
1C001C
1C001E
1C000E
1C000F
1C0007
1C0007
FFF807
FFF807
FFF807
1C0007
1C0007
1C0007
1C000E
1C000E
1C001E
1C001C
1C003C
1C01F8
1FFFF0
1FFFC0
1FFF00
ENDCHAR
STARTCHAR Ntilde
ENCODING 209
SWIDTH 722 0
DWIDTH 26 0
BBX 20 32 3 0
BITMAP
03E300
07FF00
07FF00
0E3E00
000000
000000
F00070
F00070
F80070
FC0070
FC0070
FE0070
EE0070
E70070
E78070
E38070
E1C070
E1E070
E0E070
E07070
E07870
E03870
E01C70
E01E70
E00E70
E00770
E007F0
E003F0
E003F0
E001F0
E000F0
E000F0
ENDCHAR
STARTCHAR Ograve
ENCODING 210
SWIDTH 777 0
DWIDTH 28 0
BBX 24 32 2 0
BITMAP
00F000
007800
003800
001C00
000C00
000000
00FF00
03FFC0
07FFE0
1F81F8
1E0078
3C003C
78001E
70000E
70000E
E00007
E00007
E00007
E00007
E00007
E00007
E00007
E00007
70000E
70000E
78001E
3C003C
1E0078
1F81F8
0FFFE0
03FFC0
00FF00
ENDCHAR
STARTCHAR Oacute
ENCODING 211
SWIDTH 777 0
DWIDTH 28 0
BBX 24 32 2 0
BITMAP
000F00
000E00
001C00
001C00
003800
000000
00FF00
03FFC0
07FFE0
1F81F8
1E0078
3C003C
78001E
70000E
70000E
E00007
E00007
E00007
E00007
E00007
E00007
E00007
E00007
70000E
70000E
78001E
3C003C
1E0078
1F81F8
0FFFE0
03FFC0
00FF00
ENDCHAR
STARTCHAR Ocircumflex
ENCODING 212
SWIDTH 777 0
DWIDTH 28 0
BBX 24 32 2 0
BITMAP
003E00
003E00
007700
00F780
01E3C0
000000
00FF00
03FFC0
07FFE0
1F81F8
1E0078
3C003C
78001E
70000E
70000E
E00007
E00007
E00007
E00007
E00007
E00007
E00007
E00007
70000E
70000E
78001E
3C003C
1E0078
1F81F8
0FFFE0
03FFC0
00FF00
ENDCHAR
STARTCHAR Otilde
ENCODING 213
SWIDTH 777 0
DWIDTH 28 0
BBX 24 32 2 0
BITMAP
00F8C0
01FFC0
03FF80
030F00
000000
000000
00FF00
03FFC0
07FFE0
1F81F8
1E0078
3C003C
78001E
70000E
70000E
E00007
E00007
E00007
E00007
E00007
E00007
E00007
E00007
70000E
70000E
78001E
3C003C
1E0078
1F81F8
0FFFE0
03FFC0
00FF00
ENDCHAR
STARTCHAR Odieresis
ENCODING 214
SWIDTH 777 0
DWIDTH 28 0
BBX 24 32 2 0
BITMAP
01C380
01C380
01C380
01C380
000000
000000
00FF00
03FFC0
07FFE0
1F81F8
1E0078
3C003C
78001E
70000E
70000E
E00007
E00007
E00007
E00007
E00007
E00007
E00007
E00007
70000E
70000E
78001E
3C003C
1E0078
1F81F8
0FFFE0
03FFC0
00FF00
ENDCHAR
STARTCHAR multiply
ENCODING 215
SWIDTH 583 0
DWIDTH 21 0
BBX 15 15 3 5
BITMAP
600C
F01E
F83E
7C7C
3EF8
1FF0
0FE0
07C0
0FE0
1FF0
3EF8
7C7C
F83E
F01E
600C
ENDCHAR
STARTCHAR Oslash
ENCODING 216
SWIDTH 777 0
DWIDTH 28 0
BBX 24 26 2 0
BITMAP
00FF03
03FFC7
07FFEE
1F81FC
1E0078
3C003C
78007E
7000CE
70018E
E00307
E00707
E00E07
E01C07
E03807
E07007
E0E007
E0C007
71800E
73000E
7E001E
3C003C
1E0078
3F81F8
77FFE0
E3FFC0
C0FF00
ENDCHAR
STARTCHAR Ugrave
ENCODING 217
SWIDTH 722 0
DWIDTH 26 0
BBX 20 32 3 0
BITMAP
03C000
01E000
00E000
006000
007000
000000
E00070
E00070
E00070
E00070
E00070
E00070
E00070
E00070
E00070
E00070
E00070
E00070
E00070
E00070
E00070
E00070
E00070
E00070
E00070
F000F0
7000E0
7801E0
3E07C0
3FFFC0
0FFF00
03FC00
ENDCHAR
STARTCHAR Uacute
ENCODING 218
SWIDTH 722 0
DWIDTH 26 0
BBX 20 32 3 0
BITMAP
003C00
003800
007000
007000
00E000
000000
E00070
E00070
E00070
E00070
E00070
E00070
E00070
E00070
E00070
E00070
E00070
E00070
E00070
E00070
E00070
E00070
E00070
E00070
E00070
F000F0
7000E0
7801E0
3E07C0
3FFFC0
0FFF00
03FC00
ENDCHAR
STARTCHAR Ucircumflex
ENCODING 219
SWIDTH 722 0
DWIDTH 26 0
BBX 20 32 3 0
BITMAP
00F800
00F800
01DC00
03DE00
078F00
000000
E00070
E00070
E00070
E00070
E00070
E00070
E00070
E00070
E00070
E00070
E00070
E00070
E00070
E00070
E00070
E00070
E00070
E00070
E00070
F000F0
7000E0
7801E0
3E07C0
3FFFC0
0FFF00
03FC00
ENDCHAR
STARTCHAR Udieresis
ENCODING 220
SWIDTH 722 0
DWIDTH 26 0
BBX 20 32 3 0
BITMAP
070E00
070E00
070E00
070E00
000000
000000
E00070
E00070
E00070
E00070
E00070
E00070
E00070
E00070
E00070
E00070
E00070
E00070
E00070
E00070
E00070
E00070
E00070
E00070
E00070
F000F0
7000E0
7801E0
3E07C0
3FFFC0
0FFF00
03FC00
ENDCHAR
STARTCHAR Yacute
ENCODING 221
SWIDTH 666 0
DWIDTH 23 0
BBX 23 32 0 0
BITMAP
000F00
000E00
001C00
001C00
003800
000000
F0001E
70001C
380038
3C0078
1C0070
0E00E0
0F01E0
0701C0
038380
038380
01C700
00EE00
00EE00
007C00
003800
003800
003800
003800
003800
003800
003800
003800
003800
003800
003800
003800
ENDCHAR
STARTCHAR Thorn
ENCODING 222
SWIDTH 666 0
DWIDTH 24 0
BBX 19 26 3 0
BITMAP
E00000
E00000
E00000
E00000
E00000
FFFC00
FFFF00
FFFF80
E003C0
E001C0
E001E0
E000E0
E000E0
E000E0
E000E0
E001E0
E001C0
E007C0
FFFF80
FFFF00
FFF800
E00000
E00000
E00000
E00000
E00000
ENDCHAR
STARTCHAR germandbls
ENCODING 223
SWIDTH 610 0
DWIDTH 22 0
BBX 18 26 2 0
BITMAP
0FE000
1FF000
3FF800
783C00
701C00
F01C00
E01C00
E03800
E03800
E07000
E06000
E0E000
E0E000
E0F000
E07800
E03E00
E01F00
E00780
E003C0
E001C0
E001C0
E381C0
E3C3C0
E1FF80
E0FF00
E07E00
ENDCHAR
STARTCHAR agrave
ENCODING 224
SWIDTH 556 0
DWIDTH 20 0
BBX 16 26 1 0
BITMAP
0780
03C0
01C0
00C0
00E0
0000
0000
07F0
1FFC
3FFE
3C0F
7007
7007
0007
03FF
1FFF
3FFF
7C07
F007
E007
E007
E00F
F83F
7FFF
3FF7
1FC7
ENDCHAR
STARTCHAR aacute
ENCODING 225
SWIDTH 556 0
DWIDTH 20 0
BBX 16 26 1 0
BITMAP
0078
0070
00E0
00E0
01C0
0000
0000
07F0
1FFC
3FFE
3C0F
7007
7007
0007
03FF
1FFF
3FFF
7C07
F007
E007
E007
E00F
F83F
7FFF
3FF7
1FC7
ENDCHAR
STARTCHAR acircumflex
ENCODING 226
SWIDTH 556 0
DWIDTH 20 0
BBX 16 26 1 0
BITMAP
03E0
03E0
0770
0F38
1E3C
0000
0000
07F0
1FFC
3FFE
3C0F
7007
7007
0007
03FF
1FFF
3FFF
7C07
F007
E007
E007
E00F
F83F
7FFF
3FF7
1FC7
ENDCHAR
STARTCHAR atilde
ENCODING 227
SWIDTH 556 0
DWIDTH 20 0
BBX 16 26 1 0
BITMAP
07C6
0FFE
1FFC
1878
0000
0000
0000
07F0
1FFC
3FFE
3C0F
7007
7007
0007
03FF
1FFF
3FFF
7C07
F007
E007
E007
E00F
F83F
7FFF
3FF7
1FC7
ENDCHAR
STARTCHAR adieresis
ENCODING 228
SWIDTH 556 0
DWIDTH 20 0
BBX 16 26 1 0
BITMAP
0E1C
0E1C
0E1C
0E1C
0000
0000
0000
07F0
1FFC
3FFE
3C0F
7007
7007
0007
03FF
1FFF
3FFF
7C07
F007
E007
E007
E00F
F83F
7FFF
3FF7
1FC7
ENDCHAR
STARTCHAR aring
ENCODING 229
SWIDTH 556 0
DWIDTH 20 0
BBX 16 27 1 0
BITMAP
01E0
0330
0210
0210
0330
01E0
0000
0000
07F0
1FFC
3FFE
3C0F
7007
7007
0007
03FF
1FFF
3FFF
7C07
F007
E007
E007
E00F
F83F
7FFF
3FF7
1FC7
ENDCHAR
STARTCHAR ae
ENCODING 230
SWIDTH 889 0
DWIDTH 32 0
BBX 29 19 1 0
BITMAP
07F07E00
1FF9FF80
3FFFFFC0
3C1FC1E0
700F80F0
700F0070
000E0038
03FE0038
1FFFFFF8
3FFFFFF8
7C0FFFF8
F00E0000
E00E0000
E01F0038
E01F8078
F07FC0F0
7FFBFFE0
3FF1FFC0
1FC07F00
ENDCHAR
STARTCHAR ccedilla
ENCODING 231
SWIDTH 500 0
DWIDTH 18 0
BBX 16 26 1 -7
BITMAP
03F0
1FFC
3FFE
3C1E
780F
7007
E000
E000
E000
E000
E000
E000
E000
7007
780F
7C1E
3FFE
1FFC
07F0
0180
01E0
0070
0070
0070
07E0
07C0
ENDCHAR
STARTCHAR egrave
ENCODING 232
SWIDTH 556 0
DWIDTH 20 0
BBX 17 26 1 0
BITMAP
0F0000
078000
038000
018000
01C000
000000
000000
03F000
1FF800
3FFE00
3C1E00
780F00
700700
E00380
E00380
FFFF80
FFFF80
FFFF80
E00000
E00000
700380
780780
3C0F00
3FFE00
0FFC00
03F000
ENDCHAR
STARTCHAR eacute
ENCODING 233
SWIDTH 556 0
DWIDTH 20 0
BBX 17 26 1 0
BITMAP
007800
007000
00E000
00E000
01C000
000000
000000
03F000
1FF800
3FFE00
3C1E00
780F00
700700
E00380
E00380
FFFF80
FFFF80
FFFF80
E00000
E00000
700380
780780
3C0F00
3FFE00
0FFC00
03F000
ENDCHAR
STARTCHAR ecircumflex
ENCODING 234
SWIDTH 556 0
DWIDTH 20 0
BBX 17 26 1 0
BITMAP
03E000
03E000
077000
0F3800
1E3C00
000000
000000
03F000
1FF800
3FFE00
3C1E00
780F00
700700
E00380
E00380
FFFF80
FFFF80
FFFF80
E00000
E00000
700380
780780
3C0F00
3FFE00
0FFC00
03F000
ENDCHAR
STARTCHAR edieresis
ENCODING 235
SWIDTH 556 0
DWIDTH 20 0
BBX 17 26 1 0
BITMAP
0E1C00
0E1C00
0E1C00
0E1C00
000000
000000
000000
03F000
1FF800
3FFE00
3C1E00
780F00
700700
E00380
E00380
FFFF80
FFFF80
FFFF80
E00000
E00000
700380
780780
3C0F00
3FFE00
0FFC00
03F000
ENDCHAR
STARTCHAR igrave
ENCODING 236
SWIDTH 228 0
DWIDTH 8 0
BBX 6 26 -1 0
BITMAP
F0
70
38
18
1C
00
00
1C
1C
1C
1C
1C
1C
1C
1C
1C
1C
1C
1C
1C
1C
1C
1C
1C
1C
1C
ENDCHAR
STARTCHAR iacute
ENCODING 237
SWIDTH 228 0
DWIDTH 8 0
BBX 6 26 2 0
BITMAP
3C
78
70
60
E0
00
00
E0
E0
E0
E0
E0
E0
E0
E0
E0
E0
E0
E0
E0
E0
E0
E0
E0
E0
E0
ENDCHAR
STARTCHAR icircumflex
ENCODING 238
SWIDTH 228 0
DWIDTH 8 0
BBX 11 26 -2 0
BITMAP
0F00
1F00
3B80
79C0
F1E0
0000
0000
0E00
0E00
0E00
0E00
0E00
0E00
0E00
0E00
0E00
0E00
0E00
0E00
0E00
0E00
0E00
0E00
0E00
0E00
0E00
ENDCHAR
STARTCHAR idieresis
ENCODING 239
SWIDTH 228 0
DWIDTH 8 0
BBX 10 26 -1 0
BITMAP
E1C0
E1C0
E1C0
E1C0
0000
0000
0000
1C00
1C00
1C00
1C00
1C00
1C00
1C00
1C00
1C00
1C00
1C00
1C00
1C00
1C00
1C00
1C00
1C00
1C00
1C00
ENDCHAR
STARTCHAR eth
ENCODING 240
SWIDTH 556 0
DWIDTH 20 0
BBX 17 26 1 0
BITMAP
0F0800
03BC00
01F000
03E000
0F7000
043800
001C00
07FC00
1FFE00
3FFE00
3C1F00
780F00
700700
E00380
E00380
E00380
E00380
E00380
E00380
E00380
700700
780F00
3C1E00
3FFE00
1FFC00
07F000
ENDCHAR
STARTCHAR ntilde
ENCODING 241
SWIDTH 556 0
DWIDTH 20 0
BBX 15 26 2 0
BITMAP
0F8C
1FFC
3FF8
30F0
0000
0000
0000
E3F0
EFF8
FFFC
FC3C
F01E
E00E
E00E
E00E
E00E
E00E
E00E
E00E
E00E
E00E
E00E
E00E
E00E
E00E
E00E
ENDCHAR
STARTCHAR ograve
ENCODING 242
SWIDTH 556 0
DWIDTH 20 0
BBX 17 26 1 0
BITMAP
0F0000
078000
038000
018000
01C000
000000
000000
07F000
1FFC00
3FFE00
3C1E00
780F00
700700
E00380
E00380
E00380
E00380
E00380
E00380
E00380
700700
780F00
3C1E00
3FFE00
1FFC00
07F000
ENDCHAR
STARTCHAR oacute
ENCODING 243
SWIDTH 556 0
DWIDTH 20 0
BBX 17 26 1 0
BITMAP
007800
007000
00E000
00E000
01C000
000000
000000
07F000
1FFC00
3FFE00
3C1E00
780F00
700700
E00380
E00380
E00380
E00380
E00380
E00380
E00380
700700
780F00
3C1E00
3FFE00
1FFC00
07F000
ENDCHAR
STARTCHAR ocircumflex
ENCODING 244
SWIDTH 556 0
DWIDTH 20 0
BBX 17 26 1 0
BITMAP
03E000
03E000
077000
0F3800
1E3C00
000000
000000
07F000
1FFC00
3FFE00
3C1E00
780F00
700700
E00380
E00380
E00380
E00380
E00380
E00380
E00380
700700
780F00
3C1E00
3FFE00
1FFC00
07F000
ENDCHAR
STARTCHAR otilde
ENCODING 245
SWIDTH 556 0
DWIDTH 20 0
BBX 17 26 1 0
BITMAP
07C600
0FFE00
1FFC00
187800
000000
000000
000000
07F000
1FFC00
3FFE00
3C1E00
780F00
700700
E00380
E00380
E00380
E00380
E00380
E00380
E00380
700700
780F00
3C1E00
3FFE00
1FFC00
07F000
ENDCHAR
STARTCHAR odieresis
ENCODING 246
SWIDTH 556 0
DWIDTH 20 0
BBX 17 26 1 0
BITMAP
0E1C00
0E1C00
0E1C00
0E1C00
000000
000000
000000
07F000
1FFC00
3FFE00
3C1E00
780F00
700700
E00380
E00380
E00380
E00380
E00380
E00380
E00380
700700
780F00
3C1E00
3FFE00
1FFC00
07F000
ENDCHAR
STARTCHAR divide
ENCODING 247
SWIDTH 583 0
DWIDTH 21 0
BBX 17 15 2 5
BITMAP
01C000
01C000
01C000
01C000
000000
000000
FFFF80
FFFF80
FFFF80
000000
000000
01C000
01C000
01C000
01C000
ENDCHAR
STARTCHAR oslash
ENCODING 248
SWIDTH 556 0
DWIDTH 20 0
BBX 17 21 1 -1
BITMAP
000100
07F380
1FFF00
3FFE00
3C1E00
780F00
701F00
E03380
E07380
E0E380
E1C380
E38380
E70380
EE0380
7C0700
780F00
7C1E00
3FFE00
7FFC00
E7F000
400000
ENDCHAR
STARTCHAR ugrave
ENCODING 249
SWIDTH 556 0
DWIDTH 20 0
BBX 15 26 2 0
BITMAP
1E00
0F00
0700
0300
0380
0000
0000
E00E
E00E
E00E
E00E
E00E
E00E
E00E
E00E
E00E
E00E
E00E
E00E
E00E
E00E
F01E
F07E
7FFE
3FEE
1F8E
ENDCHAR
STARTCHAR uacute
ENCODING 250
SWIDTH 556 0
DWIDTH 20 0
BBX 15 26 2 0
BITMAP
00F0
00E0
01C0
01C0
0380
0000
0000
E00E
E00E
E00E
E00E
E00E
E00E
E00E
E00E
E00E
E00E
E00E
E00E
E00E
E00E
F01E
F07E
7FFE
3FEE
1F8E
ENDCHAR
STARTCHAR ucircumflex
ENCODING 251
SWIDTH 556 0
DWIDTH 20 0
BBX 15 26 2 0
BITMAP
07C0
07C0
0EE0
1E70
3C78
0000
0000
E00E
E00E
E00E
E00E
E00E
E00E
E00E
E00E
E00E
E00E
E00E
E00E
E00E
E00E
F01E
F07E
7FFE
3FEE
1F8E
ENDCHAR
STARTCHAR udieresis
ENCODING 252
SWIDTH 556 0
DWIDTH 20 0
BBX 15 26 2 0
BITMAP
1C38
1C38
1C38
1C38
0000
0000
0000
E00E
E00E
E00E
E00E
E00E
E00E
E00E
E00E
E00E
E00E
E00E
E00E
E00E
E00E
F01E
F07E
7FFE
3FEE
1F8E
ENDCHAR
STARTCHAR yacute
ENCODING 253
SWIDTH 500 0
DWIDTH 18 0
BBX 17 33 0 -7
BITMAP
007800
007000
00E000
00E000
01C000
000000
000000
E00380
700700
700700
700700
380E00
380E00
380E00
1C1C00
1C1C00
0C1800
0E3800
0E3800
063000
077000
077000
036000
03E000
03E000
01C000
01C000
038000
038000
0F0000
7F0000
7E0000
7C0000
ENDCHAR
STARTCHAR thorn
ENCODING 254
SWIDTH 556 0
DWIDTH 20 0
BBX 16 33 2 -7
BITMAP
E000
E000
E000
E000
E000
E000
E000
E3E0
EFF8
FFFC
FC3E
F00E
E00E
E007
E007
E007
E007
E007
E007
E007
E00E
F00E
F83C
FFFC
FFF8
E7E0
E000
E000
E000
E000
E000
E000
E000
ENDCHAR
STARTCHAR ydieresis
ENCODING 255
SWIDTH 500 0
DWIDTH 18 0
BBX 17 33 0 -7
BITMAP
0E1C00
0E1C00
0E1C00
0E1C00
000000
000000
000000
E00380
700700
700700
700700
380E00
380E00
380E00
1C1C00
1C1C00
0C1800
0E3800
0E3800
063000
077000
077000
036000
03E000
03E000
01C000
01C000
038000
038000
0F0000
7F0000
7E0000
7C0000
ENDCHAR
STARTCHAR Amacron
ENCODING 256
SWIDTH 666 0
DWIDTH 24 0
BBX 24 32 0 0
BITMAP
03FF80
03FF80
03FF80
000000
000000
000000
003C00
007C00
007E00
006E00
00E600
00C700
01C700
01C380
018380
038180
0381C0
0701C0
0700E0
0700E0
0E00E0
0FFFF0
0FFFF0
1FFFF8
1C0038
380038
38001C
38001C
70001E
70000E
70000E
E00007
ENDCHAR
STARTCHAR amacron
ENCODING 257
SWIDTH 556 0
DWIDTH 20 0
BBX 16 25 1 0
BITMAP
1FFC
1FFC
1FFC
0000
0000
0000
07F0
1FFC
3FFE
3C0F
7007
7007
0007
03FF
1FFF
3FFF
7C07
F007
E007
E007
E00F
F83F
7FFF
3FF7
1FC7
ENDCHAR
STARTCHAR Abreve
ENCODING 258
SWIDTH 666 0
DWIDTH 24 0
BBX 24 32 0 0
BITMAP
018180
018380
00C300
00FF00
003C00
000000
003C00
007C00
007E00
006E00
00E600
00C700
01C700
01C380
018380
038180
0381C0
0701C0
0700E0
0700E0
0E00E0
0FFFF0
0FFFF0
1FFFF8
1C0038
380038
38001C
38001C
70001E
70000E
70000E
E00007
ENDCHAR
STARTCHAR abreve
ENCODING 259
SWIDTH 556 0
DWIDTH 20 0
BBX 16 26 1 0
BITMAP
0C0C
0C1C
0618
07F8
01E0
0000
0000
07F0
1FFC
3FFE
3C0F
7007
7007
0007
03FF
1FFF
3FFF
7C07
F007
E007
E007
E00F
F83F
7FFF
3FF7
1FC7
ENDCHAR
STARTCHAR Aogonek
ENCODING 260
SWIDTH 666 0
DWIDTH 24 0
BBX 24 33 0 -7
BITMAP
003C00
007C00
007E00
006E00
00E600
00C700
01C700
01C380
018380
038180
0381C0
0701C0
0700E0
0700E0
0E00E0
0FFFF0
0FFFF0
1FFFF8
1C0038
380038
38001C
38001C
70001E
70000E
70000E
E00007
00000C
00001C
000038
000038
00003F
00003F
00000F
ENDCHAR
STARTCHAR aogonek
ENCODING 261
SWIDTH 556 0
DWIDTH 20 0
BBX 17 26 1 -7
BITMAP
07F000
1FFC00
3FFE00
3C0F00
700700
700700
000700
03FF00
1FFF00
3FFF00
7C0700
F00700
E00700
E00700
E00F00
F83F00
7FFF00
3FF700
1FC700
000600
000C00
001C00
001C00
001F80
001F80
000F80
ENDCHAR
STARTCHAR Cacute
ENCODING 262
SWIDTH 722 0
DWIDTH 26 0
BBX 22 32 2 0
BITMAP
000F00
001E00
001C00
003800
003800
000000
00FE00
03FFC0
0FFFE0
1F81F0
3E0078
380038
78001C
70001C
700000
E00000
E00000
E00000
E00000
E00000
E00000
E00000
E00000
70001C
70001C
78003C
380038
3E0078
1F81F0
0FFFE0
03FFC0
00FE00
ENDCHAR
STARTCHAR cacute
ENCODING 263
SWIDTH 500 0
DWIDTH 18 0
BBX 16 26 1 0
BITMAP
00F8
00E0
00E0
01C0
0180
0000
0000
03F0
1FFC
3FFE
3C1E
780F
7007
E000
E000
E000
E000
E000
E000
E000
7007
780F
3C1E
3FFE
1FFC
07F0
ENDCHAR
STARTCHAR Ccircumflex
ENCODING 264
SWIDTH 722 0
DWIDTH 26 0
BBX 22 32 2 0
BITMAP
003C00
007E00
007F00
00E700
01C3C0
000000
00FE00
03FFC0
0FFFE0
1F81F0
3E0078
380038
78001C
70001C
700000
E00000
E00000
E00000
E00000
E00000
E00000
E00000
E00000
70001C
70001C
78003C
380038
3E0078
1F81F0
0FFFE0
03FFC0
00FE00
ENDCHAR
STARTCHAR ccircumflex
ENCODING 265
SWIDTH 500 0
DWIDTH 18 0
BBX 16 26 1 0
BITMAP
03C0
07E0
0FF0
0E70
1C3C
0000
0000
03F0
1FFC
3FFE
3C1E
780F
7007
E000
E000
E000
E000
E000
E000
E000
7007
780F
3C1E
3FFE
1FFC
07F0
ENDCHAR
STARTCHAR Cdotaccent
ENCODING 266
SWIDTH 722 0
DWIDTH 26 0
BBX 22 32 2 0
BITMAP
001C00
001C00
001C00
001C00
000000
000000
00FE00
03FFC0
0FFFE0
1F81F0
3E0078
380038
78001C
70001C
700000
E00000
E00000
E00000
E00000
E00000
E00000
E00000
E00000
70001C
70001C
78003C
380038
3E0078
1F81F0
0FFFE0
03FFC0
00FE00
ENDCHAR
STARTCHAR cdotaccent
ENCODING 267
SWIDTH 500 0
DWIDTH 18 0
BBX 16 26 1 0
BITMAP
01C0
01C0
01C0
01C0
0000
0000
0000
03F0
1FFC
3FFE
3C1E
780F
7007
E000
E000
E000
E000
E000
E000
E000
7007
780F
3C1E
3FFE
1FFC
07F0
ENDCHAR
STARTCHAR Ccaron
ENCODING 268
SWIDTH 722 0
DWIDTH 26 0
BBX 22 32 2 0
BITMAP
01C3C0
00E700
00FF00
007E00
003C00
000000
00FE00
03FFC0
0FFFE0
1F81F0
3E0078
380038
78001C
70001C
700000
E00000
E00000
E00000
E00000
E00000
E00000
E00000
E00000
70001C
70001C
78003C
380038
3E0078
1F81F0
0FFFE0
03FFC0
00FE00
ENDCHAR
STARTCHAR ccaron
ENCODING 269
SWIDTH 500 0
DWIDTH 18 0
BBX 16 26 1 0
BITMAP
1C3C
0E70
0FF0
07E0
03C0
0000
0000
03F0
1FFC
3FFE
3C1E
780F
7007
E000
E000
E000
E000
E000
E000
E000
7007
780F
3C1E
3FFE
1FFC
07F0
ENDCHAR
STARTCHAR Dcaron
ENCODING 270
SWIDTH 722 0
DWIDTH 26 0
BBX 21 32 3 0
BITMAP
1E3C00
0E7800
077000
03E000
03C000
000000
FFF800
FFFE00
FFFF80
E00FC0
E001E0
E000E0
E000F0
E00070
E00078
E00038
E00038
E00038
E00038
E00038
E00038
E00038
E00038
E00070
E00070
E000F0
E000E0
E001E0
E00FC0
FFFF80
FFFE00
FFF800
ENDCHAR
STARTCHAR dcaron
ENCODING 271
SWIDTH 634 0
DWIDTH 23 0
BBX 22 26 1 0
BITMAP
00071C
00071C
00071C
00071C
00070C
00070C
00070C
07E718
1FFF10
3FFF00
3C1F00
700F00
700700
E00700
E00700
E00700
E00700
E00700
E00700
E00700
F00700
700F00
7C3F00
3FFF00
1FF700
07C700
ENDCHAR
STARTCHAR Dcroat
ENCODING 272
SWIDTH 722 0
DWIDTH 26 0
BBX 24 26 0 0
BITMAP
1FFF00
1FFFC0
1FFFF0
1C01F8
1C003C
1C001C
1C001E
1C000E
1C000F
1C0007
1C0007
FFF807
FFF807
FFF807
1C0007
1C0007
1C0007
1C000E
1C000E
1C001E
1C001C
1C003C
1C01F8
1FFFF0
1FFFC0
1FFF00
ENDCHAR
STARTCHAR dcroat
ENCODING 273
SWIDTH 556 0
DWIDTH 20 0
BBX 18 26 1 0
BITMAP
000700
000700
007FC0
007FC0
007FC0
000700
000700
07E700
1FFF00
3FFF00
3C1F00
700F00
700700
E00700
E00700
E00700
E00700
E00700
E00700
E00700
F00700
700F00
7C3F00
3FFF00
1FF700
07C700
ENDCHAR
STARTCHAR Emacron
ENCODING 274
SWIDTH 666 0
DWIDTH 24 0
BBX 19 32 3 0
BITMAP
0FFE00
0FFE00
0FFE00
000000
000000
000000
FFFFC0
FFFFC0
FFFFC0
E00000
E00000
E00000
E00000
E00000
E00000
E00000
E00000
FFFF80
FFFF80
FFFF80
E00000
E00000
E00000
E00000
E00000
E00000
E00000
E00000
E00000
FFFFE0
FFFFE0
FFFFE0
ENDCHAR
STARTCHAR emacron
ENCODING 275
SWIDTH 556 0
DWIDTH 20 0
BBX 17 25 1 0
BITMAP
1FFC00
1FFC00
1FFC00
000000
000000
000000
03F000
1FF800
3FFE00
3C1E00
780F00
700700
E00380
E00380
FFFF80
FFFF80
FFFF80
E00000
E00000
700380
780780
3C0F00
3FFE00
0FFC00
03F000
ENDCHAR
STARTCHAR Ebreve
ENCODING 276
SWIDTH 666 0
DWIDTH 24 0
BBX 19 32 3 0
BITMAP
0C0C00
060C00
071C00
03F800
01F000
000000
FFFFC0
FFFFC0
FFFFC0
E00000
E00000
E00000
E00000
E00000
E00000
E00000
E00000
FFFF80
FFFF80
FFFF80
E00000
E00000
E00000
E00000
E00000
E00000
E00000
E00000
E00000
FFFFE0
FFFFE0
FFFFE0
ENDCHAR
STARTCHAR ebreve
ENCODING 277
SWIDTH 556 0
DWIDTH 20 0
BBX 17 26 1 0
BITMAP
0C0C00
0C0C00
061800
07F800
01E000
000000
000000
03F000
1FF800
3FFE00
3C1E00
780F00
700700
E00380
E00380
FFFF80
FFFF80
FFFF80
E00000
E00000
700380
780780
3C0F00
3FFE00
0FFC00
03F000
ENDCHAR
STARTCHAR Edotaccent
ENCODING 278
SWIDTH 666 0
DWIDTH 24 0
BBX 19 32 3 0
BITMAP
00E000
00E000
00E000
00E000
000000
000000
FFFFC0
FFFFC0
FFFFC0
E00000
E00000
E00000
E00000
E00000
E00000
E00000
E00000
FFFF80
FFFF80
FFFF80
E00000
E00000
E00000
E00000
E00000
E00000
E00000
E00000
E00000
FFFFE0
FFFFE0
FFFFE0
ENDCHAR
STARTCHAR edotaccent
ENCODING 279
SWIDTH 556 0
DWIDTH 20 0
BBX 17 26 1 0
BITMAP
01C000
01C000
01C000
01C000
000000
000000
000000
03F000
1FF800
3FFE00
3C1E00
780F00
700700
E00380
E00380
FFFF80
FFFF80
FFFF80
E00000
E00000
700380
780780
3C0F00
3FFE00
0FFC00
03F000
ENDCHAR
STARTCHAR Eogonek
ENCODING 280
SWIDTH 666 0
DWIDTH 24 0
BBX 19 33 3 -7
BITMAP
FFFFC0
FFFFC0
FFFFC0
E00000
E00000
E00000
E00000
E00000
E00000
E00000
E00000
FFFF80
FFFF80
FFFF80
E00000
E00000
E00000
E00000
E00000
E00000
E00000
E00000
E00000
FFFFE0
FFFFE0
FFFFE0
0001C0
000380
000700
000700
0007E0
0003E0
0001E0
ENDCHAR
STARTCHAR eogonek
ENCODING 281
SWIDTH 556 0
DWIDTH 20 0
BBX 17 26 1 -7
BITMAP
03F000
1FF800
3FFE00
3C1E00
780F00
700700
E00380
E00380
FFFF80
FFFF80
FFFF80
E00000
E00000
700380
780780
3C0F00
3FFE00
0FFE00
03F800
003000
007000
00E000
00E000
00E000
00FC00
003C00
ENDCHAR
STARTCHAR Ecaron
ENCODING 282
SWIDTH 666 0
DWIDTH 24 0
BBX 19 32 3 0
BITMAP
0F1E00
079C00
03B800
01F800
00F000
000000
FFFFC0
FFFFC0
FFFFC0
E00000
E00000
E00000
E00000
E00000
E00000
E00000
E00000
FFFF80
FFFF80
FFFF80
E00000
E00000
E00000
E00000
E00000
E00000
E00000
E00000
E00000
FFFFE0
FFFFE0
FFFFE0
ENDCHAR
STARTCHAR ecaron
ENCODING 283
SWIDTH 556 0
DWIDTH 20 0
BBX 17 26 1 0
BITMAP
1E3C00
0E7800
077000
03E000
03C000
000000
000000
03F000
1FF800
3FFE00
3C1E00
780F00
700700
E00380
E00380
FFFF80
FFFF80
FFFF80
E00000
E00000
700380
780780
3C0F00
3FFE00
0FFC00
03F000
ENDCHAR
STARTCHAR Gcircumflex
ENCODING 284
SWIDTH 777 0
DWIDTH 28 0
BBX 24 32 2 0
BITMAP
007800
00FC00
01DC00
03CE00
078F00
000000
007F80
03FFE0
07FFF8
0F80FC
1E001E
3C000E
780007
700007
700000
E00000
E00000
E00000
E00000
E003FF
E003FF
E003FF
E00007
700007
700007
780007
3C000F
1E001F
0F80FF
07FFFF
03FFE7
007F83
ENDCHAR
STARTCHAR gcircumflex
ENCODING 285
SWIDTH 556 0
DWIDTH 20 0
BBX 16 33 1 -7
BITMAP
03C0
07E0
0FF0
0E70
1C3C
0000
0000
07E7
1FFF
3FFF
3C1F
700F
7007
E007
E007
E007
E007
E007
E007
E007
F007
700F
7C3F
3FFF
1FF7
07C7
0007
7007
700E
781E
3FFC
1FF8
07F0
ENDCHAR
STARTCHAR Gbreve
ENCODING 286
SWIDTH 777 0
DWIDTH 28 0
BBX 24 32 2 0
BITMAP
018180
01C180
00E380
007F00
003C00
000000
007F80
03FFE0
07FFF8
0F80FC
1E001E
3C000E
780007
700007
700000
E00000
E00000
E00000
E00000
E003FF
E003FF
E003FF
E00007
700007
700007
780007
3C000F
1E001F
0F80FF
07FFFF
03FFE7
007F83
ENDCHAR
STARTCHAR gbreve
ENCODING 287
SWIDTH 556 0
DWIDTH 20 0
BBX 16 33 1 -7
BITMAP
0C0C
0C0C
0618
07F8
01E0
0000
0000
07E7
1FFF
3FFF
3C1F
700F
7007
E007
E007
E007
E007
E007
E007
E007
F007
700F
7C3F
3FFF
1FF7
07C7
0007
7007
700E
781E
3FFC
1FF8
07F0
ENDCHAR
STARTCHAR Gdotaccent
ENCODING 288
SWIDTH 777 0
DWIDTH 28 0
BBX 24 32 2 0
BITMAP
007000
007000
007000
007000
000000
000000
007F80
03FFE0
07FFF8
0F80FC
1E001E
3C000E
780007
700007
700000
E00000
E00000
E00000
E00000
E003FF
E003FF
E003FF
E00007
700007
700007
780007
3C000F
1E001F
0F80FF
07FFFF
03FFE7
007F83
ENDCHAR
STARTCHAR gdotaccent
ENCODING 289
SWIDTH 556 0
DWIDTH 20 0
BBX 16 33 1 -7
BITMAP
01C0
01C0
01C0
01C0
0000
0000
0000
07E7
1FFF
3FFF
3C1F
700F
7007
E007
E007
E007
E007
E007
E007
E007
F007
700F
7C3F
3FFF
1FF7
07C7
0007
7007
700E
781E
3FFC
1FF8
07F0
ENDCHAR
STARTCHAR uni0122
ENCODING 290
SWIDTH 777 0
DWIDTH 28 0
BBX 24 34 2 -8
BITMAP
007F80
03FFE0
07FFF8
0F80FC
1E001E
3C000E
780007
700007
700000
E00000
E00000
E00000
E00000
E003FF
E003FF
E003FF
E00007
700007
700007
780007
3C000F
1E001F
0F80FF
07FFFF
03FFE7
007F83
000000
000000
001C00
001C00
001C00
000400
000400
001800
ENDCHAR
STARTCHAR uni0123
ENCODING 291
SWIDTH 556 0
DWIDTH 20 0
BBX 16 37 1 -7
BITMAP
0180
0180
0300
0300
0300
0380
0380
0380
0380
0000
0000
07E7
1FFF
3FFF
3C1F
700F
7007
E007
E007
E007
E007
E007
E007
E007
F007
700F
7C3F
3FFF
1FF7
07C7
0007
7007
700E
781E
3FFC
1FF8
07F0
ENDCHAR
STARTCHAR Hcircumflex
ENCODING 292
SWIDTH 722 0
DWIDTH 26 0
BBX 20 32 3 0
BITMAP
00F800
00F800
01DC00
03CE00
078F00
000000
E00070
E00070
E00070
E00070
E00070
E00070
E00070
E00070
E00070
E00070
E00070
FFFFF0
FFFFF0
FFFFF0
E00070
E00070
E00070
E00070
E00070
E00070
E00070
E00070
E00070
E00070
E00070
E00070
ENDCHAR
STARTCHAR hcircumflex
ENCODING 293
SWIDTH 556 0
DWIDTH 20 0
BBX 15 32 2 0
BITMAP
03C0
07E0
0EE0
1E70
3C78
0000
E000
E000
E000
E000
E000
E000
E000
E3F0
EFF8
FFFC
FC3C
F01E
E00E
E00E
E00E
E00E
E00E
E00E
E00E
E00E
E00E
E00E
E00E
E00E
E00E
E00E
ENDCHAR
STARTCHAR Hbar
ENCODING 294
SWIDTH 722 0
DWIDTH 26 0
BBX 26 26 0 0
BITMAP
1C000E00
1C000E00
1C000E00
1C000E00
FFFFFFC0
FFFFFFC0
FFFFFFC0
1C000E00
1C000E00
1C000E00
1C000E00
1FFFFE00
1FFFFE00
1FFFFE00
1C000E00
1C000E00
1C000E00
1C000E00
1C000E00
1C000E00
1C000E00
1C000E00
1C000E00
1C000E00
1C000E00
1C000E00
ENDCHAR
STARTCHAR hbar
ENCODING 295
SWIDTH 556 0
DWIDTH 20 0
BBX 17 26 0 0
BITMAP
380000
380000
FFC000
FFC000
FFC000
380000
380000
38FC00
3BFE00
3FFF00
3F0F00
3C0780
380380
380380
380380
380380
380380
380380
380380
380380
380380
380380
380380
380380
380380
380380
ENDCHAR
STARTCHAR Itilde
ENCODING 296
SWIDTH 277 0
DWIDTH 9 0
BBX 12 32 -1 0
BITMAP
3C30
7FF0
FFE0
C3C0
0000
0000
0E00
0E00
0E00
0E00
0E00
0E00
0E00
0E00
0E00
0E00
0E00
0E00
0E00
0E00
0E00
0E00
0E00
0E00
0E00
0E00
0E00
0E00
0E00
0E00
0E00
0E00
ENDCHAR
STARTCHAR itilde
ENCODING 297
SWIDTH 228 0
DWIDTH 8 0
BBX 12 26 -2 0
BITMAP
3E30
7FF0
FFE0
C3C0
0000
0000
0000
0E00
0E00
0E00
0E00
0E00
0E00
0E00
0E00
0E00
0E00
0E00
0E00
0E00
0E00
0E00
0E00
0E00
0E00
0E00
ENDCHAR
STARTCHAR Imacron
ENCODING 298
SWIDTH 277 0
DWIDTH 9 0
BBX 11 32 -1 0
BITMAP
FFE0
FFE0
FFE0
0000
0000
0000
0E00
0E00
0E00
0E00
0E00
0E00
0E00
0E00
0E00
0E00
0E00
0E00
0E00
0E00
0E00
0E00
0E00
0E00
0E00
0E00
0E00
0E00
0E00
0E00
0E00
0E00
ENDCHAR
STARTCHAR imacron
ENCODING 299
SWIDTH 228 0
DWIDTH 8 0
BBX 11 25 -2 0
BITMAP
FFE0
FFE0
FFE0
0000
0000
0000
0E00
0E00
0E00
0E00
0E00
0E00
0E00
0E00
0E00
0E00
0E00
0E00
0E00
0E00
0E00
0E00
0E00
0E00
0E00
ENDCHAR
STARTCHAR Ibreve
ENCODING 300
SWIDTH 277 0
DWIDTH 9 0
BBX 10 32 0 0
BITMAP
C0C0
C0C0
6180
7F80
1E00
0000
1C00
1C00
1C00
1C00
1C00
1C00
1C00
1C00
1C00
1C00
1C00
1C00
1C00
1C00
1C00
1C00
1C00
1C00
1C00
1C00
1C00
1C00
1C00
1C00
1C00
1C00
ENDCHAR
STARTCHAR ibreve
ENCODING 301
SWIDTH 228 0
DWIDTH 8 0
BBX 10 26 -1 0
BITMAP
C0C0
E0C0
6180
7F80
1E00
0000
0000
1C00
1C00
1C00
1C00
1C00
1C00
1C00
1C00
1C00
1C00
1C00
1C00
1C00
1C00
1C00
1C00
1C00
1C00
1C00
ENDCHAR
STARTCHAR Iogonek
ENCODING 302
SWIDTH 277 0
DWIDTH 10 0
BBX 6 33 0 -7
BITMAP
1C
1C
1C
1C
1C
1C
1C
1C
1C
1C
1C
1C
1C
1C
1C
1C
1C
1C
1C
1C
1C
1C
1C
1C
1C
1C
18
70
E0
E0
FC
FC
7C
ENDCHAR
STARTCHAR iogonek
ENCODING 303
SWIDTH 228 0
DWIDTH 8 0
BBX 6 33 -1 -7
BITMAP
1C
1C
1C
00
00
00
00
1C
1C
1C
1C
1C
1C
1C
1C
1C
1C
1C
1C
1C
1C
1C
1C
1C
1C
1C
18
70
E0
E0
FC
FC
7C
ENDCHAR
STARTCHAR Idotaccent
ENCODING 304
SWIDTH 277 0
DWIDTH 9 0
BBX 3 32 3 0
BITMAP
E0
E0
E0
E0
00
00
E0
E0
E0
E0
E0
E0
E0
E0
E0
E0
E0
E0
E0
E0
E0
E0
E0
E0
E0
E0
E0
E0
E0
E0
E0
E0
ENDCHAR
STARTCHAR dotlessi
ENCODING 305
SWIDTH 228 0
DWIDTH 8 0
BBX 3 19 2 0
BITMAP
E0
E0
E0
E0
E0
E0
E0
E0
E0
E0
E0
E0
E0
E0
E0
E0
E0
E0
E0
ENDCHAR
STARTCHAR IJ
ENCODING 306
SWIDTH 777 0
DWIDTH 28 0
BBX 22 26 3 0
BITMAP
E0001C
E0001C
E0001C
E0001C
E0001C
E0001C
E0001C
E0001C
E0001C
E0001C
E0001C
E0001C
E0001C
E0001C
E0001C
E0001C
E0001C
E0001C
E0E01C
E0E01C
E0E01C
E0F03C
E07878
E07FF8
E03FF0
E00FC0
ENDCHAR
STARTCHAR ij
ENCODING 307
SWIDTH 456 0
DWIDTH 16 0
BBX 11 33 2 -7
BITMAP
E0E0
E0E0
E0E0
0000
0000
0000
0000
E0E0
E0E0
E0E0
E0E0
E0E0
E0E0
E0E0
E0E0
E0E0
E0E0
E0E0
E0E0
E0E0
E0E0
E0E0
E0E0
E0E0
E0E0
E0E0
00E0
00E0
00E0
01E0
0FC0
0FC0
0F80
ENDCHAR
STARTCHAR Jcircumflex
ENCODING 308
SWIDTH 500 0
DWIDTH 18 0
BBX 18 32 1 0
BITMAP
001E00
003F00
007F80
007380
01E1C0
000000
001C00
001C00
001C00
001C00
001C00
001C00
001C00
001C00
001C00
001C00
001C00
001C00
001C00
001C00
001C00
001C00
001C00
001C00
E01C00
E01C00
E01C00
F03C00
787800
7FF800
3FF000
0FC000
ENDCHAR
STARTCHAR jcircumflex
ENCODING 309
SWIDTH 228 0
DWIDTH 8 0
BBX 11 34 -2 -7
BITMAP
1F00
1F00
3B80
7BC0
F1E0
0000
0000
0000
0E00
0E00
0E00
0E00
0E00
0E00
0E00
0E00
0E00
0E00
0E00
0E00
0E00
0E00
0E00
0E00
0E00
0E00
0E00
0E00
0E00
0E00
1E00
FC00
FC00
F800
ENDCHAR
STARTCHAR uni0136
ENCODING 310
SWIDTH 666 0
DWIDTH 24 0
BBX 21 34 3 -8
BITMAP
E000F0
E001E0
E003C0
E00780
E00F00
E01E00
E03C00
E07800
E0F000
E1E000
E3C000
E7C000
EFE000
FE7000
FC7800
F83800
F01C00
E01E00
E00F00
E00700
E00380
E003C0
E001C0
E000E0
E000F0
E00078
000000
000000
007000
007000
007000
001000
002000
006000
ENDCHAR
STARTCHAR uni0137
ENCODING 311
SWIDTH 500 0
DWIDTH 18 0
BBX 15 34 2 -8
BITMAP
E000
E000
E000
E000
E000
E000
E000
E03C
E078
E0F0
E1E0
E3C0
E780
EF00
FF00
FF00
FB80
F380
E1C0
E0E0
E0E0
E070
E078
E038
E01C
E01E
0000
0000
01C0
01C0
01C0
00C0
0080
0100
ENDCHAR
STARTCHAR kgreenlandic
ENCODING 312
SWIDTH 500 0
DWIDTH 18 0
BBX 15 19 2 0
BITMAP
E03C
E078
E0F0
E1E0
E3C0
E780
EF00
FF00
FF00
FB80
F380
E1C0
E0E0
E0E0
E070
E078
E038
E01C
E01E
ENDCHAR
STARTCHAR Lacute
ENCODING 313
SWIDTH 556 0
DWIDTH 20 0
BBX 16 32 3 0
BITMAP
1E00
1C00
1C00
3800
7000
0000
E000
E000
E000
E000
E000
E000
E000
E000
E000
E000
E000
E000
E000
E000
E000
E000
E000
E000
E000
E000
E000
E000
E000
FFFF
FFFF
FFFF
ENDCHAR
STARTCHAR lacute
ENCODING 314
SWIDTH 228 0
DWIDTH 8 0
BBX 6 32 1 0
BITMAP
3C
38
70
70
E0
00
70
70
70
70
70
70
70
70
70
70
70
70
70
70
70
70
70
70
70
70
70
70
70
70
70
70
ENDCHAR
STARTCHAR uni013B
ENCODING 315
SWIDTH 556 0
DWIDTH 20 0
BBX 16 34 3 -8
BITMAP
E000
E000
E000
E000
E000
E000
E000
E000
E000
E000
E000
E000
E000
E000
E000
E000
E000
E000
E000
E000
E000
E000
E000
FFFF
FFFF
FFFF
0000
0000
01C0
01C0
01C0
0040
0040
0180
ENDCHAR
STARTCHAR uni013C
ENCODING 316
SWIDTH 228 0
DWIDTH 8 0
BBX 3 34 2 -8
BITMAP
E0
E0
E0
E0
E0
E0
E0
E0
E0
E0
E0
E0
E0
E0
E0
E0
E0
E0
E0
E0
E0
E0
E0
E0
E0
E0
00
00
E0
E0
E0
20
20
C0
ENDCHAR
STARTCHAR Lcaron
ENCODING 317
SWIDTH 556 0
DWIDTH 20 0
BBX 16 26 3 0
BITMAP
E038
E038
E038
E038
E018
E018
E018
E030
E020
E000
E000
E000
E000
E000
E000
E000
E000
E000
E000
E000
E000
E000
E000
FFFF
FFFF
FFFF
ENDCHAR
STARTCHAR lcaron
ENCODING 318
SWIDTH 291 0
DWIDTH 11 0
BBX 9 26 2 0
BITMAP
E380
E380
E380
E380
E180
E180
E180
E300
E200
E000
E000
E000
E000
E000
E000
E000
E000
E000
E000
E000
E000
E000
E000
E000
E000
E000
ENDCHAR
STARTCHAR Ldot
ENCODING 319
SWIDTH 556 0
DWIDTH 20 0
BBX 16 26 3 0
BITMAP
E000
E000
E000
E000
E000
E000
E000
E000
E000
E000
E000
E000
E038
E038
E038
E038
E000
E000
E000
E000
E000
E000
E000
FFFF
FFFF
FFFF
ENDCHAR
STARTCHAR ldot
ENCODING 320
SWIDTH 368 0
DWIDTH 13 0
BBX 10 26 1 0
BITMAP
E000
E000
E000
E000
E000
E000
E000
E000
E000
E000
E000
E000
E1C0
E1C0
E1C0
E1C0
E000
E000
E000
E000
E000
E000
E000
E000
E000
E000
ENDCHAR
STARTCHAR Lslash
ENCODING 321
SWIDTH 556 0
DWIDTH 20 0
BBX 19 26 0 0
BITMAP
1C0000
1C0000
1C0000
1C0000
1C0000
1C1000
1C3000
1C7000
1CE000
1DC000
1F0000
1E0000
1C0000
3C0000
7C0000
FC0000
DC0000
9C0000
1C0000
1C0000
1C0000
1C0000
1C0000
1FFFE0
1FFFE0
1FFFE0
ENDCHAR
STARTCHAR lslash
ENCODING 322
SWIDTH 228 0
DWIDTH 8 0
BBX 7 26 0 0
BITMAP
38
38
38
38
38
38
38
38
3A
3E
3E
3C
38
78
F8
F8
B8
38
38
38
38
38
38
38
38
38
ENDCHAR
STARTCHAR Nacute
ENCODING 323
SWIDTH 722 0
DWIDTH 26 0
BBX 20 32 3 0
BITMAP
007800
007000
00E000
00E000
01C000
000000
F00070
F00070
F80070
FC0070
FC0070
FE0070
EE0070
E70070
E78070
E38070
E1C070
E1E070
E0E070
E07070
E07870
E03870
E01C70
E01E70
E00E70
E00770
E007F0
E003F0
E003F0
E001F0
E000F0
E000F0
ENDCHAR
STARTCHAR nacute
ENCODING 324
SWIDTH 556 0
DWIDTH 20 0
BBX 15 26 2 0
BITMAP
00F0
01E0
01C0
0180
0380
0000
0000
E3F0
EFF8
FFFC
FC3C
F01E
E00E
E00E
E00E
E00E
E00E
E00E
E00E
E00E
E00E
E00E
E00E
E00E
E00E
E00E
ENDCHAR
STARTCHAR uni0145
ENCODING 325
SWIDTH 722 0
DWIDTH 26 0
BBX 20 34 3 -8
BITMAP
F00070
F00070
F80070
FC0070
FC0070
FE0070
EE0070
E70070
E78070
E38070
E1C070
E1E070
E0E070
E07070
E07870
E03870
E01C70
E01E70
E00E70
E00770
E007F0
E003F0
E003F0
E001F0
E000F0
E000F0
000000
000000
00E000
00E000
00E000
002000
002000
00C000
ENDCHAR
STARTCHAR uni0146
ENCODING 326
SWIDTH 556 0
DWIDTH 20 0
BBX 15 27 2 -8
BITMAP
E3F0
EFF8
FFFC
FC3C
F01E
E00E
E00E
E00E
E00E
E00E
E00E
E00E
E00E
E00E
E00E
E00E
E00E
E00E
E00E
0000
0000
0380
0380
0380
0080
0080
0300
ENDCHAR
STARTCHAR Ncaron
ENCODING 327
SWIDTH 722 0
DWIDTH 26 0
BBX 20 32 3 0
BITMAP
070F00
039C00
03FC00
01F800
00F000
000000
F00070
F00070
F80070
FC0070
FC0070
FE0070
EE0070
E70070
E78070
E38070
E1C070
E1E070
E0E070
E07070
E07870
E03870
E01C70
E01E70
E00E70
E00770
E007F0
E003F0
E003F0
E001F0
E000F0
E000F0
ENDCHAR
STARTCHAR ncaron
ENCODING 328
SWIDTH 556 0
DWIDTH 20 0
BBX 15 26 2 0
BITMAP
3C78
1CF0
0EE0
07C0
07C0
0000
0000
E3F0
EFF8
FFFC
FC3C
F01E
E00E
E00E
E00E
E00E
E00E
E00E
E00E
E00E
E00E
E00E
E00E
E00E
E00E
E00E
ENDCHAR
STARTCHAR napostrophe
ENCODING 329
SWIDTH 675 0
DWIDTH 24 0
BBX 20 26 1 0
BITMAP
E00000
E00000
E00000
E00000
600000
600000
600000
C71F80
877FC0
07FFE0
07E1E0
0780F0
070070
070070
070070
070070
070070
070070
070070
070070
070070
070070
070070
070070
070070
070070
ENDCHAR
STARTCHAR Eng
ENCODING 330
SWIDTH 722 0
DWIDTH 26 0
BBX 20 33 3 -7
BITMAP
F00070
F00070
F80070
FC0070
FC0070
FE0070
EE0070
E70070
E78070
E38070
E1C070
E1E070
E0E070
E07070
E07870
E03870
E01C70
E01E70
E00E70
E00770
E007F0
E003F0
E003F0
E001F0
E000F0
E000F0
000070
000070
000070
0000F0
000FE0
000FE0
000F80
ENDCHAR
STARTCHAR eng
ENCODING 331
SWIDTH 556 0
DWIDTH 20 0
BBX 15 26 2 -7
BITMAP
E3F0
EFF8
FFFC
FC3C
F01E
E00E
E00E
E00E
E00E
E00E
E00E
E00E
E00E
E00E
E00E
E00E
E00E
E00E
E00E
000E
000E
000E
001E
00FC
00FC
00F8
ENDCHAR
STARTCHAR Omacron
ENCODING 332
SWIDTH 777 0
DWIDTH 28 0
BBX 24 31 2 0
BITMAP
01FFC0
01FFC0
01FFC0
000000
000000
00FF00
03FFC0
07FFE0
1F81F8
1E0078
3C003C
78001E
70000E
70000E
E00007
E00007
E00007
E00007
E00007
E00007
E00007
E00007
70000E
70000E
78001E
3C003C
1E0078
1F81F8
0FFFE0
03FFC0
00FF00
ENDCHAR
STARTCHAR omacron
ENCODING 333
SWIDTH 556 0
DWIDTH 20 0
BBX 17 25 1 0
BITMAP
1FFC00
1FFC00
1FFC00
000000
000000
000000
07F000
1FFC00
3FFE00
3C1E00
780F00
700700
E00380
E00380
E00380
E00380
E00380
E00380
E00380
700700
780F00
3C1E00
3FFE00
1FFC00
07F000
ENDCHAR
STARTCHAR Obreve
ENCODING 334
SWIDTH 777 0
DWIDTH 28 0
BBX 24 32 2 0
BITMAP
018180
018180
00C300
00FF00
003C00
000000
00FF00
03FFC0
07FFE0
1F81F8
1E0078
3C003C
78001E
70000E
70000E
E00007
E00007
E00007
E00007
E00007
E00007
E00007
E00007
70000E
70000E
78001E
3C003C
1E0078
1F81F8
0FFFE0
03FFC0
00FF00
ENDCHAR
STARTCHAR obreve
ENCODING 335
SWIDTH 556 0
DWIDTH 20 0
BBX 17 26 1 0
BITMAP
0C0C00
0C0C00
061800
07F800
01E000
000000
000000
07F000
1FFC00
3FFE00
3C1E00
780F00
700700
E00380
E00380
E00380
E00380
E00380
E00380
E00380
700700
780F00
3C1E00
3FFE00
1FFC00
07F000
ENDCHAR
STARTCHAR Ohungarumlaut
ENCODING 336
SWIDTH 777 0
DWIDTH 28 0
BBX 24 32 2 0
BITMAP
0079E0
00F3C0
00E380
00C300
01C700
000000
00FF00
03FFC0
07FFE0
1F81F8
1E0078
3C003C
78001E
70000E
70000E
E00007
E00007
E00007
E00007
E00007
E00007
E00007
E00007
70000E
70000E
78001E
3C003C
1E0078
1F81F8
0FFFE0
03FFC0
00FF00
ENDCHAR
STARTCHAR ohungarumlaut
ENCODING 337
SWIDTH 556 0
DWIDTH 20 0
BBX 17 26 1 0
BITMAP
03CF00
038E00
071C00
071C00
0E3800
000000
000000
07F000
1FFC00
3FFE00
3C1E00
780F00
700700
E00380
E00380
E00380
E00380
E00380
E00380
E00380
700700
780F00
3C1E00
3FFE00
1FFC00
07F000
ENDCHAR
STARTCHAR OE
ENCODING 338
SWIDTH 1000 0
DWIDTH 36 0
BBX 32 26 2 0
BITMAP
01FC3FFE
07FF3FFE
0FFFBFFE
1F07F800
3C01F800
3800F800
70007800
70007800
F0007800
E0003800
E0003800
E0003FFC
E0003FFC
E0003FFC
E0003800
E0003800
E0003800
F0007800
70007800
70007800
3800F800
3C01F800
1F07F800
0FFFBFFF
07FF3FFF
01FC3FFF
ENDCHAR
STARTCHAR oe
ENCODING 339
SWIDTH 943 0
DWIDTH 34 0
BBX 31 19 1 0
BITMAP
03F01F80
1FFC7FE0
3FFEFFF8
3C1FF078
780FE03C
7007C01C
E003800E
E003800E
E003FFFE
E003FFFE
E003FFFE
E0038000
E0038000
7007C00E
780FE01E
3C1FF03C
3FFEFFF8
1FFC7FF0
07F01FC0
ENDCHAR
STARTCHAR Racute
ENCODING 340
SWIDTH 722 0
DWIDTH 26 0
BBX 21 32 3 0
BITMAP
007800
00F000
00E000
00C000
01C000
000000
FFFF00
FFFFC0
FFFFC0
E003E0
E000F0
E00070
E00070
E00070
E00070
E00070
E000E0
E003E0
FFFFC0
FFFF00
FFFE00
E00F00
E00380
E003C0
E001C0
E000E0
E000E0
E000E0
E00070
E00070
E00070
E00038
ENDCHAR
STARTCHAR racute
ENCODING 341
SWIDTH 333 0
DWIDTH 12 0
BBX 9 26 2 0
BITMAP
0F00
0E00
1E00
1C00
3800
0000
0000
E780
EF80
FF80
F800
F000
E000
E000
E000
E000
E000
E000
E000
E000
E000
E000
E000
E000
E000
E000
ENDCHAR
STARTCHAR uni0156
ENCODING 342
SWIDTH 722 0
DWIDTH 26 0
BBX 21 34 3 -8
BITMAP
FFFF00
FFFFC0
FFFFC0
E003E0
E000F0
E00070
E00070
E00070
E00070
E00070
E000E0
E003E0
FFFFC0
FFFF00
FFFE00
E00F00
E00380
E003C0
E001C0
E000E0
E000E0
E000E0
E00070
E00070
E00070
E00038
000000
000000
007000
007000
007000
001000
001000
006000
ENDCHAR
STARTCHAR uni0157
ENCODING 343
SWIDTH 333 0
DWIDTH 12 0
BBX 9 27 2 -8
BITMAP
E780
EF80
FF80
F800
F000
E000
E000
E000
E000
E000
E000
E000
E000
E000
E000
E000
E000
E000
E000
0000
0000
E000
E000
E000
2000
2000
C000
ENDCHAR
STARTCHAR Rcaron
ENCODING 344
SWIDTH 722 0
DWIDTH 26 0
BBX 21 32 3 0
BITMAP
1E1C00
073800
07F800
03F000
01E000
000000
FFFF00
FFFFC0
FFFFC0
E003E0
E000F0
E00070
E00070
E00070
E00070
E00070
E000E0
E003E0
FFFFC0
FFFF00
FFFE00
E00F00
E00380
E003C0
E001C0
E000E0
E000E0
E000E0
E00070
E00070
E00070
E00038
ENDCHAR
STARTCHAR rcaron
ENCODING 345
SWIDTH 333 0
DWIDTH 12 0
BBX 11 26 0 0
BITMAP
F1E0
79C0
3F80
1F80
0F00
0000
0000
39E0
3BE0
3FE0
3E00
3C00
3800
3800
3800
3800
3800
3800
3800
3800
3800
3800
3800
3800
3800
3800
ENDCHAR
STARTCHAR Sacute
ENCODING 346
SWIDTH 666 0
DWIDTH 24 0
BBX 20 32 2 0
BITMAP
003C00
007800
007000
00E000
00E000
000000
03F800
0FFE00
1FFF80
3E07C0
7803C0
7001E0
7000E0
7000E0
700000
3C0000
3F8000
1FF800
07FF00
00FFC0
000FE0
0001E0
0000F0
E00070
E00070
F00070
700070
7800E0
3E03E0
1FFFC0
0FFF00
01FC00
ENDCHAR
STARTCHAR sacute
ENCODING 347
SWIDTH 500 0
DWIDTH 18 0
BBX 15 26 1 0
BITMAP
00F0
00E0
01C0
01C0
0380
0000
0000
0FE0
3FF0
7FF8
F03C
E01C
E000
F000
FE00
7FE0
1FF8
03FC
003E
000E
E00E
E00E
781E
7FFC
3FF8
0FE0
ENDCHAR
STARTCHAR Scircumflex
ENCODING 348
SWIDTH 666 0
DWIDTH 24 0
BBX 20 32 2 0
BITMAP
00F000
01F800
01FC00
039E00
078F00
000000
03F800
0FFE00
1FFF80
3E07C0
7803C0
7001E0
7000E0
7000E0
700000
3C0000
3F8000
1FF800
07FF00
00FFC0
000FE0
0001E0
0000F0
E00070
E00070
F00070
700070
7800E0
3E03E0
1FFFC0
0FFF00
01FC00
ENDCHAR
STARTCHAR scircumflex
ENCODING 349
SWIDTH 500 0
DWIDTH 18 0
BBX 15 26 1 0
BITMAP
0780
0FC0
1DC0
3CE0
78F0
0000
0000
0FE0
3FF0
7FF8
F03C
E01C
E000
F000
FE00
7FE0
1FF8
03FC
003E
000E
E00E
E00E
781E
7FFC
3FF8
0FE0
ENDCHAR
STARTCHAR Scedilla
ENCODING 350
SWIDTH 666 0
DWIDTH 24 0
BBX 20 33 2 -7
BITMAP
03F800
0FFE00
1FFF80
3E07C0
7803C0
7001E0
7000E0
7000E0
780000
7C0000
3F8000
1FF800
07FF00
01FFC0
000FE0
0001E0
0000F0
E00070
E00070
F00070
700070
7800E0
3E03E0
1FFFC0
0FFF80
03FC00
006000
007800
001C00
001C00
001C00
01F800
01F000
ENDCHAR
STARTCHAR scedilla
ENCODING 351
SWIDTH 500 0
DWIDTH 18 0
BBX 15 26 1 -7
BITMAP
0FE0
3FF0
7FF8
F03C
E01C
E000
F000
FE00
7FE0
1FF8
03FC
003E
000E
E00E
E00E
F81E
7FFC
3FF8
0FE0
0300
03C0
00E0
00E0
00E0
0FC0
0F80
ENDCHAR
STARTCHAR Scaron
ENCODING 352
SWIDTH 666 0
DWIDTH 24 0
BBX 20 32 2 0
BITMAP
078F00
039C00
01FC00
01F800
00F000
000000
03F800
0FFE00
1FFF80
3E07C0
7803C0
7001E0
7000E0
7000E0
700000
3C0000
3F8000
1FF800
07FF00
00FFC0
000FE0
0001E0
0000F0
E00070
E00070
F00070
700070
7800E0
3E03E0
1FFFC0
0FFF00
01FC00
ENDCHAR
STARTCHAR scaron
ENCODING 353
SWIDTH 500 0
DWIDTH 18 0
BBX 15 26 1 0
BITMAP
78F0
3CE0
1DC0
0FC0
0780
0000
0000
0FE0
3FF0
7FF8
F03C
E01C
E000
F000
FE00
7FE0
1FF8
03FC
003E
000E
E00E
E00E
781E
7FFC
3FF8
0FE0
ENDCHAR
STARTCHAR uni0162
ENCODING 354
SWIDTH 610 0
DWIDTH 22 0
BBX 19 33 1 -7
BITMAP
FFFFE0
FFFFE0
FFFFE0
00E000
00E000
00E000
00E000
00E000
00E000
00E000
00E000
00E000
00E000
00E000
00E000
00E000
00E000
00E000
00E000
00E000
00E000
00E000
00E000
00E000
00E000
00E000
00C000
00F000
003800
003800
003800
03F000
03E000
ENDCHAR
STARTCHAR uni0163
ENCODING 355
SWIDTH 277 0
DWIDTH 10 0
BBX 9 31 1 -7
BITMAP
3800
3800
3800
3800
3800
FF00
FF00
FF00
3800
3800
3800
3800
3800
3800
3800
3800
3800
3800
3800
3800
3800
3F00
1F00
0F00
0C00
0F00
0380
0380
0380
3F00
3E00
ENDCHAR
STARTCHAR Tcaron
ENCODING 356
SWIDTH 610 0
DWIDTH 22 0
BBX 19 32 1 0
BITMAP
0F1E00
073C00
03B800
01F000
01F000
000000
FFFFE0
FFFFE0
FFFFE0
00E000
00E000
00E000
00E000
00E000
00E000
00E000
00E000
00E000
00E000
00E000
00E000
00E000
00E000
00E000
00E000
00E000
00E000
00E000
00E000
00E000
00E000
00E000
ENDCHAR
STARTCHAR tcaron
ENCODING 357
SWIDTH 351 0
DWIDTH 13 0
BBX 12 28 1 0
BITMAP
0070
0070
0070
0070
3830
3830
3870
3860
3800
FF00
FF00
FF00
3800
3800
3800
3800
3800
3800
3800
3800
3800
3800
3800
3800
3800
3F00
1F00
0F00
ENDCHAR
STARTCHAR Tbar
ENCODING 358
SWIDTH 610 0
DWIDTH 22 0
BBX 19 26 1 0
BITMAP
FFFFE0
FFFFE0
FFFFE0
00E000
00E000
00E000
00E000
00E000
00E000
00E000
3FFF80
3FFF80
3FFF80
00E000
00E000
00E000
00E000
00E000
00E000
00E000
00E000
00E000
00E000
00E000
00E000
00E000
ENDCHAR
STARTCHAR tbar
ENCODING 359
SWIDTH 277 0
DWIDTH 10 0
BBX 8 24 1 0
BITMAP
38
38
38
38
38
FF
FF
FF
38
38
38
38
FE
FE
FE
38
38
38
38
38
38
3F
1F
1F
ENDCHAR
STARTCHAR Utilde
ENCODING 360
SWIDTH 722 0
DWIDTH 26 0
BBX 20 32 3 0
BITMAP
03E300
07FF00
0FFE00
0C3C00
000000
000000
E00070
E00070
E00070
E00070
E00070
E00070
E00070
E00070
E00070
E00070
E00070
E00070
E00070
E00070
E00070
E00070
E00070
E00070
E00070
F000F0
7000E0
7801E0
3E07C0
3FFFC0
0FFF00
03FC00
ENDCHAR
STARTCHAR utilde
ENCODING 361
SWIDTH 556 0
DWIDTH 20 0
BBX 15 26 2 0
BITMAP
0F8C
1FFC
3FF8
30F0
0000
0000
0000
E00E
E00E
E00E
E00E
E00E
E00E
E00E
E00E
E00E
E00E
E00E
E00E
E00E
E00E
F01E
F07E
7FFE
3FEE
1F8E
ENDCHAR
STARTCHAR Umacron
ENCODING 362
SWIDTH 722 0
DWIDTH 26 0
BBX 20 31 3 0
BITMAP
07FF00
07FF00
07FF00
000000
000000
E00070
E00070
E00070
E00070
E00070
E00070
E00070
E00070
E00070
E00070
E00070
E00070
E00070
E00070
E00070
E00070
E00070
E00070
E00070
F000F0
7000E0
7801E0
3E07C0
3FFFC0
0FFF00
03FC00
ENDCHAR
STARTCHAR umacron
ENCODING 363
SWIDTH 556 0
DWIDTH 20 0
BBX 15 25 2 0
BITMAP
3FF8
3FF8
3FF8
0000
0000
0000
E00E
E00E
E00E
E00E
E00E
E00E
E00E
E00E
E00E
E00E
E00E
E00E
E00E
E00E
F01E
F07E
7FFE
3FEE
1F8E
ENDCHAR
STARTCHAR Ubreve
ENCODING 364
SWIDTH 722 0
DWIDTH 26 0
BBX 20 32 3 0
BITMAP
060600
060600
030C00
03FC00
00F000
000000
E00070
E00070
E00070
E00070
E00070
E00070
E00070
E00070
E00070
E00070
E00070
E00070
E00070
E00070
E00070
E00070
E00070
E00070
E00070
F000F0
7000E0
7801E0
3E07C0
3FFFC0
0FFF00
03FC00
ENDCHAR
STARTCHAR ubreve
ENCODING 365
SWIDTH 556 0
DWIDTH 20 0
BBX 15 26 2 0
BITMAP
1818
1818
0C30
0FF0
03C0
0000
0000
E00E
E00E
E00E
E00E
E00E
E00E
E00E
E00E
E00E
E00E
E00E
E00E
E00E
E00E
F01E
F07E
7FFE
3FEE
1F8E
ENDCHAR
STARTCHAR Uring
ENCODING 366
SWIDTH 722 0
DWIDTH 26 0
BBX 20 32 3 0
BITMAP
00F000
019800
010800
010800
019800
00F000
E00070
E00070
E00070
E00070
E00070
E00070
E00070
E00070
E00070
E00070
E00070
E00070
E00070
E00070
E00070
E00070
E00070
E00070
E00070
F000F0
7000E0
7801E0
3E07C0
3FFFC0
0FFF00
03FC00
ENDCHAR
STARTCHAR uring
ENCODING 367
SWIDTH 556 0
DWIDTH 20 0
BBX 15 27 2 0
BITMAP
03C0
0640
0420
0420
0640
03C0
0000
0000
E00E
E00E
E00E
E00E
E00E
E00E
E00E
E00E
E00E
E00E
E00E
E00E
E00E
E00E
F01E
F07E
7FFE
3FEE
1F8E
ENDCHAR
STARTCHAR Uhungarumlaut
ENCODING 368
SWIDTH 722 0
DWIDTH 26 0
BBX 20 32 3 0
BITMAP
01E780
01C700
03CF00
038E00
071C00
000000
E00070
E00070
E00070
E00070
E00070
E00070
E00070
E00070
E00070
E00070
E00070
E00070
E00070
E00070
E00070
E00070
E00070
E00070
E00070
F000F0
7000E0
7801E0
3E07C0
3FFFC0
0FFF00
03FC00
ENDCHAR
STARTCHAR uhungarumlaut
ENCODING 369
SWIDTH 556 0
DWIDTH 20 0
BBX 15 26 2 0
BITMAP
079E
071C
071C
0E38
1C70
0000
0000
E00E
E00E
E00E
E00E
E00E
E00E
E00E
E00E
E00E
E00E
E00E
E00E
E00E
E00E
F01E
F07E
7FFE
3FEE
1F8E
ENDCHAR
STARTCHAR Uogonek
ENCODING 370
SWIDTH 722 0
DWIDTH 26 0
BBX 20 33 3 -7
BITMAP
E00070
E00070
E00070
E00070
E00070
E00070
E00070
E00070
E00070
E00070
E00070
E00070
E00070
E00070
E00070
E00070
E00070
E00070
E00070
F000F0
7000E0
7801E0
3E07C0
3FFFC0
0FFF00
03FC00
003800
007000
00E000
00E000
00FC00
007C00
003C00
ENDCHAR
STARTCHAR uogonek
ENCODING 371
SWIDTH 556 0
DWIDTH 20 0
BBX 16 26 2 -7
BITMAP
E00E
E00E
E00E
E00E
E00E
E00E
E00E
E00E
E00E
E00E
E00E
E00E
E00E
E00E
F01E
F07E
7FFE
3FEE
1F8E
000C
0018
0038
0038
003F
003F
001F
ENDCHAR
STARTCHAR Wcircumflex
ENCODING 372
SWIDTH 943 0
DWIDTH 34 0
BBX 34 32 0 0
BITMAP
0000F00000
0001F00000
0003B80000
00079C0000
000F1E0000
0000000000
E001E001C0
E001E003C0
7001E00380
7003F00380
7003F00380
3003300700
3803300700
3807380700
3806180700
1806180E00
1C0E1C0E00
1C0E1C0E00
0C0C0C0C00
0C1C0E1C00
0E1C0E1C00
0E18061C00
0638071800
0638073800
0730033800
0770033800
037003B000
03E001F000
03E001F000
01E001E000
01C000E000
01C000E000
ENDCHAR
STARTCHAR wcircumflex
ENCODING 373
SWIDTH 722 0
DWIDTH 26 0
BBX 25 26 0 0
BITMAP
003E0000
003E0000
00770000
00F78000
01E3C000
00000000
00000000
E01C0380
E01C0380
703E0700
703E0700
703E0700
30770600
38770E00
38770E00
38770E00
18E38C00
1CE39C00
1CE39C00
0DC1D800
0DC1D800
0DC1D800
0FC1F800
0780F000
0780F000
0780F000
ENDCHAR
STARTCHAR Ycircumflex
ENCODING 374
SWIDTH 666 0
DWIDTH 23 0
BBX 23 32 0 0
BITMAP
007C00
007C00
00EE00
01E700
03C780
000000
F0001E
70001C
380038
3C0078
1C0070
0E00E0
0F01E0
0701C0
038380
038380
01C700
00EE00
00EE00
007C00
003800
003800
003800
003800
003800
003800
003800
003800
003800
003800
003800
003800
ENDCHAR
STARTCHAR ycircumflex
ENCODING 375
SWIDTH 500 0
DWIDTH 18 0
BBX 17 33 0 -7
BITMAP
03E000
03E000
077000
0F3800
1E3C00
000000
000000
E00380
700700
700700
700700
380E00
380E00
380E00
1C1C00
1C1C00
0C1800
0E3800
0E3800
063000
077000
077000
036000
03E000
03E000
01C000
01C000
038000
038000
0F0000
7F0000
7E0000
7C0000
ENDCHAR
STARTCHAR Ydieresis
ENCODING 376
SWIDTH 666 0
DWIDTH 23 0
BBX 23 32 0 0
BITMAP
01C380
01C380
01C380
01C380
000000
000000
F0001E
70001C
380038
3C0078
1C0070
0E00E0
0F01E0
0701C0
038380
038380
01C700
00EE00
00EE00
007C00
003800
003800
003800
003800
003800
003800
003800
003800
003800
003800
003800
003800
ENDCHAR
STARTCHAR Zacute
ENCODING 377
SWIDTH 610 0
DWIDTH 22 0
BBX 18 32 2 0
BITMAP
007800
007000
007000
00E000
01C000
000000
7FFFC0
7FFFC0
7FFFC0
0003C0
000780
000700
000F00
001E00
001C00
003800
007800
00F000
00E000
01C000
03C000
078000
070000
0E0000
1E0000
3C0000
380000
780000
F00000
FFFFC0
FFFFC0
FFFFC0
ENDCHAR
STARTCHAR zacute
ENCODING 378
SWIDTH 500 0
DWIDTH 18 0
BBX 16 26 1 0
BITMAP
00F0
01E0
01C0
0180
0380
0000
0000
7FFE
7FFE
7FFE
001E
003C
0078
00F0
01E0
01C0
0380
0700
0F00
1E00
3C00
7800
F000
FFFF
FFFF
FFFF
ENDCHAR
STARTCHAR Zdotaccent
ENCODING 379
SWIDTH 610 0
DWIDTH 22 0
BBX 18 32 2 0
BITMAP
00E000
00E000
00E000
00E000
000000
000000
7FFFC0
7FFFC0
7FFFC0
0003C0
000780
000700
000F00
001E00
001C00
003800
007800
00F000
00E000
01C000
03C000
078000
070000
0E0000
1E0000
3C0000
380000
780000
F00000
FFFFC0
FFFFC0
FFFFC0
ENDCHAR
STARTCHAR zdotaccent
ENCODING 380
SWIDTH 500 0
DWIDTH 18 0
BBX 16 26 1 0
BITMAP
01C0
01C0
01C0
01C0
0000
0000
0000
7FFE
7FFE
7FFE
001E
003C
0078
00F0
01E0
01C0
0380
0700
0F00
1E00
3C00
7800
F000
FFFF
FFFF
FFFF
ENDCHAR
STARTCHAR Zcaron
ENCODING 381
SWIDTH 610 0
DWIDTH 22 0
BBX 18 32 2 0
BITMAP
0F1E00
07BC00
03B800
01F000
01F000
000000
7FFFC0
7FFFC0
7FFFC0
0003C0
000780
000700
000F00
001E00
001C00
003800
007800
00F000
00E000
01C000
03C000
078000
070000
0E0000
1E0000
3C0000
380000
780000
F00000
FFFFC0
FFFFC0
FFFFC0
ENDCHAR
STARTCHAR zcaron
ENCODING 382
SWIDTH 500 0
DWIDTH 18 0
BBX 16 26 1 0
BITMAP
1E3C
0F38
0770
03E0
03E0
0000
0000
7FFE
7FFE
7FFE
001E
003C
0078
00F0
01E0
01C0
0380
0700
0F00
1E00
3C00
7800
F000
FFFF
FFFF
FFFF
ENDCHAR
STARTCHAR longs
ENCODING 383
SWIDTH 250 0
DWIDTH 9 0
BBX 8 26 2 0
BITMAP
1F
7F
7F
F0
E0
E0
E0
E0
E0
E0
E0
E0
E0
E0
E0
E0
E0
E0
E0
E0
E0
E0
E0
E0
E0
E0
ENDCHAR
STARTCHAR uni0180
ENCODING 384
SWIDTH 556 0
DWIDTH 20 0
BBX 18 26 0 0
BITMAP
380000
FFC000
FFC000
FFC000
380000
380000
380000
38F800
3BFE00
3FFF00
3F0F80
3E0380
3C0380
3801C0
3801C0
3801C0
3801C0
3801C0
3801C0
3801C0
380380
3C0380
3F0F00
3FFF00
3FFE00
39F800
ENDCHAR
STARTCHAR uni0181
ENCODING 385
SWIDTH 748 0
DWIDTH 27 0
BBX 25 26 0 0
BITMAP
1FFFE000
7FFFF800
FFFFFC00
F3803E00
E3800F00
E3800700
E3800700
F3800700
03800700
03800E00
03803E00
03FFFC00
03FFF800
03FFFE00
03801F00
03800700
03800380
03800380
03800380
03800380
03800380
03800700
03801F00
03FFFE00
03FFFC00
03FFF000
ENDCHAR
STARTCHAR uni0182
ENCODING 386
SWIDTH 654 0
DWIDTH 24 0
BBX 19 26 3 0
BITMAP
FFFF00
FFFF00
FFFF00
E00000
E00000
E00000
E00000
E00000
E00000
E00000
E00000
FFF800
FFFF00
FFFF80
E007C0
E001C0
E000E0
E000E0
E000E0
E000E0
E000E0
E001C0
E007C0
FFFF80
FFFF00
FFFC00
ENDCHAR
STARTCHAR uni0183
ENCODING 387
SWIDTH 556 0
DWIDTH 20 0
BBX 16 26 2 0
BITMAP
FFF8
FFF8
FFF8
E000
E000
E000
E000
E3E0
EFF8
FFFC
FC3E
F80E
F00E
E007
E007
E007
E007
E007
E007
E007
E00E
F00E
FC3C
FFFC
FFF8
E7E0
ENDCHAR
STARTCHAR uni0184
ENCODING 388
SWIDTH 654 0
DWIDTH 24 0
BBX 22 26 0 0
BITMAP
040000
0C0000
3C0000
7C0000
FC0000
FC0000
7C0000
3C0000
1C0000
1C0000
1C0000
1FFF00
1FFFE0
1FFFF0
1C00F8
1C0038
1C001C
1C001C
1C001C
1C001C
1C001C
1C0038
1C00F8
1FFFF0
1FFFE0
1FFF80
ENDCHAR
STARTCHAR uni0185
ENCODING 389
SWIDTH 556 0
DWIDTH 20 0
BBX 18 26 0 0
BITMAP
080000
180000
380000
F80000
F80000
780000
380000
38F800
3BFE00
3FFF00
3F0F80
3E0380
3C0380
3801C0
3801C0
3801C0
3801C0
3801C0
3801C0
3801C0
380380
3C0380
3F0F00
3FFF00
3FFE00
39F800
ENDCHAR
STARTCHAR uni0186
ENCODING 390
SWIDTH 722 0
DWIDTH 26 0
BBX 22 26 2 0
BITMAP
01FC00
0FFF00
1FFFC0
3E07E0
7801F0
700070
E00078
E00038
000038
00001C
00001C
00001C
00001C
00001C
00001C
00001C
00001C
E00038
E00038
F00078
700070
7801F0
3E07E0
1FFFC0
0FFF00
01FC00
ENDCHAR
STARTCHAR uni0187
ENCODING 391
SWIDTH 722 0
DWIDTH 26 0
BBX 27 27 2 0
BITMAP
000003E0
00FF07E0
03FFCFE0
0FFFEE20
1F81FC00
3E007C00
38003C00
78001C00
70001C00
70000000
E0000000
E0000000
E0000000
E0000000
E0000000
E0000000
E0000000
E0000000
70001C00
70001C00
78003C00
38003800
3E007800
1F81F000
0FFFE000
03FFC000
00FE0000
ENDCHAR
STARTCHAR uni0188
ENCODING 392
SWIDTH 500 0
DWIDTH 18 0
BBX 21 22 1 0
BITMAP
0000F8
0001F8
0003F8
07F388
1FFF00
3FFF00
3C1F00
780F00
700700
E00000
E00000
E00000
E00000
E00000
E00000
E00000
700700
780F00
3C1E00
3FFE00
1FFC00
07F000
ENDCHAR
STARTCHAR uni0189
ENCODING 393
SWIDTH 722 0
DWIDTH 26 0
BBX 24 26 0 0
BITMAP
1FFF00
1FFFC0
1FFFF0
1C01F8
1C003C
1C001C
1C001E
1C000E
1C000F
1C0007
1C0007
FFF807
FFF807
FFF807
1C0007
1C0007
1C0007
1C000E
1C000E
1C001E
1C001C
1C003C
1C01F8
1FFFF0
1FFFC0
1FFF00
ENDCHAR
STARTCHAR uni018A
ENCODING 394
SWIDTH 803 0
DWIDTH 29 0
BBX 27 26 0 0
BITMAP
1FFFE000
7FFFF800
FFFFFE00
F3803F00
E3800780
E3800380
E38001C0
F38001C0
038001E0
038000E0
038000E0
038000E0
038000E0
038000E0
038000E0
038000E0
038000E0
038001C0
038001C0
038003C0
03800380
03800F80
03803F00
03FFFE00
03FFF800
03FFE000
ENDCHAR
STARTCHAR uni018B
ENCODING 395
SWIDTH 654 0
DWIDTH 24 0
BBX 19 26 3 0
BITMAP
1FFFE0
1FFFE0
1FFFE0
0000E0
0000E0
0000E0
0000E0
0000E0
0000E0
0000E0
0000E0
03FFE0
1FFFE0
3FFFE0
7C00E0
F000E0
E000E0
E000E0
E000E0
E000E0
E000E0
F000E0
7C00E0
3FFFE0
1FFFE0
07FFE0
ENDCHAR
STARTCHAR uni018C
ENCODING 396
SWIDTH 556 0
DWIDTH 20 0
BBX 16 26 1 0
BITMAP
1FFF
1FFF
1FFF
0007
0007
0007
0007
07E7
1FFF
3FFF
3C3F
700F
7007
E007
E007
E007
E007
E007
E007
E007
F00F
701F
7C3F
3FFF
1FF7
07C7
ENDCHAR
STARTCHAR uni018D
ENCODING 397
SWIDTH 556 0
DWIDTH 20 0
BBX 17 26 1 -7
BITMAP
07F000
1FFC00
3FFE00
3C1E00
780F00
700700
F00380
E00380
E00380
E00380
E00380
E00380
E00780
700700
780F00
3C1E00
3FFE00
1FF800
07F000
03C000
01E000
007800
003C00
3FFE00
3FFE00
3FFE00
ENDCHAR
STARTCHAR uni018E
ENCODING 398
SWIDTH 666 0
DWIDTH 24 0
BBX 19 26 3 0
BITMAP
7FFFE0
7FFFE0
7FFFE0
0000E0
0000E0
0000E0
0000E0
0000E0
0000E0
0000E0
0000E0
3FFFE0
3FFFE0
3FFFE0
0000E0
0000E0
0000E0
0000E0
0000E0
0000E0
0000E0
0000E0
0000E0
FFFFE0
FFFFE0
FFFFE0
ENDCHAR
STARTCHAR uni018F
ENCODING 399
SWIDTH 777 0
DWIDTH 28 0
BBX 24 26 2 0
BITMAP
00FF00
03FFC0
0FFFE0
1F81F8
0E0078
04003C
00001E
00000E
00000E
000007
000007
FFFFFF
FFFFFF
FFFFFF
E00007
E00007
E00007
70000E
70000E
78001E
3C003C
1E0078
1F81F8
07FFF0
03FFC0
00FF00
ENDCHAR
STARTCHAR uni0190
ENCODING 400
SWIDTH 634 0
DWIDTH 23 0
BBX 19 26 2 0
BITMAP
03FC00
0FFF00
1FFF80
3C07C0
7801C0
7000E0
7000E0
700000
700000
380000
3E0000
0FF800
0FF800
3FF800
7E0000
780000
F00000
E00000
E00000
E000E0
F000E0
7001C0
7C07C0
3FFF80
0FFF00
03F800
ENDCHAR
STARTCHAR uni0191
ENCODING 401
SWIDTH 610 0
DWIDTH 22 0
BBX 21 33 -1 -7
BITMAP
0FFFF8
0FFFF8
0FFFF8
0E0000
0E0000
0E0000
0E0000
0E0000
0E0000
0E0000
0E0000
0FFFE0
0FFFE0
0FFFE0
0E0000
0E0000
0E0000
0E0000
0E0000
0E0000
0E0000
0E0000
0E0000
0E0000
0E0000
0E0000
0E0000
0E0000
0E0000
1E0000
FC0000
FC0000
F80000
ENDCHAR
STARTCHAR florin
ENCODING 402
SWIDTH 556 0
DWIDTH 20 0
BBX 17 33 1 -7
BITMAP
001F80
003F80
003F80
007800
007000
007000
007000
07FF00
07FF00
07FF00
00E000
00E000
00E000
01E000
01C000
01C000
01C000
01C000
01C000
038000
038000
038000
038000
038000
038000
070000
070000
070000
070000
0F0000
FE0000
FE0000
FC0000
ENDCHAR
STARTCHAR uni0193
ENCODING 403
SWIDTH 777 0
DWIDTH 28 0
BBX 29 27 2 0
BITMAP
000000F8
007F81F8
03FFF3F8
07FFFB88
0F80FF00
1E001F00
3C000F00
78000700
70000700
70000000
E0000000
E0000000
E0000000
E0000000
E003FF00
E003FF00
E003FF00
E0000700
70000700
70000700
78000700
3C000F00
1E001F00
0F80FF00
07FFFF00
03FFE700
007F8300
ENDCHAR
STARTCHAR uni0194
ENCODING 404
SWIDTH 666 0
DWIDTH 24 0
BBX 23 33 0 -7
BITMAP
F0000E
70001C
78001C
380038
3C0038
1C0070
1C0070
0E00E0
0E00E0
0701E0
0701C0
0383C0
038380
03C780
01C700
01EF00
00EE00
00FE00
007C00
007C00
003800
003800
007C00
007C00
00EE00
00EE00
01EF00
01C700
01C700
01C700
01FF00
00FE00
007C00
ENDCHAR
STARTCHAR uni0195
ENCODING 405
SWIDTH 892 0
DWIDTH 32 0
BBX 27 26 2 0
BITMAP
E0000000
E0000000
E0000000
E0000000
E0000000
E0000000
E0000000
E3F000E0
EFF800E0
FFFC00E0
FC1E00E0
F80E00E0
E00E00E0
E00E00E0
E00E00E0
E00E00E0
E00E00E0
E00E00E0
E00E00E0
E00E00E0
E00E01E0
E00F01C0
E00783C0
E003FF80
E001FF00
E0007C00
ENDCHAR
STARTCHAR uni0196
ENCODING 406
SWIDTH 228 0
DWIDTH 8 0
BBX 3 26 2 0
BITMAP
E0
E0
E0
E0
E0
E0
E0
E0
E0
E0
E0
E0
E0
E0
E0
E0
E0
E0
E0
E0
E0
E0
E0
E0
E0
E0
ENDCHAR
STARTCHAR uni0197
ENCODING 407
SWIDTH 277 0
DWIDTH 10 0
BBX 9 26 0 0
BITMAP
1C00
1C00
1C00
1C00
1C00
1C00
1C00
1C00
1C00
1C00
FF80
FF80
FF80
1C00
1C00
1C00
1C00
1C00
1C00
1C00
1C00
1C00
1C00
1C00
1C00
1C00
ENDCHAR
STARTCHAR uni0198
ENCODING 408
SWIDTH 666 0
DWIDTH 24 0
BBX 20 26 3 0
BITMAP
3E00F0
7E01E0
7E03C0
F00780
E00F00
E01E00
E03C00
E07800
E0F000
E1E000
E3C000
E78000
EFC000
FFE000
FCF000
F87000
F03800
E03C00
E01C00
E00E00
E00F00
E00780
E00380
E001C0
E001E0
E000F0
ENDCHAR
STARTCHAR uni0199
ENCODING 409
SWIDTH 500 0
DWIDTH 18 0
BBX 16 26 2 0
BITMAP
3E00
7E00
7E00
F000
E000
E000
E000
E03E
E078
E0F0
E1E0
E3C0
E780
EF00
FF00
FF00
FB80
F3C0
E1C0
E0E0
E0F0
E078
E038
E01C
E01E
E00F
ENDCHAR
STARTCHAR uni019A
ENCODING 410
SWIDTH 228 0
DWIDTH 8 0
BBX 7 26 0 0
BITMAP
38
38
38
38
38
38
38
38
38
38
FE
FE
FE
38
38
38
38
38
38
38
38
38
38
38
38
38
ENDCHAR
STARTCHAR uni019B
ENCODING 411
SWIDTH 500 0
DWIDTH 18 0
BBX 17 26 1 0
BITMAP
782000
7C7000
7FE000
0FC000
0F0000
3F8000
7BC000
E1C000
41C000
03E000
03E000
03F000
077000
077000
0F7800
0E3800
0E3800
1C1C00
1C1C00
3C1E00
380E00
380E00
700700
700700
700700
E00380
ENDCHAR
STARTCHAR uni019C
ENCODING 412
SWIDTH 833 0
DWIDTH 30 0
BBX 25 26 2 0
BITMAP
E01C0380
E01C0380
E01C0380
E01C0380
E01C0380
E01C0380
E01C0380
E01C0380
E01C0380
E01C0380
E01C0380
E01C0380
E01C0380
E01C0380
E01C0380
E01C0380
E01C0380
E01C0380
E01C0380
E01C0380
E01C0380
E03C0780
F0FE1F80
7FEFFF80
3FC7FB80
1F03E380
ENDCHAR
STARTCHAR uni019D
ENCODING 413
SWIDTH 722 0
DWIDTH 26 0
BBX 24 33 -1 -7
BITMAP
0E0007
0F0007
0F8007
0F8007
0FC007
0FE007
0EE007
0EF007
0E7807
0E3807
0E3C07
0E1E07
0E0E07
0E0707
0E0787
0E03C7
0E01C7
0E01E7
0E00F7
0E0077
0E007F
0E003F
0E001F
0E001F
0E000F
0E0007
0E0000
0E0000
0E0000
1E0000
FE0000
FC0000
F80000
ENDCHAR
STARTCHAR uni019E
ENCODING 414
SWIDTH 556 0
DWIDTH 20 0
BBX 15 26 2 -7
BITMAP
E3F0
EFF8
FFFC
FC3C
F01E
E00E
E00E
E00E
E00E
E00E
E00E
E00E
E00E
E00E
E00E
E00E
E00E
E00E
E00E
000E
000E
000E
000E
000E
000E
000E
ENDCHAR
STARTCHAR uni019F
ENCODING 415
SWIDTH 777 0
DWIDTH 28 0
BBX 24 26 2 0
BITMAP
00FF00
03FFC0
0FFFF0
1F81F8
1E0078
3C003C
78001E
70000E
70000E
E00007
E00007
FFFFFF
FFFFFF
FFFFFF
E00007
E00007
E00007
70000E
70000E
78001E
3C003C
1E0078
1F81F8
0FFFF0
03FFC0
00FF00
ENDCHAR
STARTCHAR Ohorn
ENCODING 416
SWIDTH 777 0
DWIDTH 28 0
BBX 24 30 2 0
BITMAP
000007
000007
000007
000007
00FF03
03FFC3
07FFF3
1F81FE
1E007E
3C003C
78001E
70000E
70000E
E00007
E00007
E00007
E00007
E00007
E00007
E00007
E00007
70000E
70000E
78001E
3C003C
1E0078
1F81F8
0FFFE0
03FFC0
00FF00
ENDCHAR
STARTCHAR ohorn
ENCODING 417
SWIDTH 556 0
DWIDTH 20 0
BBX 17 23 1 0
BITMAP
000380
000380
000380
000380
07F180
1FFF80
3FFF00
3C1E00
780F00
700700
E00380
E00380
E00380
E00380
E00380
E00380
E00380
700780
780F00
3C1F00
3FFE00
1FFC00
07F000
ENDCHAR
STARTCHAR uni01A2
ENCODING 418
SWIDTH 881 0
DWIDTH 32 0
BBX 27 33 2 -7
BITMAP
00FF8060
03FFF3E0
0FFFFFE0
1F80FFE0
3E003FE0
3C0038E0
780038E0
700038E0
700038E0
E00038E0
E00038E0
E00038E0
E00038E0
E00038E0
E00038E0
E00038E0
E00038E0
700038E0
700038E0
780038E0
3C0038E0
3E0038E0
1F80F8E0
0FFFF8E0
03FFE0E0
00FF00E0
000000E0
000000E0
000000E0
000000E0
000000E0
000000E0
000000E0
ENDCHAR
STARTCHAR uni01A3
ENCODING 419
SWIDTH 703 0
DWIDTH 25 0
BBX 21 26 1 -7
BITMAP
03F818
0FFFF8
3FFFF8
3C0FF8
780E38
700E38
F00E38
E00E38
E00E38
E00E38
E00E38
E00E38
E00E38
700E38
780E38
7C0E38
3FFE38
1FFE38
07F038
000038
000038
000038
000038
000038
000038
000038
ENDCHAR
STARTCHAR uni01A4
ENCODING 420
SWIDTH 748 0
DWIDTH 27 0
BBX 25 26 0 0
BITMAP
1FFFF000
7FFFFC00
FFFFFE00
F3800F00
E3800700
E3800780
E3800380
F3800380
03800380
03800380
03800780
03800700
03801F00
03FFFE00
03FFFC00
03FFF000
03800000
03800000
03800000
03800000
03800000
03800000
03800000
03800000
03800000
03800000
ENDCHAR
STARTCHAR uni01A5
ENCODING 421
SWIDTH 556 0
DWIDTH 20 0
BBX 16 33 2 -7
BITMAP
3E00
7E00
7E00
F000
E000
E000
E000
E3E0
EFF8
FFFC
FC3E
F80E
F00E
E007
E007
E007
E007
E007
E007
E007
E00E
F00E
FC3C
FFFC
FFF8
E7E0
E000
E000
E000
E000
E000
E000
E000
ENDCHAR
STARTCHAR uni01A6
ENCODING 422
SWIDTH 666 0
DWIDTH 24 0
BBX 21 29 3 -3
BITMAP
E00000
E00000
E00000
FFFC00
FFFF00
FFFF80
E003C0
E001E0
E000E0
E000E0
E000E0
E000E0
E000E0
E001E0
E007C0
FFFF80
FFFF00
FFFC00
E03C00
E01C00
E01E00
E00F00
E00700
E00380
E003C0
E001E0
0000E0
0000F0
000078
ENDCHAR
STARTCHAR uni01A7
ENCODING 423
SWIDTH 666 0
DWIDTH 24 0
BBX 20 26 2 0
BITMAP
01FC00
0FFF00
1FFF80
3E07C0
3C01E0
7800E0
7000E0
7000E0
0000E0
0003C0
001FC0
01FF80
0FFE00
3FF000
7F0000
780000
F00000
E00070
E00070
E000F0
E000E0
7001E0
7C07C0
3FFF80
1FFF00
03F800
ENDCHAR
STARTCHAR uni01A8
ENCODING 424
SWIDTH 500 0
DWIDTH 18 0
BBX 15 19 1 0
BITMAP
07E0
1FF8
3FFC
7C1E
700E
700E
001E
00FE
0FFC
3FF0
7F80
F800
E000
E00E
E00E
F83C
7FFC
3FF8
0FE0
ENDCHAR
STARTCHAR uni01A9
ENCODING 425
SWIDTH 611 0
DWIDTH 22 0
BBX 18 26 2 0
BITMAP
FFFF80
FFFF80
FFFF80
F00000
780000
3C0000
1E0000
0E0000
070000
038000
03C000
01E000
00F000
00E000
01C000
038000
078000
0F0000
1E0000
1C0000
380000
700000
F00000
FFFFC0
FFFFC0
FFFFC0
ENDCHAR
STARTCHAR uni01AA
ENCODING 426
SWIDTH 416 0
DWIDTH 15 0
BBX 16 33 -1 -7
BITMAP
1F00
3FC0
70E0
E060
E070
E070
E070
70F0
3FF0
1FF0
0070
0070
0070
0070
0070
0070
0070
0070
0070
0070
0070
0070
0070
0070
0070
0070
0070
0070
0070
0078
003F
003F
001F
ENDCHAR
STARTCHAR uni01AB
ENCODING 427
SWIDTH 277 0
DWIDTH 10 0
BBX 8 31 1 -7
BITMAP
38
38
38
38
38
FF
FF
FF
38
38
38
38
38
38
38
38
38
38
38
38
38
3F
1F
0F
07
07
07
0F
7E
7E
7C
ENDCHAR
STARTCHAR uni01AC
ENCODING 428
SWIDTH 620 0
DWIDTH 22 0
BBX 21 26 1 0
BITMAP
1FFFF8
7FFFF8
FFFFF8
E07000
E07000
E07000
E07000
F07000
007000
007000
007000
007000
007000
007000
007000
007000
007000
007000
007000
007000
007000
007000
007000
007000
007000
007000
ENDCHAR
STARTCHAR uni01AD
ENCODING 429
SWIDTH 277 0
DWIDTH 10 0
BBX 9 26 1 0
BITMAP
0F80
1F80
3F80
3C00
3800
3800
3800
FF00
FF00
FF00
3800
3800
3800
3800
3800
3800
3800
3800
3800
3800
3800
3800
3800
3F00
1F00
0F00
ENDCHAR
STARTCHAR uni01AE
ENCODING 430
SWIDTH 610 0
DWIDTH 22 0
BBX 19 33 1 -7
BITMAP
FFFFE0
FFFFE0
FFFFE0
00E000
00E000
00E000
00E000
00E000
00E000
00E000
00E000
00E000
00E000
00E000
00E000
00E000
00E000
00E000
00E000
00E000
00E000
00E000
00E000
00E000
00E000
00E000
00E000
00E000
00E000
00F000
007E00
007E00
003E00
ENDCHAR
STARTCHAR Uhorn
ENCODING 431
SWIDTH 722 0
DWIDTH 26 0
BBX 22 32 3 0
BITMAP
00001C
00001C
00001C
00001C
00000C
00000C
E00078
E00070
E00070
E00070
E00070
E00070
E00070
E00070
E00070
E00070
E00070
E00070
E00070
E00070
E00070
E00070
E00070
E00070
E00070
F000F0
7000E0
7801E0
3E07C0
3FFFC0
0FFF00
03FC00
ENDCHAR
STARTCHAR uhorn
ENCODING 432
SWIDTH 556 0
DWIDTH 20 0
BBX 17 25 2 0
BITMAP
000380
000380
000380
000380
000180
000180
E00F00
E00E00
E00E00
E00E00
E00E00
E00E00
E00E00
E00E00
E00E00
E00E00
E00E00
E00E00
E00E00
E00E00
F01E00
F07E00
7FFE00
3FEE00
1F8E00
ENDCHAR
STARTCHAR uni01B1
ENCODING 433
SWIDTH 768 0
DWIDTH 28 0
BBX 22 26 3 0
BITMAP
FF8FFC
FF8FFC
FF8FFC
070780
1E01C0
1C00E0
380070
700078
700038
700038
E0001C
E0001C
E0001C
E0001C
E0001C
E0001C
E0001C
F0003C
700038
700038
780078
3C00F0
1F03E0
0FFFC0
07FF80
01FE00
ENDCHAR
STARTCHAR uni01B2
ENCODING 434
SWIDTH 722 0
DWIDTH 26 0
BBX 20 26 3 0
BITMAP
E00F80
E00FE0
E00FE0
E008F0
E00070
E00070
E00070
E00070
E00070
E00070
E00070
E00070
E00070
E00070
E00070
E000E0
E000E0
E000E0
E000E0
F001E0
7001C0
7803C0
3E0F80
3FFF00
0FFE00
03F800
ENDCHAR
STARTCHAR uni01B3
ENCODING 435
SWIDTH 771 0
DWIDTH 28 0
BBX 27 26 0 0
BITMAP
F0001F00
70001FC0
38003FE0
3C0079E0
1C0070E0
0E00E0E0
0F01E0E0
0701C1E0
03838000
03878000
01C70000
00EE0000
00EE0000
007C0000
00380000
00380000
00380000
00380000
00380000
00380000
00380000
00380000
00380000
00380000
00380000
00380000
ENDCHAR
STARTCHAR uni01B4
ENCODING 436
SWIDTH 500 0
DWIDTH 18 0
BBX 25 33 1 -7
BITMAP
00007C00
0000FE00
0001FF00
0001E780
0001C380
0003C100
00038000
E0038000
70070000
70070000
70070000
380E0000
380E0000
3C1E0000
1C1C0000
1C1C0000
1E3C0000
0E380000
0E380000
07700000
07700000
07F00000
03E00000
03E00000
03E00000
01C00000
01C00000
03800000
03800000
0F000000
7F000000
7E000000
7C000000
ENDCHAR
STARTCHAR uni01B5
ENCODING 437
SWIDTH 610 0
DWIDTH 22 0
BBX 18 26 2 0
BITMAP
7FFFC0
7FFFC0
7FFFC0
0003C0
000780
000700
000F00
001E00
001C00
003800
1FFF00
1FFF00
1FFF00
01C000
03C000
078000
070000
0E0000
1E0000
3C0000
380000
780000
F00000
FFFFC0
FFFFC0
FFFFC0
ENDCHAR
STARTCHAR uni01B6
ENCODING 438
SWIDTH 500 0
DWIDTH 18 0
BBX 16 19 1 0
BITMAP
7FFE
7FFE
7FFE
001E
003C
0078
00F0
7FFC
7FFC
7FFC
0700
0F00
1E00
3C00
7800
F000
FFFF
FFFF
FFFF
ENDCHAR
STARTCHAR uni01B7
ENCODING 439
SWIDTH 552 0
DWIDTH 20 0
BBX 17 33 1 -7
BITMAP
7FFF80
7FFF80
7FFF80
000780
000F00
001E00
001C00
003800
007000
00F000
01E000
03E000
03F000
03FC00
03FE00
003E00
000F00
000700
000780
000380
000380
000380
000380
000380
000380
000780
000700
000F00
800E00
F03E00
FFFC00
FFF800
1FE000
ENDCHAR
STARTCHAR uni01B8
ENCODING 440
SWIDTH 552 0
DWIDTH 20 0
BBX 17 33 2 -7
BITMAP
FFFF00
FFFF00
FFFF00
F00000
780000
3C0000
1C0000
0E0000
070000
078000
03C000
03E000
07E000
1FE000
3FE000
3E0000
780000
700000
F00000
E00000
E00000
E00000
E00000
E00000
E00000
F00000
700000
780000
380080
3E0780
1FFF80
0FFF80
03FC00
ENDCHAR
STARTCHAR uni01B9
ENCODING 441
SWIDTH 471 0
DWIDTH 17 0
BBX 15 26 1 -7
BITMAP
FFFC
FFFC
FFFC
7000
3800
3C00
1E00
0F00
0700
1F80
3C00
7800
7000
F000
E000
E000
E000
E000
E000
E000
F000
7802
7C0E
3FFE
1FFE
07F0
ENDCHAR
STARTCHAR uni01BA
ENCODING 442
SWIDTH 471 0
DWIDTH 17 0
BBX 15 26 1 -7
BITMAP
7FFE
7FFE
7FFE
001C
0038
0070
00E0
01E0
03F8
0078
001C
001C
001C
003C
03F8
1FF0
7FC0
7C00
F000
E000
E004
E00C
F83C
7FFC
3FF8
0FE0
ENDCHAR
STARTCHAR uni01BB
ENCODING 443
SWIDTH 556 0
DWIDTH 20 0
BBX 18 26 0 0
BITMAP
03F800
0FFE00
1FFF00
3E0F80
3C03C0
7801C0
7001C0
7001C0
0001C0
0001C0
000380
000780
7FFFC0
7FFFC0
7FFFC0
007C00
00F800
01E000
07C000
0F0000
1E0000
3C0000
780000
7FFFC0
FFFFC0
FFFFC0
ENDCHAR
STARTCHAR uni01BC
ENCODING 444
SWIDTH 556 0
DWIDTH 20 0
BBX 19 26 0 0
BITMAP
FFFFC0
FFFFC0
FFFFC0
380000
380000
380000
380000
380000
39F800
3FFE00
3FFF80
3E0780
3803C0
0001C0
0000E0
0000E0
0000E0
0000E0
7000E0
7001E0
3801C0
3C03C0
3E0F80
1FFF00
0FFE00
03F800
ENDCHAR
STARTCHAR uni01BD
ENCODING 445
SWIDTH 457 0
DWIDTH 16 0
BBX 15 19 0 0
BITMAP
FFFC
FFFC
FFFC
3800
3800
3800
3800
3FE0
3FF8
3FFC
001E
000E
000E
000E
801E
E03E
FFFC
FFF8
1FE0
ENDCHAR
STARTCHAR uni01BE
ENCODING 446
SWIDTH 538 0
DWIDTH 19 0
BBX 17 24 1 0
BITMAP
380000
380000
380000
380000
380000
FF0000
FF0000
FF0000
380000
380000
380000
3C0000
1FC000
1FFC00
07FE00
007F00
000780
000380
380380
380380
1E0F80
1FFF00
0FFE00
03F800
ENDCHAR
STARTCHAR uni01BF
ENCODING 447
SWIDTH 552 0
DWIDTH 20 0
BBX 16 26 2 -7
BITMAP
E3F0
EFFC
FFFE
FC1E
F00E
E007
E007
E007
E007
E007
E007
E007
E00E
E00E
E01C
E03C
E078
E0F0
E1E0
E7C0
EF80
FE00
FC00
F000
E000
E000
ENDCHAR
STARTCHAR uni01C0
ENCODING 448
SWIDTH 259 0
DWIDTH 9 0
BBX 3 33 3 -7
BITMAP
E0
E0
E0
E0
E0
E0
E0
E0
E0
E0
E0
E0
E0
E0
E0
E0
E0
E0
E0
E0
E0
E0
E0
E0
E0
E0
E0
E0
E0
E0
E0
E0
E0
ENDCHAR
STARTCHAR uni01C1
ENCODING 449
SWIDTH 259 0
DWIDTH 9 0
BBX 10 33 0 -7
BITMAP
E1C0
E1C0
E1C0
E1C0
E1C0
E1C0
E1C0
E1C0
E1C0
E1C0
E1C0
E1C0
E1C0
E1C0
E1C0
E1C0
E1C0
E1C0
E1C0
E1C0
E1C0
E1C0
E1C0
E1C0
E1C0
E1C0
E1C0
E1C0
E1C0
E1C0
E1C0
E1C0
E1C0
ENDCHAR
STARTCHAR uni01C2
ENCODING 450
SWIDTH 727 0
DWIDTH 26 0
BBX 19 33 4 -7
BITMAP
00E000
00E000
00E000
00E000
00E000
00E000
00E000
00E000
00E000
00E000
FFFFE0
FFFFE0
FFFFE0
00E000
00E000
00E000
00E000
00E000
FFFFE0
FFFFE0
FFFFE0
00E000
00E000
00E000
00E000
00E000
00E000
00E000
00E000
00E000
00E000
00E000
00E000
ENDCHAR
STARTCHAR uni01C3
ENCODING 451
SWIDTH 277 0
DWIDTH 10 0
BBX 3 26 3 0
BITMAP
E0
E0
E0
E0
E0
E0
E0
E0
E0
E0
E0
E0
E0
E0
E0
E0
E0
60
40
00
00
00
E0
E0
E0
E0
ENDCHAR
STARTCHAR uni01C4
ENCODING 452
SWIDTH 1294 0
DWIDTH 47 0
BBX 41 32 3 0
BITMAP
0000001C3C00
0000000E7000
00000007F000
00000007E000
00000003C000
000000000000
FFF800FFFF80
FFFE00FFFF80
FFFF80FFFF80
E00FC0000700
E001E0000F00
E000E0001E00
E000F0001C00
E00070003800
E00078007800
E0003800F000
E0003800E000
E0003801C000
E0003803C000
E00038078000
E00038070000
E000380F0000
E000381E0000
E000701C0000
E00070380000
E000F0780000
E000E0F00000
E001E0E00000
E00FC1C00000
FFFF81FFFF80
FFFE01FFFF80
FFF801FFFF80
ENDCHAR
STARTCHAR uni01C5
ENCODING 453
SWIDTH 1183 0
DWIDTH 43 0
BBX 39 26 3 0
BITMAP
FFF8003C78
FFFE001CE0
FFFF800FE0
E00FC00FC0
E001E00780
E000E00000
E000F00000
E00070FFFC
E00078FFFC
E00038FFFC
E000380038
E000380070
E0003800E0
E0003801E0
E0003803C0
E000380780
E000380F00
E000701E00
E000701C00
E000F03800
E000E07000
E001E0F000
E00FC1E000
FFFF81FFFE
FFFE01FFFE
FFF801FFFE
ENDCHAR
STARTCHAR uni01C6
ENCODING 454
SWIDTH 1037 0
DWIDTH 37 0
BBX 34 26 1 0
BITMAP
0007078F00
000703CE00
000701FC00
000700FC00
0007007800
0007000000
0007000000
07E71FFF80
1FFF1FFF80
3FFF1FFF80
3C1F000780
700F000F00
7007000E00
E007001C00
E007003800
E007007800
E00700F000
E00701E000
E00703C000
E007078000
F007070000
700F0E0000
7C3F1C0000
3FFF3FFFC0
1FF73FFFC0
07C73FFFC0
ENDCHAR
STARTCHAR uni01C7
ENCODING 455
SWIDTH 1046 0
DWIDTH 38 0
BBX 32 26 3 0
BITMAP
E0000007
E0000007
E0000007
E0000007
E0000007
E0000007
E0000007
E0000007
E0000007
E0000007
E0000007
E0000007
E0000007
E0000007
E0000007
E0000007
E0000007
E0000007
E0003807
E0003807
E000380E
E000380E
E0003E1E
FFFF1FFC
FFFF0FF8
FFFF03F0
ENDCHAR
STARTCHAR uni01C8
ENCODING 456
SWIDTH 786 0
DWIDTH 28 0
BBX 22 33 3 -7
BITMAP
E0001C
E0001C
E0001C
E00000
E00000
E00000
E00000
E0001C
E0001C
E0001C
E0001C
E0001C
E0001C
E0001C
E0001C
E0001C
E0001C
E0001C
E0001C
E0001C
E0001C
E0001C
E0001C
FFFF1C
FFFF1C
FFFF1C
00001C
00001C
00001C
00003C
0001FC
0001F8
0001F0
ENDCHAR
STARTCHAR uni01C9
ENCODING 457
SWIDTH 423 0
DWIDTH 15 0
BBX 10 33 2 -7
BITMAP
E1C0
E1C0
E1C0
E000
E000
E000
E000
E1C0
E1C0
E1C0
E1C0
E1C0
E1C0
E1C0
E1C0
E1C0
E1C0
E1C0
E1C0
E1C0
E1C0
E1C0
E1C0
E1C0
E1C0
E1C0
01C0
01C0
01C0
03C0
1F80
1F80
1F00
ENDCHAR
STARTCHAR uni01CA
ENCODING 458
SWIDTH 1183 0
DWIDTH 43 0
BBX 37 26 3 0
BITMAP
F000700038
F000700038
F800700038
FC00700038
FC00700038
FE00700038
EE00700038
E700700038
E780700038
E380700038
E1C0700038
E1E0700038
E0E0700038
E070700038
E078700038
E038700038
E01C700038
E01E700038
E00E71C038
E00771C078
E007F1C070
E003F1C070
E003F1E0F0
E001F0FFE0
E000F07FC0
E000F01F80
ENDCHAR
STARTCHAR uni01CB
ENCODING 459
SWIDTH 905 0
DWIDTH 33 0
BBX 27 33 3 -7
BITMAP
F00070E0
F00070E0
F80070E0
FC007000
FC007000
FE007000
EE007000
E70070E0
E78070E0
E38070E0
E1C070E0
E1E070E0
E0E070E0
E07070E0
E07870E0
E03870E0
E01C70E0
E01E70E0
E00E70E0
E00770E0
E007F0E0
E003F0E0
E003F0E0
E001F0E0
E000F0E0
E000F0E0
000000E0
000000E0
000000E0
000000E0
00000FE0
00000FC0
00000F80
ENDCHAR
STARTCHAR uni01CC
ENCODING 460
SWIDTH 753 0
DWIDTH 27 0
BBX 22 33 2 -7
BITMAP
00001C
00001C
00001C
000000
000000
000000
000000
E3F01C
EFF81C
FFFC1C
FC3C1C
F01E1C
E00E1C
E00E1C
E00E1C
E00E1C
E00E1C
E00E1C
E00E1C
E00E1C
E00E1C
E00E1C
E00E1C
E00E1C
E00E1C
E00E1C
00001C
00001C
00001C
00003C
0001F8
0001F8
0001F0
ENDCHAR
STARTCHAR uni01CD
ENCODING 461
SWIDTH 666 0
DWIDTH 24 0
BBX 24 32 0 0
BITMAP
01E3C0
00E780
007700
007E00
003C00
000000
003C00
007C00
007E00
006E00
00E600
00C700
01C700
01C380
018380
038180
0381C0
0701C0
0700E0
0700E0
0E00E0
0FFFF0
0FFFF0
1FFFF8
1C0038
380038
38001C
38001C
70001E
70000E
70000E
E00007
ENDCHAR
STARTCHAR uni01CE
ENCODING 462
SWIDTH 556 0
DWIDTH 20 0
BBX 16 26 1 0
BITMAP
0F1E
073C
03B8
01F0
01E0
0000
0000
07F0
1FFC
3FFE
3C0F
7007
7007
0007
03FF
1FFF
3FFF
7C07
F007
E007
E007
E00F
F83F
7FFF
3FF7
1FC7
ENDCHAR
STARTCHAR uni01CF
ENCODING 463
SWIDTH 277 0
DWIDTH 9 0
BBX 11 32 -1 0
BITMAP
F1E0
7BC0
3B80
1F00
1F00
0000
0E00
0E00
0E00
0E00
0E00
0E00
0E00
0E00
0E00
0E00
0E00
0E00
0E00
0E00
0E00
0E00
0E00
0E00
0E00
0E00
0E00
0E00
0E00
0E00
0E00
0E00
ENDCHAR
STARTCHAR uni01D0
ENCODING 464
SWIDTH 228 0
DWIDTH 8 0
BBX 11 26 -2 0
BITMAP
F1E0
79C0
3B80
1F00
1F00
0000
0000
0E00
0E00
0E00
0E00
0E00
0E00
0E00
0E00
0E00
0E00
0E00
0E00
0E00
0E00
0E00
0E00
0E00
0E00
0E00
ENDCHAR
STARTCHAR uni01D1
ENCODING 465
SWIDTH 777 0
DWIDTH 28 0
BBX 24 32 2 0
BITMAP
01E3C0
00F380
007700
003E00
001E00
000000
00FF00
03FFC0
07FFE0
1F81F8
1E0078
3C003C
78001E
70000E
70000E
E00007
E00007
E00007
E00007
E00007
E00007
E00007
E00007
70000E
70000E
78001E
3C003C
1E0078
1F81F8
0FFFE0
03FFC0
00FF00
ENDCHAR
STARTCHAR uni01D2
ENCODING 466
SWIDTH 556 0
DWIDTH 20 0
BBX 17 26 1 0
BITMAP
1E3C00
0F3800
077000
03E000
03E000
000000
000000
07F000
1FFC00
3FFE00
3C1E00
780F00
700700
E00380
E00380
E00380
E00380
E00380
E00380
E00380
700700
780F00
3C1E00
3FFE00
1FFC00
07F000
ENDCHAR
STARTCHAR uni01D3
ENCODING 467
SWIDTH 722 0
DWIDTH 26 0
BBX 20 32 3 0
BITMAP
0F0E00
039C00
03F800
01F800
00F000
000000
E00070
E00070
E00070
E00070
E00070
E00070
E00070
E00070
E00070
E00070
E00070
E00070
E00070
E00070
E00070
E00070
E00070
E00070
E00070
F000F0
7000E0
7801E0
3E07C0
3FFFC0
0FFF00
03FC00
ENDCHAR
STARTCHAR uni01D4
ENCODING 468
SWIDTH 556 0
DWIDTH 20 0
BBX 15 26 2 0
BITMAP
3C78
1E70
0EE0
07C0
07C0
0000
0000
E00E
E00E
E00E
E00E
E00E
E00E
E00E
E00E
E00E
E00E
E00E
E00E
E00E
E00E
F01E
F07E
7FFE
3FEE
1F8E
ENDCHAR
STARTCHAR uni01D5
ENCODING 469
SWIDTH 722 0
DWIDTH 26 0
BBX 20 32 3 0
BITMAP
07FF00
07FF00
000000
038E00
038E00
000000
E00070
E00070
E00070
E00070
E00070
E00070
E00070
E00070
E00070
E00070
E00070
E00070
E00070
E00070
E00070
E00070
E00070
E00070
E00070
F000F0
7000E0
7801E0
3E07C0
3FFFC0
0FFF00
03FC00
ENDCHAR
STARTCHAR uni01D6
ENCODING 470
SWIDTH 556 0
DWIDTH 20 0
BBX 15 30 2 0
BITMAP
3FF8
3FF8
3FF8
0000
1C70
1C70
1C70
1C70
0000
0000
0000
E00E
E00E
E00E
E00E
E00E
E00E
E00E
E00E
E00E
E00E
E00E
E00E
E00E
E00E
F01E
F07E
7FFE
3FEE
1F8E
ENDCHAR
STARTCHAR uni01D7
ENCODING 471
SWIDTH 722 0
DWIDTH 26 0
BBX 20 33 3 0
BITMAP
007800
007000
00E000
000000
070E00
070E00
000000
E00070
E00070
E00070
E00070
E00070
E00070
E00070
E00070
E00070
E00070
E00070
E00070
E00070
E00070
E00070
E00070
E00070
E00070
E00070
F000F0
7000E0
7801E0
3E07C0
3FFFC0
0FFF00
03FC00
ENDCHAR
STARTCHAR uni01D8
ENCODING 472
SWIDTH 556 0
DWIDTH 20 0
BBX 15 30 2 0
BITMAP
01E0
01C0
0380
0000
1C38
1C38
1C38
1C38
0000
0000
0000
E00E
E00E
E00E
E00E
E00E
E00E
E00E
E00E
E00E
E00E
E00E
E00E
E00E
E00E
F01E
F07E
7FFE
3FEE
1F8E
ENDCHAR
STARTCHAR uni01D9
ENCODING 473
SWIDTH 722 0
DWIDTH 26 0
BBX 20 32 3 0
BITMAP
07DF00
00F800
000000
038E00
038E00
000000
E00070
E00070
E00070
E00070
E00070
E00070
E00070
E00070
E00070
E00070
E00070
E00070
E00070
E00070
E00070
E00070
E00070
E00070
E00070
F000F0
7000E0
7801E0
3E07C0
3FFFC0
0FFF00
03FC00
ENDCHAR
STARTCHAR uni01DA
ENCODING 474
SWIDTH 556 0
DWIDTH 20 0
BBX 15 32 2 0
BITMAP
3C78
1EF0
0EE0
07C0
07C0
0000
0000
1C70
1C70
1C70
1C70
0000
0000
E00E
E00E
E00E
E00E
E00E
E00E
E00E
E00E
E00E
E00E
E00E
E00E
E00E
E00E
F01E
F07E
7FFE
3FEE
1F8E
ENDCHAR
STARTCHAR uni01DB
ENCODING 475
SWIDTH 722 0
DWIDTH 26 0
BBX 20 33 3 0
BITMAP
01E000
007000
003000
000000
038E00
038E00
000000
E00070
E00070
E00070
E00070
E00070
E00070
E00070
E00070
E00070
E00070
E00070
E00070
E00070
E00070
E00070
E00070
E00070
E00070
E00070
F000F0
7000E0
7801E0
3E07C0
3FFFC0
0FFF00
03FC00
ENDCHAR
STARTCHAR uni01DC
ENCODING 476
SWIDTH 556 0
DWIDTH 20 0
BBX 15 30 2 0
BITMAP
0F00
0380
0180
0000
1C70
1C70
1C70
1C70
0000
0000
0000
E00E
E00E
E00E
E00E
E00E
E00E
E00E
E00E
E00E
E00E
E00E
E00E
E00E
E00E
F01E
F07E
7FFE
3FEE
1F8E
ENDCHAR
STARTCHAR uni01DD
ENCODING 477
SWIDTH 556 0
DWIDTH 20 0
BBX 17 19 1 0
BITMAP
07E000
1FF800
3FFE00
781E00
F00F00
E00700
000380
000380
000380
FFFF80
FFFF80
FFFF80
E00380
700700
700700
7C1E00
3FFE00
1FFC00
07F000
ENDCHAR
STARTCHAR uni01DE
ENCODING 478
SWIDTH 666 0
DWIDTH 24 0
BBX 24 32 0 0
BITMAP
01FFC0
01FFC0
000000
00E380
00E380
000000
003C00
007C00
007E00
006E00
00E600
00C700
01C700
01C380
018380
038180
0381C0
0701C0
0700E0
0700E0
0E00E0
0FFFF0
0FFFF0
1FFFF8
1C0038
380038
38001C
38001C
70001E
70000E
70000E
E00007
ENDCHAR
STARTCHAR uni01DF
ENCODING 479
SWIDTH 556 0
DWIDTH 20 0
BBX 16 30 1 0
BITMAP
0FFE
0FFE
0FFE
0000
071C
071C
071C
071C
0000
0000
0000
07F0
1FFC
3FFE
3C0F
7007
7007
0007
03FF
1FFF
3FFF
7C07
F007
E007
E007
E00F
F83F
7FFF
3FF7
1FC7
ENDCHAR
STARTCHAR uni01E0
ENCODING 480
SWIDTH 666 0
DWIDTH 24 0
BBX 24 32 0 0
BITMAP
01FFC0
01FFC0
000000
001C00
001C00
000000
003C00
007C00
007E00
006E00
00E600
00C700
01C700
01C380
018380
038180
0381C0
0701C0
0700E0
0700E0
0E00E0
0FFFF0
0FFFF0
1FFFF8
1C0038
380038
38001C
38001C
70001E
70000E
70000E
E00007
ENDCHAR
STARTCHAR uni01E1
ENCODING 481
SWIDTH 556 0
DWIDTH 20 0
BBX 16 30 1 0
BITMAP
0FFE
0FFE
0FFE
0000
00E0
00E0
00E0
00E0
0000
0000
0000
07F0
1FFC
3FFE
3C0F
7007
7007
0007
03FF
1FFF
3FFF
7C07
F007
E007
E007
E00F
F83F
7FFF
3FF7
1FC7
ENDCHAR
STARTCHAR uni01E2
ENCODING 482
SWIDTH 1000 0
DWIDTH 36 0
BBX 34 31 0 0
BITMAP
00001FFC00
00001FFC00
00001FFC00
0000000000
0000000000
0001FFFF80
0003FFFF80
0003FFFF80
0007700000
0006700000
000E700000
001C700000
001C700000
0038700000
0038700000
0070700000
00607FFF00
00E07FFF00
01C07FFF00
01C0700000
03FFF00000
03FFF00000
07FFF00000
0F00700000
0E00700000
1C00700000
1C00700000
3800700000
78007FFFC0
70007FFFC0
F0007FFFC0
ENDCHAR
STARTCHAR uni01E3
ENCODING 483
SWIDTH 889 0
DWIDTH 32 0
BBX 29 25 1 0
BITMAP
003FF800
003FF800
003FF800
00000000
00000000
00000000
07F07E00
1FF9FF80
3FFFFFC0
3C1FC1E0
700F80F0
700F0070
000E0038
03FE0038
1FFFFFF8
3FFFFFF8
7C0FFFF8
F00E0000
E00E0000
E01F0038
E01F8078
F07FC0F0
7FFBFFE0
3FF1FFC0
1FC07F00
ENDCHAR
STARTCHAR uni01E4
ENCODING 484
SWIDTH 777 0
DWIDTH 28 0
BBX 26 26 2 0
BITMAP
007F8000
03FFE000
07FFF800
1F80FC00
1E001E00
3C000E00
78000700
70000700
70000000
E0000000
E0000000
E0000000
E0000000
E003FF00
E003FF00
E003FF00
E0000700
7003FFC0
7003FFC0
7803FFC0
3C000F00
1E003F00
0F80FF00
07FFF700
03FFE700
007F8300
ENDCHAR
STARTCHAR uni01E5
ENCODING 485
SWIDTH 556 0
DWIDTH 20 0
BBX 17 26 1 -7
BITMAP
07E700
1FFF00
3FFF00
3C3F00
700F00
700700
E00700
E00700
E00700
E00700
E00700
E00700
E00700
F00F00
701F00
7C3F00
3FFF00
1FF700
07C700
000700
FFFF80
FFFF80
001E00
3FFC00
3FF800
3FE000
ENDCHAR
STARTCHAR Gcaron
ENCODING 486
SWIDTH 777 0
DWIDTH 28 0
BBX 24 32 2 0
BITMAP
01E3C0
00F380
007700
003E00
001E00
000000
007F80
03FFE0
07FFF8
0F80FC
1E001E
3C000E
780007
700007
700000
E00000
E00000
E00000
E00000
E003FF
E003FF
E003FF
E00007
700007
700007
780007
3C000F
1E001F
0F80FF
07FFFF
03FFE7
007F83
ENDCHAR
STARTCHAR gcaron
ENCODING 487
SWIDTH 556 0
DWIDTH 20 0
BBX 16 33 1 -7
BITMAP
1E3C
0E78
0770
07E0
03C0
0000
0000
07E7
1FFF
3FFF
3C1F
700F
7007
E007
E007
E007
E007
E007
E007
E007
F007
700F
7C3F
3FFF
1FF7
07C7
0007
7007
700E
781E
3FFC
1FF8
07F0
ENDCHAR
STARTCHAR uni01E8
ENCODING 488
SWIDTH 666 0
DWIDTH 24 0
BBX 21 32 3 0
BITMAP
078F00
03CE00
01DC00
00F800
00F800
000000
E000F0
E001E0
E003C0
E00780
E00F00
E01E00
E03C00
E07800
E0F000
E1E000
E3C000
E7C000
EFE000
FE7000
FC7800
F83800
F01C00
E01E00
E00F00
E00700
E00380
E003C0
E001C0
E000E0
E000F0
E00078
ENDCHAR
STARTCHAR uni01E9
ENCODING 489
SWIDTH 500 0
DWIDTH 18 0
BBX 15 32 2 0
BITMAP
3C78
1E70
0EE0
07E0
03C0
0000
E000
E000
E000
E000
E000
E000
E000
E03C
E078
E0F0
E1E0
E3C0
E780
EF00
FF00
FF00
FB80
F380
E1C0
E0E0
E0E0
E070
E078
E038
E01C
E01E
ENDCHAR
STARTCHAR uni01EA
ENCODING 490
SWIDTH 777 0
DWIDTH 28 0
BBX 24 33 2 -7
BITMAP
00FF00
03FFC0
0FFFF0
1F81F8
1E0078
3C003C
78001E
70000E
70000E
E00007
E00007
E00007
E00007
E00007
E00007
E00007
E00007
70000E
70000E
78001E
3C003C
1E0078
1F81F8
07FFE0
03FFC0
00FF00
006000
006000
006000
006000
007100
003F00
001E00
ENDCHAR
STARTCHAR uni01EB
ENCODING 491
SWIDTH 556 0
DWIDTH 20 0
BBX 17 26 1 -7
BITMAP
07F000
1FFC00
3FFE00
3C1E00
780F00
700700
E00380
E00380
E00380
E00380
E00380
E00380
E00380
700700
780F00
3C1E00
3FFE00
0FFC00
03F000
030000
030000
030000
030000
038800
01F800
00F000
ENDCHAR
STARTCHAR uni01EC
ENCODING 492
SWIDTH 777 0
DWIDTH 28 0
BBX 24 38 2 -7
BITMAP
01FFC0
01FFC0
01FFC0
000000
000000
00FF00
03FFC0
0FFFF0
1F81F8
1E0078
3C003C
78001E
70000E
70000E
E00007
E00007
E00007
E00007
E00007
E00007
E00007
E00007
70000E
70000E
78001E
3C003C
1E0078
1F81F8
07FFE0
03FFC0
00FF00
006000
006000
006000
006000
007100
003F00
001E00
ENDCHAR
STARTCHAR uni01ED
ENCODING 493
SWIDTH 556 0
DWIDTH 20 0
BBX 17 32 1 -7
BITMAP
1FFC00
1FFC00
1FFC00
000000
000000
000000
07F000
1FFC00
3FFE00
3C1E00
780F00
700700
E00380
E00380
E00380
E00380
E00380
E00380
E00380
700700
780F00
3C1E00
3FFE00
0FFC00
03F000
030000
030000
030000
030000
038800
01F800
00F000
ENDCHAR
STARTCHAR uni01EE
ENCODING 494
SWIDTH 552 0
DWIDTH 20 0
BBX 17 39 1 -7
BITMAP
0F1E00
073C00
03B800
01F000
01E000
000000
7FFF80
7FFF80
7FFF80
000780
000F00
001E00
001C00
003800
007000
00F000
01E000
03E000
03F000
03FC00
03FE00
003E00
000F00
000700
000780
000380
000380
000380
000380
000380
000380
000780
000700
000F00
800E00
F03E00
FFFC00
FFF800
1FE000
ENDCHAR
STARTCHAR uni01EF
ENCODING 495
SWIDTH 471 0
DWIDTH 17 0
BBX 15 33 1 -7
BITMAP
3C78
1E70
0EE0
07E0
03C0
0000
0000
7FFE
7FFE
7FFE
001C
0038
0078
00F0
01E0
01C0
03F0
0078
003C
001C
001E
000E
000E
000E
000E
000E
000E
001E
803C
E07C
FFF8
FFF0
1F80
ENDCHAR
STARTCHAR uni01F0
ENCODING 496
SWIDTH 228 0
DWIDTH 8 0
BBX 11 34 -2 -7
BITMAP
F1E0
7BC0
3B80
1F00
1F00
0000
0000
0000
0E00
0E00
0E00
0E00
0E00
0E00
0E00
0E00
0E00
0E00
0E00
0E00
0E00
0E00
0E00
0E00
0E00
0E00
0E00
0E00
0E00
0E00
1E00
FC00
FC00
F800
ENDCHAR
STARTCHAR uni01F1
ENCODING 497
SWIDTH 1294 0
DWIDTH 47 0
BBX 41 26 3 0
BITMAP
FFF800FFFF80
FFFE00FFFF80
FFFF80FFFF80
E00FC0000700
E001E0000F00
E000E0001E00
E000F0001C00
E00070003800
E00078007800
E0003800F000
E0003800E000
E0003801C000
E0003803C000
E00038078000
E00038070000
E000380F0000
E000381E0000
E000701C0000
E00070380000
E000F0780000
E000E0F00000
E001E0E00000
E00FC1C00000
FFFF81FFFF80
FFFE01FFFF80
FFF801FFFF80
ENDCHAR
STARTCHAR uni01F2
ENCODING 498
SWIDTH 1183 0
DWIDTH 43 0
BBX 39 26 3 0
BITMAP
FFF8000000
FFFE000000
FFFF800000
E00FC00000
E001E00000
E000E00000
E000F00000
E00070FFFC
E00078FFFC
E00038FFFC
E000380038
E000380070
E0003800E0
E0003801E0
E0003803C0
E000380780
E000380F00
E000701E00
E000701C00
E000F03800
E000E07000
E001E0F000
E00FC1E000
FFFF81FFFE
FFFE01FFFE
FFF801FFFE
ENDCHAR
STARTCHAR uni01F3
ENCODING 499
SWIDTH 1037 0
DWIDTH 37 0
BBX 34 26 1 0
BITMAP
0007000000
0007000000
0007000000
0007000000
0007000000
0007000000
0007000000
07E71FFF80
1FFF1FFF80
3FFF1FFF80
3C1F000780
700F000F00
7007000E00
E007001C00
E007003800
E007007800
E00700F000
E00701E000
E00703C000
E007078000
F007070000
700F0E0000
7C3F1C0000
3FFF3FFFC0
1FF73FFFC0
07C73FFFC0
ENDCHAR
STARTCHAR uni01F4
ENCODING 500
SWIDTH 777 0
DWIDTH 28 0
BBX 24 32 2 0
BITMAP
000780
000F00
000E00
001C00
001C00
000000
007F80
03FFE0
07FFF8
0F80FC
1E001E
3C000E
780007
700007
700000
E00000
E00000
E00000
E00000
E003FF
E003FF
E003FF
E00007
700007
700007
780007
3C000F
1E001F
0F80FF
07FFFF
03FFE7
007F83
ENDCHAR
STARTCHAR uni01F5
ENCODING 501
SWIDTH 556 0
DWIDTH 20 0
BBX 16 33 1 -7
BITMAP
01F0
01C0
01C0
0380
0300
0000
0000
07E7
1FFF
3FFF
3C1F
700F
7007
E007
E007
E007
E007
E007
E007
E007
F007
700F
7C3F
3FFF
1FF7
07C7
0007
7007
700E
781E
3FFC
1FF8
07F0
ENDCHAR
STARTCHAR uni01F6
ENCODING 502
SWIDTH 1044 0
DWIDTH 38 0
BBX 32 26 3 0
BITMAP
E0007000
E0007000
E0007000
E0007000
E0007000
E0007000
E0007000
E0007007
E0007007
E0007007
E0007007
FFFFF007
FFFFF007
FFFFF007
E0007007
E0007007
E0007007
E0007007
E0007007
E0007007
E000700F
E000780E
E0003C1E
E0001FFC
E0000FF8
E00003E0
ENDCHAR
STARTCHAR uni01F7
ENCODING 503
SWIDTH 552 0
DWIDTH 20 0
BBX 16 33 2 -7
BITMAP
E3F0
EFFC
FFFE
FC1E
F00E
E007
E007
E007
E007
E007
E007
E007
E00E
E00E
E01C
E03C
E078
E0F0
E1E0
E7C0
EF80
FE00
FC00
F000
E000
E000
E000
E000
E000
E000
E000
E000
E000
ENDCHAR
STARTCHAR uni01F8
ENCODING 504
SWIDTH 722 0
DWIDTH 26 0
BBX 20 32 3 0
BITMAP
01E000
00E000
007000
007000
003800
000000
F00070
F00070
F80070
FC0070
FC0070
FE0070
EE0070
E70070
E78070
E38070
E1C070
E1E070
E0E070
E07070
E07870
E03870
E01C70
E01E70
E00E70
E00770
E007F0
E003F0
E003F0
E001F0
E000F0
E000F0
ENDCHAR
STARTCHAR uni01F9
ENCODING 505
SWIDTH 556 0
DWIDTH 20 0
BBX 15 26 2 0
BITMAP
0F00
0700
0380
0380
01C0
0000
0000
E3F0
EFF8
FFFC
FC3C
F01E
E00E
E00E
E00E
E00E
E00E
E00E
E00E
E00E
E00E
E00E
E00E
E00E
E00E
E00E
ENDCHAR
STARTCHAR Aringacute
ENCODING 506
SWIDTH 666 0
DWIDTH 24 0
BBX 24 33 0 0
BITMAP
001F00
001C00
003800
000000
003C00
006600
004200
004200
006600
003C00
007C00
007E00
00EE00
00E600
00C700
01C300
01C380
038380
0381C0
0301C0
0700E0
0700E0
0E00E0
0FFFF0
1FFFF0
1FFFF8
1C0038
38001C
38001C
78001C
70000E
70000E
E00007
ENDCHAR
STARTCHAR aringacute
ENCODING 507
SWIDTH 556 0
DWIDTH 20 0
BBX 16 30 1 0
BITMAP
0078
00F0
00E0
00C0
01C0
0000
01E0
0330
0210
0210
0330
07F0
1FFC
3FFE
3C0F
7007
7007
0007
03FF
1FFF
3FFF
7C07
F007
E007
E007
E00F
F83F
7FFF
3FF7
1FC7
ENDCHAR
STARTCHAR AEacute
ENCODING 508
SWIDTH 1000 0
DWIDTH 36 0
BBX 34 32 0 0
BITMAP
000003C000
0000038000
0000078000
0000070000
00000E0000
0000000000
0001FFFF80
0003FFFF80
0003FFFF80
0007700000
0006700000
000E700000
001C700000
001C700000
0038700000
0038700000
0070700000
00607FFF00
00E07FFF00
01C07FFF00
01C0700000
03FFF00000
03FFF00000
07FFF00000
0F00700000
0E00700000
1C00700000
1C00700000
3800700000
78007FFFC0
70007FFFC0
F0007FFFC0
ENDCHAR
STARTCHAR aeacute
ENCODING 509
SWIDTH 889 0
DWIDTH 32 0
BBX 29 26 1 0
BITMAP
0001E000
0003C000
00038000
00070000
00070000
00000000
00000000
07F07E00
1FF9FF80
3FFFFFC0
3C1FC1E0
700F80F0
700F0070
000E0038
03FE0038
1FFFFFF8
3FFFFFF8
7C0FFFF8
F00E0000
E00E0000
E01F0038
E01F8078
F07FC0F0
7FFBFFE0
3FF1FFC0
1FC07F00
ENDCHAR
STARTCHAR Oslashacute
ENCODING 510
SWIDTH 777 0
DWIDTH 28 0
BBX 24 32 2 0
BITMAP
000F00
000E00
001C00
001C00
003800
000000
00FF03
03FFC7
07FFEE
1F81FC
1E0078
3C003C
78007E
7000CE
70018E
E00307
E00707
E00E07
E01C07
E03807
E07007
E0E007
E0C007
71800E
73000E
7E001E
3C003C
1E0078
3F81F8
77FFE0
E3FFC0
C0FF00
ENDCHAR
STARTCHAR oslashacute
ENCODING 511
SWIDTH 556 0
DWIDTH 20 0
BBX 17 27 1 -1
BITMAP
007800
007000
00E000
00E000
01C000
000000
000100
07F380
1FFF00
3FFE00
3C1E00
780F00
701F00
E03380
E07380
E0E380
E1C380
E38380
E70380
EE0380
7C0700
780F00
7C1E00
3FFE00
7FFC00
E7F000
400000
ENDCHAR
STARTCHAR uni0200
ENCODING 512
SWIDTH 666 0
DWIDTH 24 0
BBX 24 32 0 0
BITMAP
079E00
038E00
03CF00
01C700
00E380
000000
003C00
007C00
007E00
006E00
00E600
00C700
01C700
01C380
018380
038180
0381C0
0701C0
0700E0
0700E0
0E00E0
0FFFF0
0FFFF0
1FFFF8
1C0038
380038
38001C
38001C
70001E
70000E
70000E
E00007
ENDCHAR
STARTCHAR uni0201
ENCODING 513
SWIDTH 556 0
DWIDTH 20 0
BBX 16 26 1 0
BITMAP
3CF0
1C70
1E78
0E38
0F3C
0000
0000
07F0
1FFC
3FFE
3C0F
7007
7007
0007
03FF
1FFF
3FFF
7C07
F007
E007
E007
E00F
F83F
7FFF
3FF7
1FC7
ENDCHAR
STARTCHAR uni0202
ENCODING 514
SWIDTH 666 0
DWIDTH 24 0
BBX 24 32 0 0
BITMAP
007C00
00FF00
01C300
018380
000000
000000
003C00
007C00
007E00
006E00
00E600
00C700
01C700
01C380
018380
038180
0381C0
0701C0
0700E0
0700E0
0E00E0
0FFFF0
0FFFF0
1FFFF8
1C0038
380038
38001C
38001C
70001E
70000E
70000E
E00007
ENDCHAR
STARTCHAR uni0203
ENCODING 515
SWIDTH 556 0
DWIDTH 20 0
BBX 16 25 1 0
BITMAP
03E0
07F8
0E18
0C0C
0000
0000
07F0
1FFC
3FFE
3C0F
7007
7007
0007
03FF
1FFF
3FFF
7C07
F007
E007
E007
E00F
F83F
7FFF
3FF7
1FC7
ENDCHAR
STARTCHAR uni0204
ENCODING 516
SWIDTH 666 0
DWIDTH 24 0
BBX 19 32 3 0
BITMAP
1E7800
0E3800
0F3C00
071C00
079E00
000000
FFFFC0
FFFFC0
FFFFC0
E00000
E00000
E00000
E00000
E00000
E00000
E00000
E00000
FFFF80
FFFF80
FFFF80
E00000
E00000
E00000
E00000
E00000
E00000
E00000
E00000
E00000
FFFFE0
FFFFE0
FFFFE0
ENDCHAR
STARTCHAR uni0205
ENCODING 517
SWIDTH 556 0
DWIDTH 20 0
BBX 17 26 1 0
BITMAP
3CF000
1C7000
1E7800
0E3800
0F3C00
000000
000000
03F000
1FF800
3FFE00
3C1E00
780F00
700700
E00380
E00380
FFFF80
FFFF80
FFFF80
E00000
E00000
700380
780780
3C0F00
3FFE00
0FFC00
03F000
ENDCHAR
STARTCHAR uni0206
ENCODING 518
SWIDTH 666 0
DWIDTH 24 0
BBX 19 32 3 0
BITMAP
01F000
07F800
061C00
0C0C00
000000
000000
FFFFC0
FFFFC0
FFFFC0
E00000
E00000
E00000
E00000
E00000
E00000
E00000
E00000
FFFF80
FFFF80
FFFF80
E00000
E00000
E00000
E00000
E00000
E00000
E00000
E00000
E00000
FFFFE0
FFFFE0
FFFFE0
ENDCHAR
STARTCHAR uni0207
ENCODING 519
SWIDTH 556 0
DWIDTH 20 0
BBX 17 25 1 0
BITMAP
03F000
07F800
0E1C00
0C0C00
000000
000000
03F000
1FF800
3FFE00
3C1E00
780F00
700700
E00380
E00380
FFFF80
FFFF80
FFFF80
E00000
E00000
700380
780780
3C0F00
3FFE00
0FFC00
03F000
ENDCHAR
STARTCHAR uni0208
ENCODING 520
SWIDTH 277 0
DWIDTH 9 0
BBX 12 32 -2 0
BITMAP
F3C0
F3C0
79E0
38E0
3CF0
0000
0700
0700
0700
0700
0700
0700
0700
0700
0700
0700
0700
0700
0700
0700
0700
0700
0700
0700
0700
0700
0700
0700
0700
0700
0700
0700
ENDCHAR
STARTCHAR uni0209
ENCODING 521
SWIDTH 228 0
DWIDTH 8 0
BBX 12 26 -3 0
BITMAP
F3C0
71C0
79E0
38E0
1C70
0000
0000
0700
0700
0700
0700
0700
0700
0700
0700
0700
0700
0700
0700
0700
0700
0700
0700
0700
0700
0700
ENDCHAR
STARTCHAR uni020A
ENCODING 522
SWIDTH 277 0
DWIDTH 9 0
BBX 10 32 0 0
BITMAP
1F00
7F80
E1C0
C0C0
0000
0000
1C00
1C00
1C00
1C00
1C00
1C00
1C00
1C00
1C00
1C00
1C00
1C00
1C00
1C00
1C00
1C00
1C00
1C00
1C00
1C00
1C00
1C00
1C00
1C00
1C00
1C00
ENDCHAR
STARTCHAR uni020B
ENCODING 523
SWIDTH 228 0
DWIDTH 8 0
BBX 10 25 -1 0
BITMAP
1F00
7F80
61C0
C0C0
0000
0000
1C00
1C00
1C00
1C00
1C00
1C00
1C00
1C00
1C00
1C00
1C00
1C00
1C00
1C00
1C00
1C00
1C00
1C00
1C00
ENDCHAR
STARTCHAR uni020C
ENCODING 524
SWIDTH 777 0
DWIDTH 28 0
BBX 24 32 2 0
BITMAP
0FBE00
079E00
038E00
03CF00
01C700
000000
00FF00
03FFC0
07FFE0
1F81F8
1E0078
3C003C
78001E
70000E
70000E
E00007
E00007
E00007
E00007
E00007
E00007
E00007
E00007
70000E
70000E
78001E
3C003C
1E0078
1F81F8
0FFFE0
03FFC0
00FF00
ENDCHAR
STARTCHAR uni020D
ENCODING 525
SWIDTH 556 0
DWIDTH 20 0
BBX 17 26 1 0
BITMAP
7DF000
3CF000
1C7000
0E3800
0E3800
000000
000000
07F000
1FFC00
3FFE00
3C1E00
780F00
700700
E00380
E00380
E00380
E00380
E00380
E00380
E00380
700700
780F00
3C1E00
3FFE00
1FFC00
07F000
ENDCHAR
STARTCHAR uni020E
ENCODING 526
SWIDTH 777 0
DWIDTH 28 0
BBX 24 32 2 0
BITMAP
003E00
00FF00
01C380
018180
000000
000000
00FF00
03FFC0
07FFE0
1F81F8
1E0078
3C003C
78001E
70000E
70000E
E00007
E00007
E00007
E00007
E00007
E00007
E00007
E00007
70000E
70000E
78001E
3C003C
1E0078
1F81F8
0FFFE0
03FFC0
00FF00
ENDCHAR
STARTCHAR uni020F
ENCODING 527
SWIDTH 556 0
DWIDTH 20 0
BBX 17 25 1 0
BITMAP
03E000
07F800
0E1800
0C0C00
000000
000000
07F000
1FFC00
3FFE00
3C1E00
780F00
700700
E00380
E00380
E00380
E00380
E00380
E00380
E00380
700700
780F00
3C1E00
3FFE00
1FFC00
07F000
ENDCHAR
STARTCHAR uni0210
ENCODING 528
SWIDTH 722 0
DWIDTH 26 0
BBX 21 32 3 0
BITMAP
1E7800
1E7800
0F3C00
071C00
079E00
000000
FFFF00
FFFFC0
FFFFC0
E003E0
E000F0
E00070
E00070
E00070
E00070
E00070
E000E0
E003E0
FFFFC0
FFFF00
FFFE00
E00F00
E00380
E003C0
E001C0
E000E0
E000E0
E000E0
E00070
E00070
E00070
E00038
ENDCHAR
STARTCHAR uni0211
ENCODING 529
SWIDTH 333 0
DWIDTH 12 0
BBX 12 26 0 0
BITMAP
FBE0
79E0
38E0
3CF0
1C70
0000
0000
39E0
3BE0
3FE0
3E00
3C00
3800
3800
3800
3800
3800
3800
3800
3800
3800
3800
3800
3800
3800
3800
ENDCHAR
STARTCHAR uni0212
ENCODING 530
SWIDTH 722 0
DWIDTH 26 0
BBX 21 32 3 0
BITMAP
00F800
03FC00
030E00
060600
000000
000000
FFFF00
FFFFC0
FFFFC0
E003E0
E000F0
E00070
E00070
E00070
E00070
E00070
E000E0
E003E0
FFFFC0
FFFF00
FFFE00
E00F00
E00380
E003C0
E001C0
E000E0
E000E0
E000E0
E00070
E00070
E00070
E00038
ENDCHAR
STARTCHAR uni0213
ENCODING 531
SWIDTH 333 0
DWIDTH 12 0
BBX 10 25 1 0
BITMAP
1F00
7F80
61C0
E0C0
0000
0000
73C0
77C0
7FC0
7C00
7800
7000
7000
7000
7000
7000
7000
7000
7000
7000
7000
7000
7000
7000
7000
ENDCHAR
STARTCHAR uni0214
ENCODING 532
SWIDTH 722 0
DWIDTH 26 0
BBX 20 32 3 0
BITMAP
1E7800
0E3800
0F3C00
071C00
079E00
000000
E00070
E00070
E00070
E00070
E00070
E00070
E00070
E00070
E00070
E00070
E00070
E00070
E00070
E00070
E00070
E00070
E00070
E00070
E00070
F000F0
7000E0
7801E0
3E07C0
3FFFC0
0FFF00
03FC00
ENDCHAR
STARTCHAR uni0215
ENCODING 533
SWIDTH 556 0
DWIDTH 20 0
BBX 15 26 2 0
BITMAP
F3C0
79E0
38E0
38E0
1C70
0000
0000
E00E
E00E
E00E
E00E
E00E
E00E
E00E
E00E
E00E
E00E
E00E
E00E
E00E
E00E
F01E
F07E
7FFE
3FEE
1F8E
ENDCHAR
STARTCHAR uni0216
ENCODING 534
SWIDTH 722 0
DWIDTH 26 0
BBX 20 32 3 0
BITMAP
01F800
03FC00
070E00
060600
000000
000000
E00070
E00070
E00070
E00070
E00070
E00070
E00070
E00070
E00070
E00070
E00070
E00070
E00070
E00070
E00070
E00070
E00070
E00070
E00070
F000F0
7000E0
7801E0
3E07C0
3FFFC0
0FFF00
03FC00
ENDCHAR
STARTCHAR uni0217
ENCODING 535
SWIDTH 556 0
DWIDTH 20 0
BBX 15 25 2 0
BITMAP
07E0
0FF0
1C38
1818
0000
0000
E00E
E00E
E00E
E00E
E00E
E00E
E00E
E00E
E00E
E00E
E00E
E00E
E00E
E00E
F01E
F07E
7FFE
3FEE
1F8E
ENDCHAR
STARTCHAR uni0218
ENCODING 536
SWIDTH 666 0
DWIDTH 24 0
BBX 20 34 2 -8
BITMAP
03F800
0FFE00
1FFF80
3E07C0
7803C0
7001E0
7000E0
7000E0
700000
3C0000
3F8000
1FF800
07FF00
00FFC0
000FE0
0001E0
0000F0
E00070
E00070
F00070
700070
7800E0
3E03E0
1FFFC0
0FFF00
01FC00
000000
000000
007000
007000
007000
001000
001000
006000
ENDCHAR
STARTCHAR uni0219
ENCODING 537
SWIDTH 500 0
DWIDTH 18 0
BBX 15 27 1 -8
BITMAP
0FE0
3FF0
7FF8
F03C
E01C
E000
F000
FE00
7FE0
1FF8
03FC
003E
000E
E00E
E00E
781E
7FFC
3FF8
0FE0
0000
0000
0380
0380
0380
0080
0080
0300
ENDCHAR
STARTCHAR uni021A
ENCODING 538
SWIDTH 610 0
DWIDTH 22 0
BBX 19 34 1 -8
BITMAP
FFFFE0
FFFFE0
FFFFE0
00E000
00E000
00E000
00E000
00E000
00E000
00E000
00E000
00E000
00E000
00E000
00E000
00E000
00E000
00E000
00E000
00E000
00E000
00E000
00E000
00E000
00E000
00E000
000000
000000
00E000
00E000
00E000
002000
002000
00C000
ENDCHAR
STARTCHAR uni021B
ENCODING 539
SWIDTH 277 0
DWIDTH 10 0
BBX 8 32 1 -8
BITMAP
38
38
38
38
38
FF
FF
FF
38
38
38
38
38
38
38
38
38
38
38
38
38
3F
1F
0F
00
00
0E
0E
0E
02
04
0C
ENDCHAR
STARTCHAR uni021C
ENCODING 540
SWIDTH 500 0
DWIDTH 18 0
BBX 16 33 1 -7
BITMAP
0FE0
7FF8
FFFC
F81E
C00E
8007
0007
0007
0007
0007
000E
000E
001E
003C
007C
01FE
07EE
1FCF
7F07
7807
4007
0007
000F
000E
001E
003C
0078
01F0
07E0
1F80
7E00
7800
4000
ENDCHAR
STARTCHAR uni021D
ENCODING 541
SWIDTH 431 0
DWIDTH 16 0
BBX 15 26 0 -7
BITMAP
1FE0
FFF8
FFFC
E03E
801E
000E
000E
000E
000E
001C
0038
01FC
1FFC
7FDE
7E0E
600E
000E
000E
001E
003C
0078
01F0
1FE0
7F80
7E00
6000
ENDCHAR
STARTCHAR uni021E
ENCODING 542
SWIDTH 722 0
DWIDTH 26 0
BBX 20 32 3 0
BITMAP
0F0E00
039C00
03FC00
01F800
00F000
000000
E00070
E00070
E00070
E00070
E00070
E00070
E00070
E00070
E00070
E00070
E00070
FFFFF0
FFFFF0
FFFFF0
E00070
E00070
E00070
E00070
E00070
E00070
E00070
E00070
E00070
E00070
E00070
E00070
ENDCHAR
STARTCHAR uni021F
ENCODING 543
SWIDTH 556 0
DWIDTH 20 0
BBX 15 32 2 0
BITMAP
3C78
1E70
0EE0
07E0
03C0
0000
E000
E000
E000
E000
E000
E000
E000
E3F0
EFF8
FFFC
FC3C
F01E
E00E
E00E
E00E
E00E
E00E
E00E
E00E
E00E
E00E
E00E
E00E
E00E
E00E
E00E
ENDCHAR
STARTCHAR uni0220
ENCODING 544
SWIDTH 684 0
DWIDTH 25 0
BBX 19 33 3 -7
BITMAP
E1FC00
EFFF00
FFFF80
FC07C0
F001C0
E001E0
E000E0
E000E0
E000E0
E000E0
E000E0
E000E0
E000E0
E000E0
E000E0
E000E0
E000E0
E000E0
E000E0
E000E0
E000E0
E000E0
E000E0
E000E0
E000E0
E000E0
0000E0
0000E0
0000E0
0000E0
0000E0
0000E0
0000E0
ENDCHAR
STARTCHAR uni0221
ENCODING 545
SWIDTH 752 0
DWIDTH 27 0
BBX 25 33 1 -7
BITMAP
00070000
00070000
00070000
00070000
00070000
00070000
00070000
07E70000
1FFF0000
3FFF0000
3C3F0000
700F0000
70070000
E0070000
E0070000
E0070000
E0070000
E0070000
E0070000
E0070000
F00F0000
701F0000
7C3F0000
3FFF0000
1FF71E00
07C77F00
0007FF80
0003E380
0003C380
0007E380
000FFF80
0006FF00
00043E00
ENDCHAR
STARTCHAR uni0222
ENCODING 546
SWIDTH 582 0
DWIDTH 21 0
BBX 18 26 1 0
BITMAP
003800
003E00
003F00
000F80
078780
3F8380
7F8380
780380
700700
780F00
1FFE00
07F800
1FFE00
7C0F80
700380
E001C0
E001C0
E001C0
E001C0
E001C0
F003C0
780780
7C0F80
3FFF00
1FFE00
07F800
ENDCHAR
STARTCHAR uni0223
ENCODING 547
SWIDTH 534 0
DWIDTH 19 0
BBX 16 26 1 0
BITMAP
0C30
1C38
381C
700E
700E
700E
700E
700E
781E
3C3C
1FF8
0FF0
3FFC
781E
700E
E007
E007
E007
E007
E007
F00F
700E
7C3E
3FFC
1FF8
07E0
ENDCHAR
STARTCHAR uni0224
ENCODING 548
SWIDTH 610 0
DWIDTH 22 0
BBX 18 31 2 -5
BITMAP
7FFFC0
7FFFC0
7FFFC0
0003C0
000780
000700
000F00
001E00
001C00
003800
007800
00F000
00E000
01C000
03C000
078000
070000
0E0000
1E0000
3C0000
380000
780000
F00000
FFFE00
FFFF80
FFFFC0
0003C0
0001C0
0001C0
0001C0
0003C0
ENDCHAR
STARTCHAR uni0225
ENCODING 549
SWIDTH 500 0
DWIDTH 18 0
BBX 15 24 1 -5
BITMAP
7FFE
7FFE
7FFE
001E
003C
0078
00F0
01E0
01C0
0380
0700
0F00
1E00
3C00
7800
F000
FFF8
FFFC
FFFE
001E
000E
000E
000E
001E
ENDCHAR
STARTCHAR uni0226
ENCODING 550
SWIDTH 666 0
DWIDTH 24 0
BBX 24 32 0 0
BITMAP
001C00
001C00
001C00
001C00
000000
000000
003C00
007C00
007E00
006E00
00E600
00C700
01C700
01C380
018380
038180
0381C0
0701C0
0700E0
0700E0
0E00E0
0FFFF0
0FFFF0
1FFFF8
1C0038
380038
38001C
38001C
70001E
70000E
70000E
E00007
ENDCHAR
STARTCHAR uni0227
ENCODING 551
SWIDTH 556 0
DWIDTH 20 0
BBX 16 26 1 0
BITMAP
01C0
01C0
01C0
01C0
0000
0000
0000
07F0
1FFC
3FFE
3C0F
7007
7007
0007
03FF
1FFF
3FFF
7C07
F007
E007
E007
E00F
F83F
7FFF
3FF7
1FC7
ENDCHAR
STARTCHAR uni0228
ENCODING 552
SWIDTH 666 0
DWIDTH 24 0
BBX 19 33 3 -7
BITMAP
FFFFC0
FFFFC0
FFFFC0
E00000
E00000
E00000
E00000
E00000
E00000
E00000
E00000
FFFF80
FFFF80
FFFF80
E00000
E00000
E00000
E00000
E00000
E00000
E00000
E00000
E00000
FFFFE0
FFFFE0
FFFFE0
00C000
00F000
003800
003800
003800
03F000
03E000
ENDCHAR
STARTCHAR uni0229
ENCODING 553
SWIDTH 556 0
DWIDTH 20 0
BBX 17 26 1 -7
BITMAP
07F000
1FF800
3FFE00
3C1E00
780F00
700700
E00380
E00380
FFFF80
FFFF80
FFFF80
E00000
E00000
700380
780780
3C0F00
3FFE00
0FFC00
03F000
00C000
00F000
003800
003800
003800
03F000
03E000
ENDCHAR
STARTCHAR uni022A
ENCODING 554
SWIDTH 777 0
DWIDTH 28 0
BBX 24 32 2 0
BITMAP
01FFC0
01FFC0
000000
00E380
00E380
000000
00FF00
03FFC0
07FFE0
1F81F8
1E0078
3C003C
78001E
70000E
70000E
E00007
E00007
E00007
E00007
E00007
E00007
E00007
E00007
70000E
70000E
78001E
3C003C
1E0078
1F81F8
0FFFE0
03FFC0
00FF00
ENDCHAR
STARTCHAR uni022B
ENCODING 555
SWIDTH 556 0
DWIDTH 20 0
BBX 17 30 1 0
BITMAP
1FFC00
1FFC00
1FFC00
000000
0E3800
0E3800
0E3800
0E3800
000000
000000
000000
07F000
1FFC00
3FFE00
3C1E00
780F00
700700
E00380
E00380
E00380
E00380
E00380
E00380
E00380
700700
780F00
3C1E00
3FFE00
1FFC00
07F000
ENDCHAR
STARTCHAR uni022C
ENCODING 556
SWIDTH 777 0
DWIDTH 28 0
BBX 24 33 2 0
BITMAP
01FFC0
01FFC0
000000
00F8C0
01FFC0
018F80
000000
00FF00
03FFC0
07FFE0
1F81F8
1E0078
3C003C
78001E
70000E
70000E
E00007
E00007
E00007
E00007
E00007
E00007
E00007
E00007
70000E
70000E
78001E
3C003C
1E0078
1F81F8
0FFFE0
03FFC0
00FF00
ENDCHAR
STARTCHAR uni022D
ENCODING 557
SWIDTH 556 0
DWIDTH 20 0
BBX 17 29 1 0
BITMAP
1FFC00
1FFC00
1FFC00
000000
078C00
0FFC00
1FF800
18F000
000000
000000
07F000
1FFC00
3FFE00
3C1E00
780F00
700700
E00380
E00380
E00380
E00380
E00380
E00380
E00380
700700
780F00
3C1E00
3FFE00
1FFC00
07F000
ENDCHAR
STARTCHAR uni022E
ENCODING 558
SWIDTH 777 0
DWIDTH 28 0
BBX 24 32 2 0
BITMAP
001C00
001C00
001C00
001C00
000000
000000
00FF00
03FFC0
07FFE0
1F81F8
1E0078
3C003C
78001E
70000E
70000E
E00007
E00007
E00007
E00007
E00007
E00007
E00007
E00007
70000E
70000E
78001E
3C003C
1E0078
1F81F8
0FFFE0
03FFC0
00FF00
ENDCHAR
STARTCHAR uni022F
ENCODING 559
SWIDTH 556 0
DWIDTH 20 0
BBX 17 26 1 0
BITMAP
01C000
01C000
01C000
01C000
000000
000000
000000
07F000
1FFC00
3FFE00
3C1E00
780F00
700700
E00380
E00380
E00380
E00380
E00380
E00380
E00380
700700
780F00
3C1E00
3FFE00
1FFC00
07F000
ENDCHAR
STARTCHAR uni0230
ENCODING 560
SWIDTH 777 0
DWIDTH 28 0
BBX 24 32 2 0
BITMAP
01FFC0
01FFC0
000000
001C00
001C00
000000
00FF00
03FFC0
07FFE0
1F81F8
1E0078
3C003C
78001E
70000E
70000E
E00007
E00007
E00007
E00007
E00007
E00007
E00007
E00007
70000E
70000E
78001E
3C003C
1E0078
1F81F8
0FFFE0
03FFC0
00FF00
ENDCHAR
STARTCHAR uni0231
ENCODING 561
SWIDTH 556 0
DWIDTH 20 0
BBX 17 30 1 0
BITMAP
1FFC00
1FFC00
1FFC00
000000
01C000
01C000
01C000
01C000
000000
000000
000000
07F000
1FFC00
3FFE00
3C1E00
780F00
700700
E00380
E00380
E00380
E00380
E00380
E00380
E00380
700700
780F00
3C1E00
3FFE00
1FFC00
07F000
ENDCHAR
STARTCHAR uni0232
ENCODING 562
SWIDTH 666 0
DWIDTH 23 0
BBX 23 31 0 0
BITMAP
03FF80
03FF80
03FF80
000000
000000
F0001E
70001C
380038
3C0078
1C0070
0E00E0
0F01E0
0701C0
038380
038380
01C700
00EE00
00EE00
007C00
003800
003800
003800
003800
003800
003800
003800
003800
003800
003800
003800
003800
ENDCHAR
STARTCHAR uni0233
ENCODING 563
SWIDTH 500 0
DWIDTH 18 0
BBX 17 32 0 -7
BITMAP
1FFC00
1FFC00
1FFC00
000000
000000
000000
E00380
700700
700700
700700
380E00
380E00
380E00
1C1C00
1C1C00
0C1800
0E3800
0E3800
063000
077000
077000
036000
03E000
03E000
01C000
01C000
038000
038000
0F0000
7F0000
7E0000
7C0000
ENDCHAR
STARTCHAR uni0234
ENCODING 564
SWIDTH 424 0
DWIDTH 15 0
BBX 13 33 1 -7
BITMAP
7000
7000
7000
7000
7000
7000
7000
7000
7000
7000
7000
7000
7000
7000
7000
7000
7000
7000
7000
7000
7000
7000
7000
7000
71E0
77F0
7FF8
3E38
3C38
7E38
FFF8
6FF0
43E0
ENDCHAR
STARTCHAR uni0235
ENCODING 565
SWIDTH 754 0
DWIDTH 27 0
BBX 24 26 2 -7
BITMAP
E3F000
EFF800
FFFC00
FC1E00
F81E00
E00E00
E00E00
E00E00
E00E00
E00E00
E00E00
E00E00
E00E00
E00E00
E00E00
E00E00
E00E00
E00E3C
E00EFE
000FFF
0007C7
000787
000FC7
001FFF
000DFE
00087C
ENDCHAR
STARTCHAR uni0236
ENCODING 566
SWIDTH 437 0
DWIDTH 16 0
BBX 14 24 1 0
BITMAP
3800
3800
3800
3800
3800
FF00
FF00
FF00
3800
3800
3800
3800
3800
3800
3800
38F0
3BF8
3FFC
1F1C
1E1C
3F1C
7FFC
37F8
21F0
ENDCHAR
STARTCHAR uni0237
ENCODING 567
SWIDTH 228 0
DWIDTH 8 0
BBX 7 26 -2 -7
BITMAP
0E
0E
0E
0E
0E
0E
0E
0E
0E
0E
0E
0E
0E
0E
0E
0E
0E
0E
0E
0E
0E
0E
1E
FC
FC
F8
ENDCHAR
STARTCHAR uni0238
ENCODING 568
SWIDTH 883 0
DWIDTH 32 0
BBX 29 26 1 0
BITMAP
00070000
00070000
00070000
00070000
00070000
00070000
00070000
07E71F00
1FFF7FC0
3FFFFFE0
3C1FE1F0
700F8070
70070070
E0070038
E0070038
E0070038
E0070038
E0070038
E0070038
E0070038
F0070070
700F8070
7C3FC1E0
3FFFFFE0
1FF7FFC0
07C73F00
ENDCHAR
STARTCHAR uni0239
ENCODING 569
SWIDTH 883 0
DWIDTH 32 0
BBX 29 26 1 -7
BITMAP
07E71F00
1FFF7FC0
3FFFFFE0
3C1FE1F0
700F8070
70070070
E0070038
E0070038
E0070038
E0070038
E0070038
E0070038
E0070038
F0070070
700F8070
7C3FC1E0
3FFFFFE0
1FF7FFC0
07C73F00
00070000
00070000
00070000
00070000
00070000
00070000
00070000
ENDCHAR
STARTCHAR uni023A
ENCODING 570
SWIDTH 666 0
DWIDTH 24 0
BBX 24 31 0 -3
BITMAP
00000E
00000C
003C18
007C38
007E30
006E60
00E6E0
00C7C0
01C780
01C380
018380
038780
038FC0
070DC0
0718E0
0738E0
0E30E0
0FFFF0
0FFFF0
1FFFF8
1D8038
3B8038
3B001C
3E001C
7E001E
7C000E
78000E
F80007
300000
600000
E00000
ENDCHAR
STARTCHAR uni023B
ENCODING 571
SWIDTH 722 0
DWIDTH 26 0
BBX 23 31 2 -3
BITMAP
00000E
00000C
00FE18
03FFF8
0FFFF0
1F81F0
3E00F8
3800F8
78019C
70039C
700300
E00600
E00E00
E00C00
E01800
E03800
E03000
E06000
E0E000
70C01C
71801C
7B803C
3B0038
3E0078
1F81F0
0FFFE0
1BFFC0
38FE00
300000
600000
C00000
ENDCHAR
STARTCHAR uni023C
ENCODING 572
SWIDTH 500 0
DWIDTH 18 0
BBX 21 26 -1 -3
BITMAP
000038
000070
000060
0000C0
00FD80
07FF80
0FFF80
0F0780
1E0FC0
1C0DC0
381800
383000
387000
386000
38C000
398000
3B8000
1F01C0
1E03C0
0F0780
0FFF80
1FFF00
31FC00
700000
600000
C00000
ENDCHAR
STARTCHAR uni023D
ENCODING 573
SWIDTH 556 0
DWIDTH 20 0
BBX 19 26 0 0
BITMAP
1C0000
1C0000
1C0000
1C0000
1C0000
1C0000
1C0000
1C0000
1C0000
1C0000
1C0000
FFE000
FFE000
FFE000
1C0000
1C0000
1C0000
1C0000
1C0000
1C0000
1C0000
1C0000
1C0000
1FFFE0
1FFFE0
1FFFE0
ENDCHAR
STARTCHAR uni023E
ENCODING 574
SWIDTH 610 0
DWIDTH 22 0
BBX 23 31 0 -3
BITMAP
00000E
00000C
7FFFF8
7FFFF8
7FFFF0
007060
0070E0
0070C0
007180
007380
007300
007600
007E00
007C00
007800
007800
007000
007000
00F000
00F000
01F000
03F000
037000
067000
0E7000
0C7000
187000
387000
300000
600000
E00000
ENDCHAR
STARTCHAR uni023F
ENCODING 575
SWIDTH 500 0
DWIDTH 18 0
BBX 15 26 1 -7
BITMAP
0FE0
3FF0
7FF8
F03C
E01C
E000
F000
FE00
7FE0
1FF8
03FC
003E
000E
E00E
E00E
781E
7FFC
3FF8
0FE0
0700
0380
03C0
01C4
01FC
00FC
0078
ENDCHAR
STARTCHAR uni0240
ENCODING 576
SWIDTH 500 0
DWIDTH 18 0
BBX 16 26 1 -7
BITMAP
7FFE
7FFE
7FFE
001E
003C
0078
00F0
01E0
01C0
0380
0700
0F00
1E00
3C00
7800
F000
FC00
FF00
FF80
07C0
03E0
01E0
00F1
007F
003F
001E
ENDCHAR
STARTCHAR uni0241
ENCODING 577
SWIDTH 589 0
DWIDTH 21 0
BBX 18 26 1 0
BITMAP
07F000
1FFC00
3FFE00
781F00
F00780
E00380
0003C0
0001C0
0001C0
0001C0
0001C0
0001C0
0001C0
0003C0
000380
000780
001F00
01FE00
01FC00
01F000
01C000
01C000
01C000
01C000
01C000
01C000
ENDCHAR
STARTCHAR uni0242
ENCODING 578
SWIDTH 500 0
DWIDTH 18 0
BBX 17 19 0 0
BITMAP
07F000
1FFC00
7FFE00
781F00
F00700
E00780
000380
000380
000380
000780
000700
001F00
03FE00
03FC00
03E000
038000
3FF000
3FF000
3FF000
ENDCHAR
STARTCHAR uni0243
ENCODING 579
SWIDTH 666 0
DWIDTH 24 0
BBX 22 26 0 0
BITMAP
1FFF00
1FFFC0
1FFFE0
1C00F0
1C0078
1C0038
1C0038
1C0038
1C0038
1C0070
1C00F0
1FFFE0
1FFFC0
1FFFF0
1C00F8
1C0038
1C001C
FFE01C
FFE01C
1C001C
1C001C
1C0038
1C00F8
1FFFF0
1FFFE0
1FFF80
ENDCHAR
STARTCHAR uni0244
ENCODING 580
SWIDTH 722 0
DWIDTH 26 0
BBX 26 26 0 0
BITMAP
1C000E00
1C000E00
1C000E00
1C000E00
1C000E00
1C000E00
1C000E00
1C000E00
1C000E00
1C000E00
1C000E00
1C000E00
FFFFFFC0
FFFFFFC0
1C000E00
1C000E00
1C000E00
1C000E00
1C000E00
1E001E00
0E001C00
0F003C00
07C0F800
07FFF800
01FFE000
007F8000
ENDCHAR
STARTCHAR uni0245
ENCODING 581
SWIDTH 666 0
DWIDTH 24 0
BBX 24 26 0 0
BITMAP
003C00
007C00
007E00
006E00
00E600
00C700
01C700
01C380
018380
038180
0381C0
0701C0
0700E0
0700E0
0E00E0
0E0070
0E0070
1C0038
1C0038
380038
38001C
38001C
70001E
70000E
70000E
E00007
ENDCHAR
STARTCHAR uni0246
ENCODING 582
SWIDTH 666 0
DWIDTH 24 0
BBX 19 34 3 -4
BITMAP
000C00
000C00
000C00
001800
FFFFC0
FFFFC0
FFFFC0
E03000
E03000
E03000
E03000
E06000
E06000
E06000
E06000
FFFF80
FFFF80
FFFF80
E0C000
E18000
E18000
E18000
E18000
E30000
E30000
E30000
E30000
FFFFE0
FFFFE0
FFFFE0
060000
0C0000
0C0000
0C0000
ENDCHAR
STARTCHAR uni0247
ENCODING 583
SWIDTH 556 0
DWIDTH 20 0
BBX 17 27 1 -4
BITMAP
000C00
000C00
000800
001800
03F800
1FF800
3FFE00
3C3E00
783F00
703700
E06380
E06380
FFFF80
FFFF80
FFFF80
E0C000
E0C000
718380
798780
3D8F00
3FFE00
0FFC00
03F000
030000
020000
060000
060000
ENDCHAR
STARTCHAR uni0248
ENCODING 584
SWIDTH 500 0
DWIDTH 18 0
BBX 17 26 1 0
BITMAP
001C00
001C00
001C00
001C00
001C00
001C00
001C00
001C00
001C00
001C00
001C00
03FF80
03FF80
001C00
001C00
001C00
001C00
001C00
E01C00
E01C00
E01C00
F03800
787800
7FF800
3FF000
0FC000
ENDCHAR
STARTCHAR uni0249
ENCODING 585
SWIDTH 228 0
DWIDTH 8 0
BBX 9 33 -2 -7
BITMAP
0E00
0E00
0E00
0000
0000
0000
0000
0E00
0E00
0E00
0E00
0E00
0E00
0E00
0E00
0E00
0E00
3F80
3F80
0E00
0E00
0E00
0E00
0E00
0E00
0E00
0E00
0E00
0E00
1E00
FC00
FC00
F800
ENDCHAR
STARTCHAR uni024A
ENCODING 586
SWIDTH 750 0
DWIDTH 27 0
BBX 26 33 2 -7
BITMAP
00FF1C00
03FFDC00
0FFFFC00
1F81FC00
3E007C00
38003C00
78001C00
70001C00
70001C00
E0001C00
E0001C00
E0001C00
E0001C00
E0001C00
E0001C00
E0001C00
E0001C00
70001C00
70001C00
78003C00
38003C00
3E007C00
1F81FC00
0FFFDC00
03FF9C00
00FE1C00
00001C00
00001C00
00001C00
00001E00
00001FC0
00000FC0
000007C0
ENDCHAR
STARTCHAR uni024B
ENCODING 587
SWIDTH 556 0
DWIDTH 20 0
BBX 20 26 1 -7
BITMAP
07E700
1FFF00
3FFF00
3C1F00
700F00
700700
E00700
E00700
E00700
E00700
E00700
E00700
E00700
F00700
700F00
7C3F00
3FFF00
1FF700
07C700
000700
000700
000700
000780
0007F0
0003F0
0001F0
ENDCHAR
STARTCHAR uni024C
ENCODING 588
SWIDTH 722 0
DWIDTH 26 0
BBX 24 26 0 0
BITMAP
1FFFE0
1FFFF8
1FFFF8
1C007C
1C001E
1C000E
1C000E
1C000E
1C000E
1C000E
1C001C
1C007C
FFFFF8
FFFFE0
1FFFC0
1C01E0
1C0070
1C0078
1C0038
1C001C
1C001C
1C001C
1C000E
1C000E
1C000E
1C0007
ENDCHAR
STARTCHAR uni024D
ENCODING 589
SWIDTH 333 0
DWIDTH 12 0
BBX 11 19 0 0
BITMAP
39E0
3BE0
3FE0
3E00
3C00
3800
3800
3800
3800
3800
FF80
FF80
3800
3800
3800
3800
3800
3800
3800
ENDCHAR
STARTCHAR uni024E
ENCODING 590
SWIDTH 666 0
DWIDTH 23 0
BBX 23 26 0 0
BITMAP
F0001E
70001C
380038
3C0078
1C0070
7FFFFC
7FFFFC
0701C0
038380
038380
01C700
00EE00
00EE00
007C00
003800
003800
003800
003800
003800
003800
003800
003800
003800
003800
003800
003800
ENDCHAR
STARTCHAR uni024F
ENCODING 591
SWIDTH 500 0
DWIDTH 18 0
BBX 17 26 0 -7
BITMAP
E00380
700700
700700
700700
380E00
380E00
FFFF80
FFFF80
1C1C00
0C1C00
0E3800
0E3800
063000
077000
077000
036000
03E000
03E000
01C000
01C000
038000
038000
0F0000
7F0000
7E0000
7C0000
ENDCHAR
STARTCHAR uni0250
ENCODING 592
SWIDTH 556 0
DWIDTH 20 0
BBX 16 19 1 0
BITMAP
E3F8
EFFC
FFFE
FC0F
F007
E007
E00F
E03E
FFFE
FFF8
FFC0
E000
E000
E00E
F00E
783C
7FFC
3FF8
0FE0
ENDCHAR
STARTCHAR uni0251
ENCODING 593
SWIDTH 576 0
DWIDTH 21 0
BBX 18 19 1 0
BITMAP
07E1C0
1FFBC0
3FFF80
7C3F80
701F80
700F80
E00780
E00700
E00700
E00700
E00700
E00700
E00F00
700F80
701F80
7C3F80
3FFB80
1FF3C0
07E1C0
ENDCHAR
STARTCHAR uni0252
ENCODING 594
SWIDTH 576 0
DWIDTH 21 0
BBX 18 19 1 0
BITMAP
E1F800
F3FE00
77FF00
7F0F80
7E0380
7C0380
3801C0
3801C0
3801C0
3801C0
3801C0
3801C0
3C01C0
7C0380
7E0780
7F0F80
77FF00
F3FE00
E0F800
ENDCHAR
STARTCHAR uni0253
ENCODING 595
SWIDTH 556 0
DWIDTH 20 0
BBX 16 26 2 0
BITMAP
3E00
7E00
7E00
F000
E000
E000
E000
E3E0
EFF8
FFFC
FC3E
F80E
F00E
E007
E007
E007
E007
E007
E007
E007
E00E
F00E
FC3C
FFFC
FFF8
E7E0
ENDCHAR
STARTCHAR uni0254
ENCODING 596
SWIDTH 500 0
DWIDTH 18 0
BBX 15 19 1 0
BITMAP
0FC0
3FF0
7FF8
787C
F03C
E01C
000E
000E
000E
000E
000E
000E
000E
E01C
E03C
787C
7FF8
3FF0
0FC0
ENDCHAR
STARTCHAR uni0255
ENCODING 597
SWIDTH 500 0
DWIDTH 18 0
BBX 17 19 0 0
BITMAP
03F800
0FFE00
1FFF00
3E0F00
3C0780
380380
700000
700000
700000
70FC00
73FE00
7FFF00
7F8F00
3E0700
3C0700
7E0F00
FFFE00
67FC00
41F800
ENDCHAR
STARTCHAR uni0256
ENCODING 598
SWIDTH 556 0
DWIDTH 20 0
BBX 20 33 1 -7
BITMAP
000700
000700
000700
000700
000700
000700
000700
07E700
1FFF00
3FFF00
3C3F00
700F00
700700
E00700
E00700
E00700
E00700
E00700
E00700
E00700
F00F00
701F00
7C3F00
3FFF00
1FF700
07C700
000700
000700
000700
000780
0007F0
0003F0
0001F0
ENDCHAR
STARTCHAR uni0257
ENCODING 599
SWIDTH 556 0
DWIDTH 20 0
BBX 20 26 1 0
BITMAP
0001F0
0003F0
0003F0
000780
000700
000700
000700
07E700
1FFF00
3FFF00
3C3F00
700F00
700700
E00700
E00700
E00700
E00700
E00700
E00700
E00700
F00F00
701F00
7C3F00
3FFF00
1FF700
07C700
ENDCHAR
STARTCHAR uni0258
ENCODING 600
SWIDTH 556 0
DWIDTH 20 0
BBX 17 19 1 0
BITMAP
07F000
1FFC00
3FFE00
7C1E00
700700
700700
E00380
FFFF80
FFFF80
FFFF80
000380
000380
000780
E00700
F00F00
781E00
7FFE00
1FF800
07E000
ENDCHAR
STARTCHAR uni0259
ENCODING 601
SWIDTH 556 0
DWIDTH 20 0
BBX 17 19 1 0
BITMAP
07E000
1FF800
3FFE00
781E00
F00F00
E00700
000380
000380
000380
FFFF80
FFFF80
FFFF80
E00380
700700
700700
7C1E00
3FFE00
1FFC00
07F000
ENDCHAR
STARTCHAR uni025A
ENCODING 602
SWIDTH 731 0
DWIDTH 26 0
BBX 25 19 1 0
BITMAP
07E00000
1FF80000
3FFC0000
781E0000
F00F0000
E0076000
000FE000
01FFE000
3FFFF000
FFF3F180
FE03FF80
E003BF80
E0039F00
70078000
700F0000
7C1F0000
3FFE0000
1FFC0000
07F00000
ENDCHAR
STARTCHAR uni025B
ENCODING 603
SWIDTH 500 0
DWIDTH 18 0
BBX 16 19 1 0
BITMAP
07E0
1FF8
3FFC
781E
700E
7000
7000
7800
3FC0
1FC0
3FC0
7800
E000
E000
E007
F81F
7FFE
3FFC
0FF0
ENDCHAR
STARTCHAR uni025C
ENCODING 604
SWIDTH 500 0
DWIDTH 18 0
BBX 16 19 0 0
BITMAP
07E0
1FF8
3FFC
781E
700E
000E
000E
001C
03FC
03F8
03FC
001E
0007
0007
E007
F81F
7FFE
3FFC
0FF0
ENDCHAR
STARTCHAR uni025D
ENCODING 605
SWIDTH 665 0
DWIDTH 24 0
BBX 24 19 0 0
BITMAP
07F000
1FFC00
3FFEC0
781FC0
7007C0
0007E0
0007E3
001FFF
03FE7F
03F83E
03FE00
000F00
000380
000380
E00380
F80F80
7FFF00
3FFE00
07F800
ENDCHAR
STARTCHAR uni025E
ENCODING 606
SWIDTH 534 0
DWIDTH 19 0
BBX 16 19 1 0
BITMAP
07E0
1FF8
3FFC
7C1E
780E
700E
E01E
E3FC
E3F0
E3FC
E01E
E007
E007
7007
780F
7C1E
3FFE
1FFC
07F0
ENDCHAR
STARTCHAR uni025F
ENCODING 607
SWIDTH 297 0
DWIDTH 11 0
BBX 11 26 0 -7
BITMAP
0700
0700
0700
0700
0700
0700
0700
0700
0700
0700
0700
0700
0700
7FE0
7FE0
7FE0
0700
0700
0700
0700
0700
0700
0F00
FE00
FE00
F800
ENDCHAR
STARTCHAR uni0260
ENCODING 608
SWIDTH 556 0
DWIDTH 20 0
BBX 20 33 1 -7
BITMAP
0001F0
0003F0
0003F0
000780
000700
000700
000700
07E700
1FFF00
3FFF00
3C3F00
700F00
700700
E00700
E00700
E00700
E00700
E00700
E00700
E00700
F00F00
701F00
7C3F00
3FFF00
1FF700
07C700
000700
700700
700E00
781E00
3FFC00
1FF800
07F000
ENDCHAR
STARTCHAR uni0261
ENCODING 609
SWIDTH 556 0
DWIDTH 20 0
BBX 16 26 1 -7
BITMAP
07E7
1FFF
3FFF
3C1F
700F
7007
E007
E007
E007
E007
E007
E007
E007
F007
700F
7C3F
3FFF
1FF7
07C7
0007
7007
700E
781E
3FFC
1FF8
07F0
ENDCHAR
STARTCHAR uni0262
ENCODING 610
SWIDTH 584 0
DWIDTH 21 0
BBX 17 19 1 0
BITMAP
03F000
0FFC00
3FFE00
3C0F00
780780
700380
E00000
E00000
E00000
E03F80
E03F80
E03F80
E00380
700380
780780
3C0F80
3FFF80
0FFB80
03E380
ENDCHAR
STARTCHAR uni0263
ENCODING 611
SWIDTH 500 0
DWIDTH 18 0
BBX 18 26 0 -7
BITMAP
E001C0
700380
700380
380700
380700
1C0E00
1C0E00
1E1E00
0E1C00
0F3C00
073800
07F800
03F000
03F000
01E000
01E000
01E000
01E000
03F000
03F000
07F800
073800
073800
07F800
03F000
01E000
ENDCHAR
STARTCHAR uni0264
ENCODING 612
SWIDTH 609 0
DWIDTH 22 0
BBX 22 19 0 0
BITMAP
1E01E0
3F87F0
7F87F8
F3CF3C
61CE18
40FC08
00FC00
007800
007800
007800
007800
00FC00
00FC00
01FE00
01CE00
01CE00
01FE00
00FC00
007800
ENDCHAR
STARTCHAR uni0265
ENCODING 613
SWIDTH 556 0
DWIDTH 20 0
BBX 15 26 2 -7
BITMAP
E00E
E00E
E00E
E00E
E00E
E00E
E00E
E00E
E00E
E00E
E00E
E00E
E00E
E00E
F03E
F87E
7FFE
3FEE
1F8E
000E
000E
000E
000E
000E
000E
000E
ENDCHAR
STARTCHAR uni0266
ENCODING 614
SWIDTH 556 0
DWIDTH 20 0
BBX 15 26 2 0
BITMAP
3E00
7E00
7E00
F000
E000
E000
E000
E3F0
EFF8
FFFC
FC3C
F81E
E00E
E00E
E00E
E00E
E00E
E00E
E00E
E00E
E00E
E00E
E00E
E00E
E00E
E00E
ENDCHAR
STARTCHAR uni0267
ENCODING 615
SWIDTH 556 0
DWIDTH 20 0
BBX 15 33 2 -7
BITMAP
3E00
7E00
7E00
F000
E000
E000
E000
E3F0
EFF8
FFFC
FC1C
F80E
E00E
E00E
E00E
E00E
E00E
E00E
E00E
E00E
E00E
E00E
E00E
E00E
E00E
E00E
000E
000E
000E
001E
00FC
00FC
00F8
ENDCHAR
STARTCHAR uni0268
ENCODING 616
SWIDTH 228 0
DWIDTH 8 0
BBX 7 26 0 0
BITMAP
38
38
38
00
00
00
00
38
38
38
38
38
38
FE
FE
FE
38
38
38
38
38
38
38
38
38
38
ENDCHAR
STARTCHAR uni0269
ENCODING 617
SWIDTH 240 0
DWIDTH 9 0
BBX 6 19 2 0
BITMAP
E0
E0
E0
E0
E0
E0
E0
E0
E0
E0
E0
E0
E0
E0
E0
E0
FC
7C
3C
ENDCHAR
STARTCHAR uni026A
ENCODING 618
SWIDTH 228 0
DWIDTH 8 0
BBX 3 19 2 0
BITMAP
E0
E0
E0
E0
E0
E0
E0
E0
E0
E0
E0
E0
E0
E0
E0
E0
E0
E0
E0
ENDCHAR
STARTCHAR uni026B
ENCODING 619
SWIDTH 327 0
DWIDTH 12 0
BBX 11 26 0 0
BITMAP
0E00
0E00
0E00
0E00
0E00
0E00
0E00
0E00
0E00
3E60
7FE0
FFC0
CF80
0E00
0E00
0E00
0E00
0E00
0E00
0E00
0E00
0E00
0E00
0E00
0E00
0E00
ENDCHAR
STARTCHAR uni026C
ENCODING 620
SWIDTH 288 0
DWIDTH 10 0
BBX 10 26 0 0
BITMAP
0E00
0E00
0E00
0E00
0E00
0E00
0E00
0E00
0E00
7E00
FE00
CE00
CE00
CE00
FFC0
7FC0
0E00
0E00
0E00
0E00
0E00
0E00
0E00
0E00
0E00
0E00
ENDCHAR
STARTCHAR uni026D
ENCODING 621
SWIDTH 228 0
DWIDTH 8 0
BBX 7 33 2 -7
BITMAP
E0
E0
E0
E0
E0
E0
E0
E0
E0
E0
E0
E0
E0
E0
E0
E0
E0
E0
E0
E0
E0
E0
E0
E0
E0
E0
E0
E0
E0
F0
FE
7E
3E
ENDCHAR
STARTCHAR uni026E
ENCODING 622
SWIDTH 565 0
DWIDTH 20 0
BBX 16 33 2 -7
BITMAP
E000
E000
E000
E000
E000
E000
E000
FFFF
FFFF
FFFF
E01E
E01E
E03C
E078
E0F0
E0F0
E1F8
E03C
E01E
E00E
E00F
E007
E007
E007
E007
E007
0007
000F
200E
383E
3FFC
3FF8
0FE0
ENDCHAR
STARTCHAR uni026F
ENCODING 623
SWIDTH 833 0
DWIDTH 30 0
BBX 25 19 2 0
BITMAP
E01C0380
E01C0380
E01C0380
E01C0380
E01C0380
E01C0380
E01C0380
E01C0380
E01C0380
E01C0380
E01C0380
E01C0380
E01C0380
E01C0380
E03C0780
F0FE1F80
7FEFFF80
3FC7FB80
1F03E380
ENDCHAR
STARTCHAR uni0270
ENCODING 624
SWIDTH 833 0
DWIDTH 30 0
BBX 25 26 2 -7
BITMAP
E01C0380
E01C0380
E01C0380
E01C0380
E01C0380
E01C0380
E01C0380
E01C0380
E01C0380
E01C0380
E01C0380
E01C0380
E01C0380
E01C0380
E03C0780
F0FE1F80
7FEFFF80
3FC7FB80
1F03E380
00000380
00000380
00000380
00000380
00000380
00000380
00000380
ENDCHAR
STARTCHAR uni0271
ENCODING 625
SWIDTH 833 0
DWIDTH 30 0
BBX 25 26 2 -7
BITMAP
E3E07C00
EFF1FE00
FFFBFF00
FC3F8780
F01E0380
E01C0380
E01C0380
E01C0380
E01C0380
E01C0380
E01C0380
E01C0380
E01C0380
E01C0380
E01C0380
E01C0380
E01C0380
E01C0380
E01C0380
00000380
00000380
00000380
00000780
00003F00
00003F00
00003E00
ENDCHAR
STARTCHAR uni0272
ENCODING 626
SWIDTH 556 0
DWIDTH 20 0
BBX 19 26 -2 -7
BITMAP
0E3F00
0EFF80
0FFFC0
0FC3C0
0F81E0
0E00E0
0E00E0
0E00E0
0E00E0
0E00E0
0E00E0
0E00E0
0E00E0
0E00E0
0E00E0
0E00E0
0E00E0
0E00E0
0E00E0
0E0000
0E0000
0E0000
1E0000
FE0000
FC0000
F80000
ENDCHAR
STARTCHAR uni0273
ENCODING 627
SWIDTH 556 0
DWIDTH 20 0
BBX 19 26 2 -7
BITMAP
E3F000
EFF800
FFFC00
FC3E00
F81E00
E00E00
E00E00
E00E00
E00E00
E00E00
E00E00
E00E00
E00E00
E00E00
E00E00
E00E00
E00E00
E00E00
E00E00
000E00
000E00
000E00
000F00
000FE0
0007E0
0003E0
ENDCHAR
STARTCHAR uni0274
ENCODING 628
SWIDTH 541 0
DWIDTH 20 0
BBX 15 19 2 0
BITMAP
E00E
F00E
F80E
F80E
FC0E
FE0E
EE0E
EF0E
E78E
E38E
E3CE
E1EE
E0EE
E0FE
E07E
E03E
E03E
E01E
E00E
ENDCHAR
STARTCHAR uni0275
ENCODING 629
SWIDTH 556 0
DWIDTH 20 0
BBX 17 19 1 0
BITMAP
07F000
1FFC00
3FFE00
3C1E00
700700
700700
E00380
E00380
FFFF80
FFFF80
FFFF80
E00380
E00380
700700
780F00
3C1E00
3FFE00
1FFC00
07F000
ENDCHAR
STARTCHAR uni0276
ENCODING 630
SWIDTH 721 0
DWIDTH 26 0
BBX 23 19 1 0
BITMAP
07E7FE
1FFFFE
3FFFFE
3C3F00
781F00
700F00
E00700
E007FC
E007FC
E007FC
E00700
E00700
E00700
700F00
781F00
3C3F00
3FFFFE
1FFFFE
07E7FE
ENDCHAR
STARTCHAR uni0277
ENCODING 631
SWIDTH 689 0
DWIDTH 25 0
BBX 22 19 1 0
BITMAP
01FE00
07FF80
1FFFE0
3F03F0
7C00F8
780078
F0003C
E0001C
E0001C
E0701C
E0701C
E0701C
E0701C
E0703C
70F838
78DC78
3FDFF0
3F8FF0
0F07C0
ENDCHAR
STARTCHAR uni0278
ENCODING 632
SWIDTH 556 0
DWIDTH 20 0
BBX 17 33 1 -7
BITMAP
01C000
01C000
01C000
01C000
01C000
01C000
01C000
07F000
1FFC00
3FFE00
3DDF00
79CF00
71C700
E1C380
E1C380
E1C380
E1C380
E1C380
E1C380
E1C380
71C700
79CF00
7DDF00
3FFE00
1FFC00
07F000
01C000
01C000
01C000
01C000
01C000
01C000
01C000
ENDCHAR
STARTCHAR uni0279
ENCODING 633
SWIDTH 333 0
DWIDTH 12 0
BBX 9 19 1 0
BITMAP
0380
0380
0380
0380
0380
0380
0380
0380
0380
0380
0380
0380
0380
0380
0780
0F80
FF80
FB80
E380
ENDCHAR
STARTCHAR uni027A
ENCODING 634
SWIDTH 333 0
DWIDTH 12 0
BBX 9 26 1 0
BITMAP
0380
0380
0380
0380
0380
0380
0380
0380
0380
0380
0380
0380
0380
0380
0380
0380
0380
0380
0380
0380
0380
0780
0F80
FF80
FB80
E380
ENDCHAR
STARTCHAR uni027B
ENCODING 635
SWIDTH 333 0
DWIDTH 12 0
BBX 13 26 1 -7
BITMAP
0380
0380
0380
0380
0380
0380
0380
0380
0380
0380
0380
0380
0380
0380
0780
0F80
FF80
FB80
E380
0380
0380
0380
03C0
03F8
01F8
00F8
ENDCHAR
STARTCHAR uni027C
ENCODING 636
SWIDTH 333 0
DWIDTH 12 0
BBX 11 26 2 -7
BITMAP
E3E0
E7E0
FFE0
FC00
F000
E000
E000
E000
E000
E000
E000
E000
E000
E000
E000
E000
E000
E000
E000
E000
E000
E000
E000
E000
E000
E000
ENDCHAR
STARTCHAR uni027D
ENCODING 637
SWIDTH 333 0
DWIDTH 12 0
BBX 11 26 2 -7
BITMAP
E3E0
E7E0
FFE0
FC00
F000
E000
E000
E000
E000
E000
E000
E000
E000
E000
E000
E000
E000
E000
E000
E000
E000
E000
F000
FE00
7E00
3E00
ENDCHAR
STARTCHAR uni027E
ENCODING 638
SWIDTH 277 0
DWIDTH 10 0
BBX 7 19 2 0
BITMAP
3E
7E
7E
F0
E0
E0
E0
E0
E0
E0
E0
E0
E0
E0
E0
E0
E0
E0
E0
ENDCHAR
STARTCHAR uni027F
ENCODING 639
SWIDTH 277 0
DWIDTH 10 0
BBX 7 26 0 -7
BITMAP
F8
FC
FC
1E
0E
0E
0E
0E
0E
0E
0E
0E
0E
0E
0E
0E
0E
0E
0E
0E
0E
0E
0E
0E
0E
0E
ENDCHAR
STARTCHAR uni0280
ENCODING 640
SWIDTH 534 0
DWIDTH 19 0
BBX 16 19 2 0
BITMAP
FFF0
FFFC
FFFC
E01E
E00E
E00E
E00E
E03E
FFFC
FFF8
FFE0
E078
E03C
E01C
E01C
E00E
E00E
E00E
E007
ENDCHAR
STARTCHAR uni0281
ENCODING 641
SWIDTH 534 0
DWIDTH 19 0
BBX 16 19 2 0
BITMAP
E007
E00E
E00E
E00E
E01C
E01C
E03C
E078
FFE0
FFF8
FFFC
E03E
E00E
E00E
E00E
E01E
FFFC
FFF8
FFF0
ENDCHAR
STARTCHAR uni0282
ENCODING 642
SWIDTH 500 0
DWIDTH 18 0
BBX 15 26 1 -7
BITMAP
0FC0
3FF0
7FF8
F07C
E01C
E01C
F000
FE00
7FE0
1FF8
03FC
003E
000E
E00E
E00E
F83E
FFFC
FFF8
EFE0
E000
E000
E000
F000
7E00
7E00
3E00
ENDCHAR
STARTCHAR uni0283
ENCODING 643
SWIDTH 273 0
DWIDTH 10 0
BBX 11 33 -1 -7
BITMAP
03E0
07E0
07E0
0F00
0E00
0E00
0E00
0E00
0E00
0E00
0E00
0E00
0E00
0E00
0E00
0E00
0E00
0E00
0E00
0E00
0E00
0E00
0E00
0E00
0E00
0E00
0E00
0E00
0E00
1E00
FC00
FC00
F800
ENDCHAR
STARTCHAR uni0284
ENCODING 644
SWIDTH 297 0
DWIDTH 11 0
BBX 13 33 0 -7
BITMAP
00F8
03F8
03F8
0780
0700
0700
0700
0700
0700
0700
0700
0700
0700
0700
0700
0700
0700
0700
0700
0700
0700
7FE0
7FE0
7FE0
0700
0700
0700
0700
0700
0F00
FE00
FE00
F800
ENDCHAR
STARTCHAR uni0285
ENCODING 645
SWIDTH 273 0
DWIDTH 10 0
BBX 11 26 0 -7
BITMAP
F800
FC00
FC00
1E00
0E00
0E00
0E00
0E00
0E00
0E00
0E00
0E00
0E00
0E00
0E00
0E00
0E00
0E00
0E00
0E00
0E00
0E00
0F00
07E0
07E0
03E0
ENDCHAR
STARTCHAR uni0286
ENCODING 646
SWIDTH 449 0
DWIDTH 16 0
BBX 16 33 0 -7
BITMAP
001F
003F
003F
0078
0070
0070
0070
0070
0070
0070
0070
0070
0070
0070
0070
0070
0070
0070
0070
0070
0070
0070
0070
0070
3C70
7F70
FFF0
E3E0
E1E0
E3F0
FFF8
7FB0
3E10
ENDCHAR
STARTCHAR uni0287
ENCODING 647
SWIDTH 277 0
DWIDTH 10 0
BBX 8 24 1 0
BITMAP
F0
F8
FC
1C
1C
1C
1C
1C
1C
1C
1C
1C
1C
1C
1C
1C
FF
FF
FF
1C
1C
1C
1C
1C
ENDCHAR
STARTCHAR uni0288
ENCODING 648
SWIDTH 277 0
DWIDTH 10 0
BBX 8 31 1 -7
BITMAP
38
38
38
38
38
FF
FF
FF
38
38
38
38
38
38
38
38
38
38
38
38
38
38
38
38
38
38
38
38
3F
1F
0F
ENDCHAR
STARTCHAR uni0289
ENCODING 649
SWIDTH 556 0
DWIDTH 20 0
BBX 19 19 0 0
BITMAP
380380
380380
380380
380380
380380
380380
FFFFE0
FFFFE0
FFFFE0
380380
380380
380380
380380
380380
380780
3C1F80
1FFF80
0FFB80
07E380
ENDCHAR
STARTCHAR uni028A
ENCODING 650
SWIDTH 596 0
DWIDTH 21 0
BBX 18 19 1 0
BITMAP
FF1FC0
FF1FC0
FF1FC0
0E0E00
380700
700380
700180
E001C0
E001C0
E001C0
E001C0
E001C0
E001C0
700380
780780
3C0F00
1FFE00
0FFC00
03F000
ENDCHAR
STARTCHAR uni028B
ENCODING 651
SWIDTH 528 0
DWIDTH 19 0
BBX 15 19 2 0
BITMAP
E1F0
E1FC
E1FC
E11E
E00E
E00E
E00E
E00E
E00E
E00E
E00E
E00C
E01C
E01C
F03C
F078
7FF0
3FE0
1F80
ENDCHAR
STARTCHAR uni028C
ENCODING 652
SWIDTH 500 0
DWIDTH 18 0
BBX 17 19 1 0
BITMAP
01C000
03E000
03E000
03E000
077000
077000
0F7800
0E3800
0E3800
1E3C00
1C1C00
1C1C00
380E00
380E00
380E00
700700
700700
700700
E00380
ENDCHAR
STARTCHAR uni028D
ENCODING 653
SWIDTH 722 0
DWIDTH 26 0
BBX 27 19 -1 0
BITMAP
01807000
03C07800
03C07800
07C07800
06E0EC00
06E0EC00
0EE0EE00
0EE1EE00
0C71C600
1C71C700
1C71C700
183B8300
383B8380
383B8380
381F8180
701F01C0
701F01C0
700F01C0
E00E00E0
ENDCHAR
STARTCHAR uni028E
ENCODING 654
SWIDTH 500 0
DWIDTH 18 0
BBX 17 26 1 0
BITMAP
001F00
003F00
007F00
007800
00F000
00E000
01E000
01C000
03E000
03E000
03E000
07F000
077000
077000
0E3800
0E3800
1E3C00
1C1C00
1C1C00
3C1E00
380E00
380E00
700700
700700
700700
E00380
ENDCHAR
STARTCHAR uni028F
ENCODING 655
SWIDTH 475 0
DWIDTH 17 0
BBX 17 19 0 0
BITMAP
F00780
700700
380E00
3C1E00
1C1C00
0E3C00
0F7800
077000
07F000
03E000
01C000
01C000
01C000
01C000
01C000
01C000
01C000
01C000
01C000
ENDCHAR
STARTCHAR uni0290
ENCODING 656
SWIDTH 500 0
DWIDTH 18 0
BBX 19 26 1 -7
BITMAP
7FFE00
7FFE00
7FFE00
001E00
003C00
007800
00F000
01E000
01C000
038000
070000
0F0000
1E0000
3C0000
780000
F00000
FFFE00
FFFE00
FFFE00
000E00
000E00
000E00
000F00
000FE0
0007E0
0003E0
ENDCHAR
STARTCHAR uni0291
ENCODING 657
SWIDTH 553 0
DWIDTH 20 0
BBX 19 22 1 -3
BITMAP
7FFF00
7FFF00
7FFF00
000F00
001E00
003C00
007800
00F000
01E000
03C000
078F80
0F1FC0
1E3FE0
3C78E0
78F0E0
F0E0E0
FFFFE0
FFFFC0
FFFF80
038000
078000
010000
ENDCHAR
STARTCHAR uni0292
ENCODING 658
SWIDTH 471 0
DWIDTH 17 0
BBX 15 26 1 -7
BITMAP
7FFE
7FFE
7FFE
001C
0038
0078
00F0
01E0
01C0
03F0
0078
003C
001C
001E
000E
000E
000E
000E
000E
000E
001E
803C
E07C
FFF8
FFF0
1F80
ENDCHAR
STARTCHAR uni0293
ENCODING 659
SWIDTH 471 0
DWIDTH 17 0
BBX 16 26 1 -7
BITMAP
7FFE
7FFE
7FFE
001C
003C
0038
0070
00E0
01E0
03F0
0078
003C
001C
001E
000E
000E
000E
3F0E
7FCE
FFFE
E1FC
E07C
F07E
FFFF
7FE6
1F82
ENDCHAR
STARTCHAR uni0294
ENCODING 660
SWIDTH 500 0
DWIDTH 18 0
BBX 15 26 1 0
BITMAP
0FC0
3FF0
7FF8
7878
F03C
E01C
001E
000E
000E
000E
000E
000E
000E
001E
001C
003C
0078
07F8
07F0
07C0
0700
0700
0700
0700
0700
0700
ENDCHAR
STARTCHAR uni0295
ENCODING 661
SWIDTH 500 0
DWIDTH 18 0
BBX 16 26 1 0
BITMAP
07F0
0FFC
3FFE
3C1E
780F
7007
F000
E000
E000
E000
E000
E000
E000
F000
7000
7800
3C00
3FC0
1FC0
07C0
01C0
01C0
01C0
01C0
01C0
01C0
ENDCHAR
STARTCHAR uni0296
ENCODING 662
SWIDTH 500 0
DWIDTH 18 0
BBX 15 26 1 0
BITMAP
0700
0700
0700
0700
0700
0700
07C0
07F0
07F8
0078
003C
001C
001E
000E
000E
000E
000E
000E
000E
001E
E01C
E03C
7878
7FF8
3FF0
0FC0
ENDCHAR
STARTCHAR uni0297
ENCODING 663
SWIDTH 500 0
DWIDTH 18 0
BBX 16 26 1 -7
BITMAP
07F0
1FFC
3FFE
3C1E
780F
7007
E000
E000
E000
E000
E000
E000
E000
E000
E000
E000
E000
E000
E000
E000
7007
780F
3C1E
3FFE
1FFC
07F0
ENDCHAR
STARTCHAR uni0298
ENCODING 664
SWIDTH 777 0
DWIDTH 28 0
BBX 24 26 2 0
BITMAP
00FF00
03FFC0
0FFFF0
1F81F8
1E0078
3C003C
78001E
70000E
70000E
E00007
E00007
E01807
E03C07
E03C07
E01807
E00007
E00007
70000E
70000E
78001E
3C003C
1E0078
1F81F8
0FFFF0
03FFC0
00FF00
ENDCHAR
STARTCHAR uni0299
ENCODING 665
SWIDTH 530 0
DWIDTH 19 0
BBX 15 19 2 0
BITMAP
FFE0
FFF8
FFF8
E03C
E01C
E01C
E01C
E03C
FFF8
FFF0
FFFC
E03E
E00E
E00E
E00E
E01E
FFFC
FFF8
FFF0
ENDCHAR
STARTCHAR uni029A
ENCODING 666
SWIDTH 534 0
DWIDTH 19 0
BBX 16 19 1 0
BITMAP
07E0
1FF8
3FFC
783E
701E
700E
7807
3FC7
0FC7
3FC7
7807
F007
E007
E00E
E01E
F83C
7FFC
3FF8
0FE0
ENDCHAR
STARTCHAR uni029B
ENCODING 667
SWIDTH 584 0
DWIDTH 21 0
BBX 22 23 1 0
BITMAP
00007C
0000FC
0000FC
0001C4
03F180
0FFD80
3FFF80
3C0F80
780780
700380
E00000
E00000
E00000
E03F80
E03F80
E03F80
E00380
700380
780780
3C0F80
3FFF80
0FFF80
03F380
ENDCHAR
STARTCHAR uni029C
ENCODING 668
SWIDTH 556 0
DWIDTH 20 0
BBX 15 19 2 0
BITMAP
E00E
E00E
E00E
E00E
E00E
E00E
E00E
E00E
FFFE
FFFE
FFFE
E00E
E00E
E00E
E00E
E00E
E00E
E00E
E00E
ENDCHAR
STARTCHAR uni029D
ENCODING 669
SWIDTH 374 0
DWIDTH 13 0
BBX 13 33 0 -7
BITMAP
00E0
00E0
00E0
0000
0000
0000
0000
00E0
00E0
00E0
00E0
00E0
00E0
00E0
00E0
00E0
00E0
00E0
00E0
00E0
00E0
00E0
00E0
1FF8
7FF8
FFF8
F0E0
E0E0
E0E0
F1E0
FFC0
7FC0
3F00
ENDCHAR
STARTCHAR uni029E
ENCODING 670
SWIDTH 500 0
DWIDTH 18 0
BBX 15 26 0 -7
BITMAP
F00E
700E
380E
3C0E
1C0E
0E0E
0F0E
070E
039E
03FE
01FE
00FE
01EE
03CE
078E
0F0E
1E0E
3C0E
780E
000E
000E
000E
000E
000E
000E
000E
ENDCHAR
STARTCHAR uni029F
ENCODING 671
SWIDTH 423 0
DWIDTH 15 0
BBX 12 19 2 0
BITMAP
E000
E000
E000
E000
E000
E000
E000
E000
E000
E000
E000
E000
E000
E000
E000
E000
FFF0
FFF0
FFF0
ENDCHAR
STARTCHAR uni02A0
ENCODING 672
SWIDTH 556 0
DWIDTH 20 0
BBX 20 33 1 -7
BITMAP
0001F0
0003F0
0003F0
000780
000700
000700
000700
07E700
1FFF00
3FFF00
3C3F00
700F00
700700
E00700
E00700
E00700
E00700
E00700
E00700
E00700
F00F00
701F00
7C3F00
3FFF00
1FF700
07C700
000700
000700
000700
000700
000700
000700
000700
ENDCHAR
STARTCHAR uni02A1
ENCODING 673
SWIDTH 500 0
DWIDTH 18 0
BBX 15 26 1 0
BITMAP
0FC0
3FF0
7FF8
787C
F03C
E01C
000E
000E
000E
000E
000E
000E
000E
001C
003C
007C
07F8
07F0
07C0
0700
0700
7FE0
7FE0
7FE0
0700
0700
ENDCHAR
STARTCHAR uni02A2
ENCODING 674
SWIDTH 500 0
DWIDTH 18 0
BBX 16 26 1 0
BITMAP
07F0
1FFC
3FFE
3C1E
780F
7007
E000
E000
E000
E000
E000
E000
E000
7000
7800
7C00
3FC0
1FC0
07C0
01C0
01C0
0FFC
0FFC
0FFC
01C0
01C0
ENDCHAR
STARTCHAR uni02A3
ENCODING 675
SWIDTH 944 0
DWIDTH 34 0
BBX 32 26 1 0
BITMAP
00070000
00070000
00070000
00070000
00070000
00070000
00070000
07E7FFFE
1FFFFFFE
3FFFFFFE
3C3F001E
700F003C
70070078
E00700F0
E00701E0
E00703C0
E0070780
E0070F00
E0071E00
E0073C00
F00F7800
701F7000
7C3FE000
3FFFFFFF
1FF7FFFF
07C7FFFF
ENDCHAR
STARTCHAR uni02A4
ENCODING 676
SWIDTH 886 0
DWIDTH 32 0
BBX 30 33 1 -7
BITMAP
00070000
00070000
00070000
00070000
00070000
00070000
00070000
07E7FFFC
1FFFFFFC
3FFFFFFC
3C3F0078
700F0070
700700E0
E00701C0
E0070380
E0070780
E0070FE0
E00701F0
E0070070
E0070038
F00F0038
701F001C
7C3F001C
3FFF001C
1FF7001C
07C7001C
0000001C
00000038
00000078
000300F8
0003FFF0
0003FFC0
00007F00
ENDCHAR
STARTCHAR uni02A5
ENCODING 677
SWIDTH 998 0
DWIDTH 36 0
BBX 34 29 1 -3
BITMAP
0007000000
0007000000
0007000000
0007000000
0007000000
0007000000
0007000000
07E7FFFE00
1FFFFFFE00
3FFFFFFE00
3C3F001E00
700F003C00
7007007800
E00700F000
E00701E000
E00703C000
E007078000
E0070F0F00
E0071E3F80
E0073C3FC0
F00F7879C0
701F70F1C0
7C3FE1E1C0
3FFFFFFFC0
1FF7FFFF80
07C7FFFF00
0000038000
0000078000
0000010000
ENDCHAR
STARTCHAR uni02A6
ENCODING 678
SWIDTH 713 0
DWIDTH 26 0
BBX 23 24 1 0
BITMAP
380000
380000
380000
380000
380000
FFFFC0
FFFFF0
FFFFF8
38F07C
38E01C
38E01C
38F000
38FC00
387FC0
381FF8
3803FC
38003E
38000E
38000E
38000E
3C001E
3FFFFC
1FFFF8
0FFFE0
ENDCHAR
STARTCHAR uni02A7
ENCODING 679
SWIDTH 446 0
DWIDTH 16 0
BBX 15 33 1 -7
BITMAP
003E
007E
38FE
38F0
38E0
38E0
38E0
FFE0
FFE0
FFE0
38E0
38E0
38E0
38E0
38E0
38E0
38E0
38E0
38E0
38E0
38E0
38E0
3CE0
3FE0
1FE0
0FE0
00E0
00E0
00E0
01E0
0FC0
0FC0
0F80
ENDCHAR
STARTCHAR uni02A8
ENCODING 680
SWIDTH 755 0
DWIDTH 27 0
BBX 25 24 1 0
BITMAP
38000000
38000000
38000000
38000000
38000000
FF03F800
FF0FFE00
FF1FFF00
383E0F00
383C0780
38380380
38700000
38700000
38700000
3870FC00
3873FE00
387FFF00
387F8F00
383E0700
383C0700
38FE0F00
3FFFFE00
1FE7FC00
0F81F800
ENDCHAR
STARTCHAR uni02A9
ENCODING 681
SWIDTH 762 0
DWIDTH 27 0
BBX 24 33 0 -7
BITMAP
07C000
0FC000
1FC000
1E0000
1C0000
1C0000
1C0000
FFF8F8
FFFBFC
FFFFFE
1C3F0F
1C3C0F
1C3807
1C3807
1C3807
1C3807
1C3807
1C3807
1C3807
1C3807
1C3807
1C3807
1C3807
1C3807
1C3807
1C3807
000007
000007
000007
00000F
00007E
00007E
00007C
ENDCHAR
STARTCHAR uni02AA
ENCODING 682
SWIDTH 675 0
DWIDTH 24 0
BBX 20 26 2 0
BITMAP
E00000
E00000
E00000
E00000
E00000
E00000
E00000
E07E00
E1FF80
E3FFC0
E783E0
E700E0
E700E0
E78000
E7F000
E3FF00
E0FFC0
E01FE0
E001F0
E00070
E00070
F80070
FF01F0
FFFFE0
FFFFC0
E1FF00
ENDCHAR
STARTCHAR uni02AB
ENCODING 683
SWIDTH 617 0
DWIDTH 22 0
BBX 19 26 2 0
BITMAP
E00000
E00000
E00000
E00000
E00000
E00000
E00000
FFFFC0
FFFFC0
FFFFC0
E003C0
E00780
E00F00
E01E00
E03C00
E07800
E0F000
E1E000
E3C000
E78000
EF0000
EE0000
FC0000
FFFFE0
FFFFE0
FFFFE0
ENDCHAR
STARTCHAR uni02AC
ENCODING 684
SWIDTH 485 0
DWIDTH 17 0
BBX 17 26 0 0
BITMAP
C1C180
C1C180
61C300
63E300
636300
636300
377600
363600
363600
363600
1C1C00
1C1C00
1C1C00
000000
C1C180
C1C180
61C300
636300
636300
736700
363600
363600
363600
1E1C00
1C1C00
1C1C00
ENDCHAR
STARTCHAR uni02AD
ENCODING 685
SWIDTH 563 0
DWIDTH 20 0
BBX 16 26 2 0
BITMAP
FFFF
FFFF
FFFF
E007
E007
E007
E007
E007
E007
0000
0000
0000
0000
0000
0000
0000
0000
FFFF
FFFF
FFFF
E007
E007
E007
E007
E007
E007
ENDCHAR
STARTCHAR uni02AE
ENCODING 686
SWIDTH 616 0
DWIDTH 22 0
BBX 19 26 1 -7
BITMAP
F800E0
FC00E0
FC00E0
1E00E0
0E00E0
0E00E0
0E00E0
0E00E0
0E00E0
0E00E0
0E00E0
0E00E0
0E00E0
0E00E0
0E03E0
0F87E0
07FFE0
03FEE0
01F8E0
0000E0
0000E0
0000E0
0000E0
0000E0
0000E0
0000E0
ENDCHAR
STARTCHAR uni02AF
ENCODING 687
SWIDTH 656 0
DWIDTH 24 0
BBX 23 26 1 -7
BITMAP
F800E0
FC00E0
FC00E0
1E00E0
0E00E0
0E00E0
0E00E0
0E00E0
0E00E0
0E00E0
0E00E0
0E00E0
0E00E0
0E00E0
0E03E0
0F87E0
07FFE0
03FEE0
01F8E0
0000E0
0000E0
0000E0
0000F0
00007E
00007E
00003E
ENDCHAR
STARTCHAR uni02B0
ENCODING 688
SWIDTH 370 0
DWIDTH 13 0
BBX 9 18 2 8
BITMAP
C000
C000
C000
C000
C000
DE00
FF00
E380
C180
C180
C180
C180
C180
C180
C180
C180
C180
C180
ENDCHAR
STARTCHAR uni02B1
ENCODING 689
SWIDTH 370 0
DWIDTH 13 0
BBX 9 18 2 8
BITMAP
7800
F800
C000
C000
C000
DE00
FF00
E380
C180
C180
C180
C180
C180
C180
C180
C180
C180
C180
ENDCHAR
STARTCHAR uni02B2
ENCODING 690
SWIDTH 179 0
DWIDTH 6 0
BBX 4 22 0 4
BITMAP
30
30
00
00
00
30
30
30
30
30
30
30
30
30
30
30
30
30
30
30
F0
E0
ENDCHAR
STARTCHAR uni02B3
ENCODING 691
SWIDTH 229 0
DWIDTH 8 0
BBX 6 13 2 8
BITMAP
DC
FC
E0
C0
C0
C0
C0
C0
C0
C0
C0
C0
C0
ENDCHAR
STARTCHAR uni02B4
ENCODING 692
SWIDTH 229 0
DWIDTH 8 0
BBX 6 13 0 8
BITMAP
0C
0C
0C
0C
0C
0C
0C
0C
0C
0C
1C
FC
EC
ENDCHAR
STARTCHAR uni02B5
ENCODING 693
SWIDTH 229 0
DWIDTH 8 0
BBX 8 17 0 4
BITMAP
0C
0C
0C
0C
0C
0C
0C
0C
0C
0C
1C
FC
EC
0C
0C
0F
07
ENDCHAR
STARTCHAR uni02B6
ENCODING 694
SWIDTH 357 0
DWIDTH 13 0
BBX 10 13 2 8
BITMAP
C0C0
C180
C180
C180
C300
FE00
FF80
C1C0
C0C0
C0C0
C1C0
FF80
FF00
ENDCHAR
STARTCHAR uni02B7
ENCODING 695
SWIDTH 486 0
DWIDTH 18 0
BBX 18 13 0 8
BITMAP
C0C0C0
E1C1C0
61E180
61E180
61E180
333300
333300
333300
121200
1E1E00
1E1E00
0C0C00
0C0C00
ENDCHAR
STARTCHAR uni02B8
ENCODING 696
SWIDTH 327 0
DWIDTH 12 0
BBX 12 17 0 4
BITMAP
C030
6060
6060
6060
30C0
30C0
1980
1980
1F80
0F00
0F00
0600
0600
0C00
1C00
7800
7000
ENDCHAR
ENDFONT
